<svg width="60" height="60" viewBox="0 0 60 60" fill="none" xmlns="http://www.w3.org/2000/svg">
<g clip-path="url(#clip0_451_6504)">
<mask id="mask0_451_6504" style="mask-type:luminance" maskUnits="userSpaceOnUse" x="0" y="0" width="60" height="60">
<path d="M60 0H0V60H60V0Z" fill="white"/>
</mask>
<g mask="url(#mask0_451_6504)">
<path d="M45.9375 0H14.0625C6.296 0 0 6.296 0 14.0625V45.9375C0 53.704 6.296 60 14.0625 60H45.9375C53.704 60 60 53.704 60 45.9375V14.0625C60 6.296 53.704 0 45.9375 0Z" fill="#00005B"/>
<path d="M24.6462 36.5906H15.3461L13.4461 42.4905C13.3961 42.7155 13.1961 42.8655 12.9711 42.8407H8.27114C7.99614 42.8407 7.92114 42.6907 7.99614 42.3907L16.0461 19.3156C16.1211 19.0656 16.1961 18.8406 16.2961 18.5406C16.3961 18.0156 16.4461 17.4656 16.4461 16.9156C16.4211 16.7906 16.5211 16.6656 16.6461 16.6406H16.7211H23.1211C23.2961 16.6406 23.4211 16.7156 23.4462 16.8406L32.5711 42.3405C32.6461 42.6157 32.5711 42.7406 32.3212 42.7406H27.0961C26.9212 42.7657 26.7462 42.6405 26.6962 42.4657L24.6462 36.4657V36.5906ZM16.7961 31.6155H23.1461C22.9961 31.0905 22.7961 30.4657 22.5711 29.8155C22.3461 29.1405 22.1211 28.4156 21.8961 27.6656C21.6461 26.8905 21.4211 26.1405 21.1711 25.3657C20.9211 24.5906 20.6961 23.8657 20.4961 23.1406C20.2961 22.4406 20.1211 21.7906 19.9461 21.1906H19.8961C19.6711 22.2656 19.3961 23.3406 19.0461 24.4155C18.6711 25.6155 18.2961 26.8657 17.8961 28.1156C17.5711 29.3906 17.1711 30.5655 16.7961 31.6155Z" fill="#9999FF"/>
<path d="M47.2957 34.3403H39.3708C39.4706 35.1154 39.7207 35.8902 40.1456 36.5652C40.5956 37.2402 41.2207 37.7652 41.9707 38.0652C42.9708 38.4904 44.0707 38.7154 45.1706 38.6903C46.0458 38.6652 46.9207 38.5902 47.7708 38.4154C48.5456 38.3153 49.2956 38.1154 49.9957 37.8402C50.1206 37.7404 50.1956 37.7903 50.1956 38.0404V41.8654C50.1956 41.9652 50.1708 42.0653 50.1457 42.1654C50.0958 42.2404 50.0456 42.2903 49.9706 42.3402C49.1707 42.6904 48.3457 42.9402 47.4708 43.0902C46.2956 43.3152 45.1207 43.4153 43.9207 43.3902C42.0206 43.3902 40.4208 43.0902 39.1207 42.5153C37.8956 41.9903 36.8208 41.1653 35.9707 40.1404C35.1708 39.1654 34.5956 38.0652 34.2457 36.8652C33.8958 35.6903 33.7207 34.4652 33.7207 33.2153C33.7207 31.8653 33.9206 30.5404 34.3458 29.2403C34.7456 27.9904 35.3707 26.8403 36.2208 25.8154C37.0458 24.8153 38.0707 24.0154 39.2456 23.4402C40.4208 22.8653 41.8207 22.6653 43.4208 22.6653C44.7457 22.6403 46.0706 22.8903 47.2957 23.4402C48.3206 23.8902 49.2206 24.5652 49.9207 25.4404C50.5706 26.2902 51.0956 27.2404 51.4207 28.2904C51.7458 29.2902 51.8958 30.3154 51.8958 31.3403C51.8958 31.9403 51.8707 32.4653 51.8456 32.9404C51.7957 33.4152 51.7706 33.7654 51.7458 33.9904C51.7207 34.1652 51.5707 34.3152 51.3956 34.3152C51.2456 34.3152 50.9707 34.3403 50.5706 34.3654C50.1708 34.4153 49.6957 34.4404 49.1208 34.4404C48.5456 34.4404 47.9456 34.3403 47.2957 34.3403ZM39.3708 30.6904H44.6456C45.2958 30.6904 45.7706 30.6904 46.0706 30.6653C46.2708 30.6402 46.4707 30.5903 46.6458 30.4654V30.2153C46.6458 29.8902 46.5956 29.5902 46.4958 29.2902C46.0458 27.8903 44.7206 26.9404 43.2457 26.9903C41.8706 26.9153 40.5708 27.6402 39.9206 28.8904C39.6206 29.4653 39.4458 30.0653 39.3708 30.6904Z" fill="#9999FF"/>
</g>
</g>
<defs>
<clipPath id="clip0_451_6504">
<rect width="60" height="60" fill="white"/>
</clipPath>
</defs>
</svg>
