<svg width="60" height="60" viewBox="0 0 60 60" fill="none" xmlns="http://www.w3.org/2000/svg">
<g clip-path="url(#clip0_451_6294)">
<mask id="mask0_451_6294" style="mask-type:luminance" maskUnits="userSpaceOnUse" x="0" y="0" width="60" height="60">
<path d="M60 0H0V60H60V0Z" fill="white"/>
</mask>
<g mask="url(#mask0_451_6294)">
<path d="M45.9375 0H14.0625C6.296 0 0 6.296 0 14.0625V45.9375C0 53.704 6.296 60 14.0625 60H45.9375C53.704 60 60 53.704 60 45.9375V14.0625C60 6.296 53.704 0 45.9375 0Z" fill="#F4F2ED"/>
<path d="M25.0847 11.4419H14.2474C12.089 11.4419 10.315 13.2845 10.315 15.5661C10.2379 17.7683 11.9339 19.6103 14.0554 19.6902H25.2005L25.0847 11.4419Z" fill="#073042"/>
<path d="M49.6484 48.1178H14.2469C12.0498 48.1178 10.3145 46.2761 10.3145 43.9938V15.5264C10.3145 17.8082 12.0885 19.6502 14.2469 19.69H43.9029C43.9029 19.69 49.687 19.1702 49.687 23.6945V48.1178H49.6484Z" fill="#4285F4"/>
<path d="M33.1436 33.5436C34.7247 32.3026 35.0331 29.9804 33.8387 28.3784C33.1825 27.4977 32.1798 26.9373 31.0996 26.8969H31.2154C31.4087 26.8571 31.6398 26.8571 31.8334 26.8969V24.6148C31.8334 24.3345 31.7172 24.0943 31.4858 23.9745C31.1385 23.7741 30.7145 23.8944 30.5218 24.2546C30.4445 24.3748 30.4061 24.4948 30.4445 24.6549V26.9769C28.5165 27.2973 27.1668 29.1793 27.4745 31.2216V31.2615C27.6294 32.2224 28.1312 33.1034 28.9021 33.6638L22.3848 48.1578H26.627L29.6345 41.5114C29.9823 40.7103 30.9074 40.3503 31.7172 40.7506C32.0263 40.9109 32.2956 41.191 32.4498 41.5114L35.574 48.1578H39.8926L33.1436 33.5436ZM30.9458 32.903C29.7116 32.903 28.7476 31.8619 28.7476 30.5811C28.7476 29.2993 29.7503 28.2985 30.984 28.3384C31.5625 28.3384 32.0647 28.5788 32.4883 28.9796C33.3751 29.8599 33.3751 31.3016 32.5267 32.2224C32.1414 32.623 31.5625 32.903 30.9458 32.903Z" fill="#3870B2"/>
<path d="M22.7324 13.4443H37.9261V16.3269H22.7324V13.4443Z" fill="white"/>
<path d="M29.7876 28.2988C30.9827 28.2988 31.9861 29.3399 31.9476 30.6209C31.9476 31.8622 30.9445 32.9033 29.7103 32.8632C28.5152 32.8632 27.5507 31.8224 27.5507 30.5813C27.5507 29.9806 27.7818 29.4198 28.2072 28.9799C28.6307 28.539 29.2087 28.2988 29.7876 28.2988ZM30.6361 26.9771V24.575C30.6361 24.2947 30.5205 24.0547 30.2892 23.9342C29.9423 23.7341 29.5179 23.8543 29.3243 24.2148C29.2469 24.3348 29.2087 24.455 29.2469 24.6151V26.9375C27.3189 27.2574 25.9692 29.1399 26.2788 31.1818V31.2219C26.4332 32.1821 26.9339 33.0634 27.7052 33.6235L19.4912 51.9216C19.183 52.5629 19.2215 53.3631 19.6457 53.9638C20.2619 54.8844 21.4584 55.1246 22.3443 54.4843C22.6539 54.2839 22.885 53.9638 23.039 53.6434L28.5152 41.4713C28.8621 40.6707 29.7876 40.3102 30.5976 40.7106C30.9061 40.8709 31.1756 41.1514 31.33 41.4713L36.9218 53.5234C37.3851 54.5241 38.5413 54.9245 39.5062 54.4438C40.4695 53.9638 40.8555 52.7624 40.3924 51.7613L31.9476 33.5438C33.4898 32.2623 33.76 29.9005 32.5254 28.2988C32.0634 27.658 31.4074 27.2176 30.6361 26.9771Z" fill="#073042"/>
<path d="M35.6898 16.0069C35.1107 16.0069 34.648 15.566 34.648 14.9658C34.648 14.6855 34.7633 14.3653 34.9562 14.1649C35.3807 13.7648 35.998 13.7648 36.4222 14.1649C36.6147 14.3653 36.7304 14.6454 36.7304 14.9257C36.692 15.5264 36.2678 15.9668 35.6898 16.0069ZM24.2748 15.9668C23.6954 15.9668 23.2334 15.4863 23.2334 14.9257C23.2334 14.6454 23.3495 14.3653 23.5415 14.1649C23.8888 13.7248 24.5453 13.6444 24.9688 14.0053H25.0075C25.4312 14.4054 25.4697 15.0858 25.0848 15.5264L24.9688 15.686C24.7764 15.8864 24.5068 16.0069 24.2359 16.0069L24.2748 15.9668ZM35.998 9.52031L38.0418 5.83687C38.1573 5.63672 38.0802 5.39648 37.9262 5.23641C37.7333 5.15625 37.5409 5.19633 37.4254 5.35664L35.3038 9.16008C31.9105 7.59867 28.0543 7.59867 24.6993 9.16008L22.6168 5.39648C22.5397 5.27648 22.385 5.15625 22.2303 5.15625C22.0763 5.15625 21.9219 5.23641 21.8443 5.39648C21.7674 5.51672 21.7674 5.71664 21.8443 5.83687L23.9275 9.52031C20.3019 11.5617 17.9497 15.4064 17.6035 19.6502H42.3604C42.0526 15.3666 39.6613 11.5617 36.0365 9.52031" fill="#3DDC84"/>
<path d="M46.2586 27.6185H44.6388C44.5612 27.6579 44.4844 27.738 44.4844 27.858V54.4842C44.4844 54.604 44.5612 54.6841 44.6777 54.6841H46.3741C48.3408 54.6841 49.9219 53.0023 49.9219 51.0007V23.8945C49.9219 25.9364 48.3408 27.5782 46.3741 27.5782H46.2586V27.6185Z" fill="#073042"/>
</g>
</g>
<defs>
<clipPath id="clip0_451_6294">
<rect width="60" height="60" fill="white"/>
</clipPath>
</defs>
</svg>
