<svg width="60" height="60" viewBox="0 0 60 60" fill="none" xmlns="http://www.w3.org/2000/svg">
<g clip-path="url(#clip0_451_6318)">
<mask id="mask0_451_6318" style="mask-type:luminance" maskUnits="userSpaceOnUse" x="0" y="0" width="60" height="60">
<path d="M60 0H0V60H60V0Z" fill="white"/>
</mask>
<g mask="url(#mask0_451_6318)">
<path d="M45.9375 0H14.0625C6.296 0 0 6.296 0 14.0625V45.9375C0 53.704 6.296 60 14.0625 60H45.9375C53.704 60 60 53.704 60 45.9375V14.0625C60 6.296 53.704 0 45.9375 0Z" fill="#F4F2ED"/>
<path d="M19.863 26.2409C19.863 26.8113 19.9247 27.2738 20.0326 27.6131C20.1559 27.9523 20.3101 28.3223 20.526 28.7234C20.6031 28.8466 20.634 28.9699 20.634 29.078C20.634 29.2322 20.5414 29.3864 20.341 29.5404L19.3696 30.1882C19.2308 30.2805 19.092 30.327 18.9687 30.327C18.8145 30.327 18.6603 30.2498 18.5061 30.1111C18.2902 29.8798 18.1052 29.633 17.951 29.3864C17.7968 29.1241 17.6426 28.8312 17.473 28.4766C16.2703 29.8952 14.7592 30.6045 12.9397 30.6045C11.6445 30.6045 10.6114 30.2344 9.85584 29.4942C9.10024 28.7541 8.71484 27.7673 8.71484 26.5338C8.71484 25.223 9.17734 24.1591 10.1179 23.3573C11.0585 22.5555 12.3075 22.1546 13.8957 22.1546C14.4199 22.1546 14.9596 22.2009 15.5301 22.278C16.1006 22.3551 16.6866 22.4784 17.3034 22.6172V21.4916C17.3034 20.3197 17.0567 19.5025 16.5787 19.0245C16.0852 18.5465 15.2526 18.3152 14.0653 18.3152C13.5256 18.3152 12.9705 18.3769 12.4 18.5156C11.8295 18.6544 11.2744 18.824 10.7347 19.0399C10.488 19.1478 10.303 19.2095 10.195 19.2403C10.0871 19.2712 10.01 19.2866 9.94834 19.2866C9.73244 19.2866 9.62454 19.1324 9.62454 18.8086V18.053C9.62454 17.8063 9.65534 17.6213 9.73244 17.5134C9.80954 17.4054 9.94834 17.2975 10.1642 17.1896C10.7039 16.912 11.3515 16.6807 12.107 16.4957C12.8626 16.2952 13.6644 16.2027 14.5125 16.2027C16.3474 16.2027 17.6888 16.619 18.5523 17.4517C19.4004 18.2843 19.8322 19.5487 19.8322 21.2449V26.2409H19.863ZM13.6027 28.5846C14.1116 28.5846 14.6358 28.492 15.1909 28.3069C15.746 28.122 16.2394 27.7826 16.6557 27.3202C16.9025 27.0272 17.0875 26.7033 17.18 26.3332C17.2725 25.9631 17.3342 25.5159 17.3342 24.9919V24.3441C16.887 24.2362 16.409 24.1437 15.9156 24.082C15.4222 24.0204 14.9442 23.9895 14.4662 23.9895C13.4331 23.9895 12.6775 24.1901 12.1687 24.6063C11.6599 25.0226 11.4132 25.6085 11.4132 26.3796C11.4132 27.1043 11.5982 27.6438 11.9837 28.0139C12.3537 28.3995 12.8934 28.5846 13.6027 28.5846ZM25.9845 30.2498C25.707 30.2498 25.5218 30.2034 25.3985 30.0956C25.2752 30.003 25.1672 29.7872 25.0748 29.4942L21.4512 17.575C21.3587 17.2667 21.3124 17.0662 21.3124 16.9583C21.3124 16.7115 21.4358 16.5728 21.6825 16.5728H23.1936C23.4865 16.5728 23.6871 16.619 23.7949 16.727C23.9182 16.8195 24.0108 17.0354 24.1034 17.3283L26.6937 27.536L29.0993 17.3283C29.1764 17.0199 29.2688 16.8195 29.3923 16.727C29.5155 16.6345 29.7314 16.5728 30.0089 16.5728H31.2424C31.5354 16.5728 31.736 16.619 31.8593 16.727C31.9826 16.8195 32.0906 17.0354 32.1523 17.3283L34.5886 27.6593L37.256 17.3283C37.3486 17.0199 37.4566 16.8195 37.5645 16.727C37.6877 16.6345 37.8884 16.5728 38.1659 16.5728H39.5998C39.8466 16.5728 39.9853 16.6961 39.9853 16.9583C39.9853 17.0354 39.9698 17.1125 39.9544 17.205C39.9391 17.2975 39.9082 17.4208 39.8466 17.5905L36.1305 29.5097C36.038 29.8181 35.9299 30.0185 35.8066 30.1111C35.6834 30.2034 35.4827 30.2653 35.2207 30.2653H33.8946C33.6016 30.2653 33.4013 30.2189 33.278 30.1111C33.1545 30.003 33.0466 29.8027 32.985 29.4942L30.5948 19.5487L28.2204 29.4788C28.1433 29.7872 28.0507 29.9876 27.9274 30.0956C27.8039 30.2034 27.588 30.2498 27.3105 30.2498H25.9845ZM45.7985 30.6661C44.9967 30.6661 44.1949 30.5735 43.4238 30.3886C42.653 30.2034 42.0516 30.003 41.6506 29.7717C41.404 29.633 41.2343 29.4787 41.1727 29.34C41.111 29.2012 41.0801 29.047 41.0801 28.9083V28.122C41.0801 27.798 41.2034 27.6438 41.4347 27.6438C41.5273 27.6438 41.6198 27.6593 41.7122 27.6902C41.8048 27.7209 41.9435 27.7826 42.0977 27.8445C42.622 28.0755 43.1925 28.2607 43.7939 28.384C44.4108 28.5075 45.012 28.5691 45.6288 28.5691C46.6003 28.5691 47.3557 28.3995 47.88 28.0603C48.4043 27.7209 48.6818 27.2276 48.6818 26.5955C48.6818 26.1637 48.543 25.8089 48.2655 25.5159C47.988 25.223 47.4637 24.9609 46.7081 24.7141L44.4724 24.0204C43.3467 23.6658 42.514 23.1414 42.0052 22.4476C41.4963 21.7691 41.2343 21.0136 41.2343 20.2118C41.2343 19.5641 41.3731 18.9936 41.6506 18.5002C41.928 18.0068 42.2981 17.575 42.7608 17.2358C43.2234 16.8812 43.7477 16.619 44.3644 16.434C44.9813 16.249 45.6288 16.1719 46.3073 16.1719C46.6465 16.1719 47.0011 16.1873 47.3405 16.2336C47.6951 16.2798 48.0187 16.3415 48.3427 16.4032C48.6511 16.4803 48.9441 16.5574 49.2216 16.6499C49.4991 16.7424 49.7149 16.8349 49.8691 16.9274C50.085 17.0508 50.2392 17.1741 50.3318 17.3129C50.4241 17.4363 50.4706 17.6059 50.4706 17.8218V18.5465C50.4706 18.8703 50.3473 19.0399 50.1159 19.0399C49.9924 19.0399 49.792 18.9782 49.53 18.8549C48.6511 18.4539 47.6641 18.2535 46.5694 18.2535C45.6905 18.2535 44.9967 18.3923 44.5186 18.6852C44.0407 18.9782 43.7939 19.4254 43.7939 20.0576C43.7939 20.4893 43.9481 20.8594 44.2566 21.1523C44.5648 21.4453 45.1355 21.7383 45.9527 22.0004L48.1423 22.6943C49.2523 23.0489 50.0543 23.5423 50.5322 24.1746C51.0101 24.8067 51.2414 25.5314 51.2414 26.3332C51.2414 26.9963 51.1027 27.5977 50.8406 28.122C50.5631 28.6462 50.1931 29.1087 49.7149 29.4788C49.237 29.8643 48.6663 30.1418 48.0035 30.3424C47.3095 30.5583 46.5848 30.6661 45.7985 30.6661Z" fill="#252F3E"/>
<path fill-rule="evenodd" clip-rule="evenodd" d="M48.7118 38.1601C43.6387 41.9071 36.2684 43.8962 29.9309 43.8962C21.0493 43.8962 13.0467 40.6117 7.00227 35.1533C6.52427 34.7216 6.95597 34.1357 7.52647 34.4748C14.0643 38.2679 22.1287 40.5655 30.4706 40.5655C36.0987 40.5655 42.2819 39.3936 47.9716 36.9882C48.8196 36.6027 49.5443 37.5432 48.7118 38.1601Z" fill="#FF9900"/>
<path fill-rule="evenodd" clip-rule="evenodd" d="M50.8255 35.7547C50.178 34.922 46.5391 35.3537 44.8891 35.5541C44.3957 35.616 44.3186 35.184 44.7658 34.8604C47.6645 32.825 52.4291 33.411 52.9844 34.0893C53.539 34.7832 52.8302 39.5479 50.1163 41.83C49.6998 42.1846 49.2991 41.9994 49.484 41.537C50.1009 40.0105 51.4731 36.5718 50.8255 35.7547Z" fill="#FF9900"/>
</g>
</g>
<defs>
<clipPath id="clip0_451_6318">
<rect width="60" height="60" fill="white"/>
</clipPath>
</defs>
</svg>
