<svg width="60" height="60" viewBox="0 0 60 60" fill="none" xmlns="http://www.w3.org/2000/svg">
<g clip-path="url(#clip0_451_6337)">
<mask id="mask0_451_6337" style="mask-type:luminance" maskUnits="userSpaceOnUse" x="0" y="0" width="60" height="60">
<path d="M60 0H0V60H60V0Z" fill="white"/>
</mask>
<g mask="url(#mask0_451_6337)">
<path d="M45.9375 0H14.0625C6.296 0 0 6.296 0 14.0625V45.9375C0 53.704 6.296 60 14.0625 60H45.9375C53.704 60 60 53.704 60 45.9375V14.0625C60 6.296 53.704 0 45.9375 0Z" fill="#F4F2ED"/>
<path d="M22.1893 7.96929H36.06L21.6608 50.6325C21.5129 51.0708 21.2311 51.4519 20.8552 51.7216C20.4794 51.9916 20.0284 52.1367 19.5657 52.137H8.7708C8.4203 52.137 8.0747 52.0535 7.7628 51.8934C7.4509 51.7334 7.1815 51.5016 6.977 51.2168C6.7725 50.932 6.6388 50.6027 6.5869 50.2559C6.5349 49.9092 6.5663 49.5551 6.6783 49.223L20.0936 9.47365C20.2415 9.03509 20.5233 8.65397 20.8993 8.38399C21.2752 8.11402 21.7264 7.96931 22.1893 7.96929Z" fill="url(#paint0_linear_451_6337)"/>
<path d="M42.3448 36.5845H20.3492C20.1447 36.5843 19.9449 36.6457 19.7758 36.7608C19.6066 36.8756 19.4761 37.039 19.4011 37.229C19.326 37.4194 19.31 37.6277 19.3551 37.8272C19.4003 38.0266 19.5044 38.208 19.654 38.3473L33.788 51.5395C34.1993 51.9232 34.7412 52.1367 35.3039 52.1367H47.7589L42.3448 36.5845Z" fill="#0078D4"/>
<path d="M22.1884 7.96925C21.7205 7.96745 21.2643 8.11532 20.8864 8.39125C20.5085 8.66715 20.2287 9.05668 20.0879 9.50291L6.69403 49.1866C6.57443 49.5201 6.53683 49.8773 6.58453 50.2284C6.63223 50.5793 6.76373 50.9137 6.96793 51.2029C7.17213 51.4924 7.44303 51.7284 7.75773 51.8908C8.07243 52.0535 8.42163 52.1379 8.77583 52.1369H19.8493C20.2617 52.0631 20.6472 51.8812 20.9663 51.6098C21.2855 51.3384 21.5269 50.9873 21.6658 50.5919L24.3368 42.7202L33.8777 51.6189C34.2776 51.9497 34.7791 52.1327 35.2978 52.1369H47.7063L42.2641 36.585L26.3995 36.5887L36.1092 7.96925H22.1884Z" fill="url(#paint1_linear_451_6337)"/>
<path d="M39.9066 9.47149C39.759 9.03361 39.4777 8.65312 39.1022 8.38361C38.7268 8.11413 38.2763 7.96919 37.8141 7.96924H22.3555C22.8176 7.96926 23.268 8.11422 23.6433 8.38373C24.0188 8.65321 24.3003 9.03365 24.4479 9.47149L37.8638 49.2225C37.9758 49.5546 38.0072 49.9087 37.9554 50.2556C37.9036 50.6025 37.7698 50.9318 37.5654 51.2168C37.3608 51.5015 37.0915 51.7336 36.7796 51.8936C36.4676 52.0537 36.1219 52.1374 35.7713 52.1374H51.2304C51.5811 52.1372 51.9268 52.0537 52.2385 51.8936C52.5504 51.7333 52.8197 51.5013 53.0243 51.2165C53.2287 50.9315 53.3623 50.6022 53.4141 50.2554C53.4661 49.9087 53.4347 49.5546 53.3225 49.2225L39.9066 9.47149Z" fill="url(#paint2_linear_451_6337)"/>
</g>
</g>
<defs>
<linearGradient id="paint0_linear_451_6337" x1="27.2447" y1="11.2423" x2="12.8398" y2="53.7984" gradientUnits="userSpaceOnUse">
<stop stop-color="#114A8B"/>
<stop offset="1" stop-color="#0669BC"/>
</linearGradient>
<linearGradient id="paint1_linear_451_6337" x1="31.7438" y1="31.0746" x2="28.4116" y2="32.2012" gradientUnits="userSpaceOnUse">
<stop stop-opacity="0.3"/>
<stop offset="0.071" stop-opacity="0.2"/>
<stop offset="0.321" stop-opacity="0.1"/>
<stop offset="0.623" stop-opacity="0.05"/>
<stop offset="1" stop-opacity="0"/>
</linearGradient>
<linearGradient id="paint2_linear_451_6337" x1="29.9131" y1="10.001" x2="45.7254" y2="52.1283" gradientUnits="userSpaceOnUse">
<stop stop-color="#3CCBF4"/>
<stop offset="1" stop-color="#2892DF"/>
</linearGradient>
<clipPath id="clip0_451_6337">
<rect width="60" height="60" fill="white"/>
</clipPath>
</defs>
</svg>
