<svg width="60" height="60" viewBox="0 0 60 60" fill="none" xmlns="http://www.w3.org/2000/svg">
<g clip-path="url(#clip0_451_6348)">
<mask id="mask0_451_6348" style="mask-type:luminance" maskUnits="userSpaceOnUse" x="0" y="0" width="60" height="60">
<path d="M60 0H0V60H60V0Z" fill="white"/>
</mask>
<g mask="url(#mask0_451_6348)">
<path d="M45.9375 0H14.0625C6.296 0 0 6.296 0 14.0625V45.9375C0 53.704 6.296 60 14.0625 60H45.9375C53.704 60 60 53.704 60 45.9375V14.0625C60 6.296 53.704 0 45.9375 0Z" fill="#242938"/>
<path fill-rule="evenodd" clip-rule="evenodd" d="M47.7701 16.1333L32.9716 7.34887C31.2054 6.30037 29.0283 6.30037 27.262 7.34887L12.4635 16.1333C10.6977 17.1818 9.60938 19.1191 9.60938 21.2162V38.7851C9.60938 40.8816 10.6977 42.8198 12.464 43.8684L27.2625 52.6512C28.1456 53.1757 29.1305 53.4373 30.117 53.4373C31.103 53.4373 32.088 53.1757 32.9712 52.6512L47.7696 43.8684C49.5359 42.8198 50.6248 40.8816 50.6248 38.7851V21.2162C50.6248 19.1191 49.5359 17.1818 47.7701 16.1333Z" fill="#242938"/>
<path fill-rule="evenodd" clip-rule="evenodd" d="M27.7798 51.7518L12.9812 42.9688C11.5338 42.1096 10.6346 40.5064 10.6346 38.7847V21.2163C10.6346 19.4944 11.5338 17.8915 12.9807 17.0326L27.7798 8.2482C28.4892 7.82702 29.2973 7.6043 30.117 7.6043C30.9361 7.6043 31.7442 7.82702 32.4544 8.2482L47.2528 17.0326C48.4725 17.7566 49.2952 19.0102 49.5265 20.4164C49.0357 19.3689 47.9287 19.0841 46.639 19.8376L32.6388 28.4851C30.8932 29.5056 29.606 30.6507 29.6048 32.7557V50.0066C29.6039 51.2671 30.113 52.0834 30.8948 52.3201C30.638 52.3646 30.379 52.3956 30.117 52.3956C29.2973 52.3956 28.4892 52.1729 27.7798 51.7518ZM47.7701 16.1329L32.9716 7.34902C32.0885 6.82451 31.1025 6.5625 30.117 6.5625C29.1312 6.5625 28.1452 6.82451 27.262 7.34902L12.4635 16.1329C10.6977 17.1814 9.60938 19.1193 9.60938 21.2163V38.7847C9.60938 40.8812 10.6977 42.8195 12.464 43.8681L27.2625 52.6513C28.1461 53.1754 29.1312 53.4374 30.117 53.4374C31.103 53.4374 32.088 53.1754 32.9712 52.6513L47.7701 43.8681C49.5363 42.8195 50.6248 40.8812 50.6248 38.7847V21.2163C50.6248 19.1193 49.5363 17.1814 47.7701 16.1329Z" fill="white"/>
<path fill-rule="evenodd" clip-rule="evenodd" d="M43.8902 40.4836L40.2054 42.6891C40.1077 42.746 40.0359 42.81 40.0352 42.9275V43.8917C40.0352 44.0096 40.1145 44.0585 40.212 44.0011L43.954 41.727C44.0515 41.67 44.0665 41.561 44.0672 41.4436V40.5931C44.0672 40.4759 43.988 40.4267 43.8902 40.4836Z" fill="#47B353"/>
<path fill-rule="evenodd" clip-rule="evenodd" d="M36.0441 32.3667C36.1634 32.3062 36.2616 32.3805 36.2632 32.5366L36.2756 33.8114C36.8093 33.599 37.2729 33.5423 37.6929 33.6393C37.7841 33.6637 37.8244 33.7877 37.7871 33.9349L37.5066 35.0646C37.4848 35.1499 37.4367 35.2361 37.3789 35.2898C37.3545 35.3137 37.3296 35.3322 37.305 35.3447C37.2673 35.3639 37.23 35.37 37.1944 35.3627C37.0027 35.3193 36.5468 35.2197 35.8296 35.583C35.0773 35.9639 34.8141 36.6175 34.8192 37.1027C34.8256 37.6821 35.1228 37.8576 36.1489 37.8752C37.5162 37.8979 38.1071 38.4954 38.1214 39.8726C38.1354 41.2249 37.4135 42.6771 36.3092 43.567L36.3335 44.8289C36.3349 44.9808 36.2363 45.1549 36.117 45.2154L35.3696 45.6459C35.2498 45.7064 35.1516 45.6318 35.1499 45.48L35.1371 44.2387C34.497 44.5047 33.8482 44.569 33.4339 44.4026C33.3558 44.3721 33.3223 44.2568 33.3532 44.1255L33.6242 42.9846C33.6457 42.8946 33.6933 42.8046 33.758 42.7474C33.7807 42.7251 33.8044 42.708 33.8281 42.6961C33.871 42.6745 33.9129 42.6698 33.9485 42.6832C34.395 42.8336 34.9662 42.7633 35.5153 42.4854C36.2131 42.1324 36.6797 41.4208 36.6724 40.714C36.6656 40.0725 36.3185 39.806 35.4741 39.7997C34.3992 39.8027 33.3973 39.5908 33.3806 38.0086C33.3673 36.7059 34.0446 35.3503 35.1169 34.4932L35.1035 33.2193C35.1019 33.0628 35.1975 32.8905 35.3206 32.8286L36.0441 32.3667Z" fill="#242938"/>
</g>
</g>
<defs>
<clipPath id="clip0_451_6348">
<rect width="60" height="60" fill="white"/>
</clipPath>
</defs>
</svg>
