<svg width="60" height="60" viewBox="0 0 60 60" fill="none" xmlns="http://www.w3.org/2000/svg">
<g clip-path="url(#clip0_451_6359)">
<mask id="mask0_451_6359" style="mask-type:luminance" maskUnits="userSpaceOnUse" x="0" y="0" width="60" height="60">
<path d="M60 0H0V60H60V0Z" fill="white"/>
</mask>
<g mask="url(#mask0_451_6359)">
<path d="M45.9375 0H14.0625C6.296 0 0 6.296 0 14.0625V45.9375C0 53.704 6.296 60 14.0625 60H45.9375C53.704 60 60 53.704 60 45.9375V14.0625C60 6.296 53.704 0 45.9375 0Z" fill="#F4F2ED"/>
<path d="M34.3722 37.9507C35.4337 47.441 44.4545 47.6974 48.4342 48.7235C60.108 51.0319 54.271 55.3924 49.4955 55.3924L49.7608 56.1619L39.6787 56.4185L47.9036 51.8015L48.6996 53.8535C50.0261 54.3663 58.782 51.2885 44.7199 50.006C38.8827 48.9799 35.1681 47.6974 33.0456 45.1326L25.882 49.2365C24.0248 45.1326 18.4531 43.5935 20.841 38.2071" fill="#D10000"/>
<path d="M34.3722 37.9507C35.4337 47.441 44.4545 47.6974 48.4342 48.7235C60.108 51.0319 54.271 55.3924 49.4955 55.3924L49.7608 56.1619L39.6787 56.4185L47.9036 51.8015L48.6996 53.8535C50.0261 54.3663 58.782 51.2885 44.7199 50.006C38.8828 48.9799 35.1681 47.6974 33.0456 45.1326L25.882 49.2365C24.0248 45.1326 18.4531 43.5935 20.841 38.2071" stroke="black" stroke-width="1.113" stroke-linecap="round" stroke-linejoin="round"/>
<path d="M32.7804 43.5935C33.311 43.8501 34.107 42.824 33.8416 42.311L14.4734 28.4604C14.4734 27.6909 16.3306 26.1518 13.6774 24.0998L13.9428 23.5868L10.4936 22.0479C11.0242 23.0739 11.5549 23.3304 12.0855 25.1259L13.1468 24.6129C14.2081 25.8954 14.2081 26.9212 13.1468 27.4343L11.2895 26.1518C11.2895 25.8954 11.5549 25.6387 11.5549 25.3823C11.5549 25.3823 11.2895 25.1259 10.4936 25.1259C9.96297 25.1259 8.90167 24.0998 8.10567 24.0998C8.10567 24.8693 9.43227 26.1518 9.43227 27.4343L10.2283 26.9212C11.0242 27.1779 11.5549 27.6909 12.0855 28.4604C11.2895 29.4862 10.2283 29.9993 8.10567 28.9732C8.10567 28.4604 8.63627 28.2037 8.63627 27.6909C7.57507 27.6909 6.24847 26.9212 4.92188 26.1518C5.45248 27.9473 7.04437 29.9993 8.63627 30.5123C11.2895 31.5382 12.3508 29.7429 13.6774 29.7429L32.7804 43.5935Z" fill="#FFD700" stroke="black" stroke-width="1.113" stroke-linecap="round" stroke-linejoin="round"/>
<path d="M25.3508 26.9213L17.3913 17.431C17.922 16.1485 17.6567 14.353 17.3913 13.5835C16.0647 9.35133 18.9833 7.42761 21.6365 5.37563C23.759 3.83666 24.8202 3.58015 25.3508 3.83665C25.8815 4.34965 23.2284 5.88863 22.6977 7.68411C22.6977 7.68411 22.1671 10.5056 24.0243 9.22308C25.6161 8.45358 27.7389 7.94061 30.1267 8.45358C31.9839 8.71008 34.9026 9.73608 36.7597 11.788C42.3313 10.7621 39.1476 7.42761 38.6169 5.37563C40.4741 3.83666 50.1583 13.327 38.3516 19.4829C38.3516 23.0739 37.5557 25.3824 35.1679 27.4343C32.2492 29.7429 34.1064 30.7688 34.6372 32.3077C35.9638 36.6682 35.4332 39.4896 30.1267 40.2591C26.4123 40.7721 25.8815 42.311 22.963 40.2591" fill="#D10000"/>
<path d="M25.3508 26.9213L17.3913 17.431C17.922 16.1485 17.6567 14.353 17.3913 13.5835C16.0647 9.35133 18.9833 7.42761 21.6365 5.37563C23.759 3.83666 24.8202 3.58015 25.3508 3.83665C25.8815 4.34965 23.2284 5.88863 22.6977 7.68411C22.6977 7.68411 22.1671 10.5056 24.0243 9.22308C25.6161 8.45358 27.7389 7.94061 30.1267 8.45358C31.9839 8.71008 34.9025 9.73608 36.7597 11.788C42.3313 10.7621 39.1476 7.42761 38.6169 5.37563C40.4741 3.83666 50.1583 13.327 38.3516 19.4829C38.3516 23.0739 37.5557 25.3824 35.1679 27.4343C32.2492 29.7429 34.1064 30.7688 34.6372 32.3077C35.9638 36.6682 35.4332 39.4896 30.1267 40.2591C26.4123 40.7721 25.8815 42.311 22.963 40.2591" stroke="black" stroke-width="1.113" stroke-linecap="round" stroke-linejoin="round"/>
<path d="M24.025 11.5314C24.2903 10.5055 21.6371 8.70998 18.7186 14.0964C18.4533 14.8659 17.392 16.9179 17.392 16.9179C17.1267 17.9438 16.8614 19.2263 16.3307 19.7393C13.6775 22.3043 15.0041 25.6386 18.4533 26.9211C19.2492 27.1778 21.6371 28.9731 23.229 29.7428C24.025 30.2556 23.229 32.0511 21.9024 31.7947C14.7388 30.2556 14.4735 35.1292 17.392 35.8986L27.7396 35.3856" fill="#D10000"/>
<path d="M24.025 11.5314C24.2903 10.5055 21.6371 8.70998 18.7186 14.0964C18.4533 14.8659 17.392 16.9179 17.392 16.9179C17.1267 17.9438 16.8614 19.2263 16.3307 19.7393C13.6775 22.3043 15.0041 25.6386 18.4533 26.9211C19.2492 27.1778 21.6371 28.9731 23.229 29.7428C24.025 30.2556 23.229 32.0511 21.9024 31.7947C14.7388 30.2556 14.4735 35.1292 17.392 35.8986L27.7396 35.3856" stroke="black" stroke-width="1.113" stroke-linecap="round" stroke-linejoin="round"/>
<path d="M25.6172 11.2751C26.6784 10.2491 28.5359 10.2491 29.3318 11.7881C29.5971 12.3011 29.5971 12.8141 29.8624 13.0706" stroke="black" stroke-width="1.113" stroke-linecap="round" stroke-linejoin="round"/>
<path d="M17.9238 25.126C19.2503 25.3824 19.2503 26.1518 20.8423 27.4343C23.4954 29.4863 26.6794 27.6907 27.4754 27.1779C28.5366 26.6649 28.5366 25.8954 29.5979 26.4085" fill="#D10000"/>
<path d="M17.9238 25.126C19.2503 25.3824 19.2503 26.1518 20.8423 27.4343C23.4954 29.4863 26.6794 27.6907 27.4754 27.1779C28.5366 26.6649 28.5366 25.8954 29.5979 26.4085" stroke="black" stroke-width="1.67" stroke-linecap="round" stroke-linejoin="round"/>
<path d="M21.3727 21.5351C18.1888 19.7397 17.3929 22.5611 18.7195 23.8437C18.9848 24.1001 19.7807 24.1001 20.3114 24.3567C20.842 24.6131 21.1073 23.587 22.434 24.2283C23.4952 24.8695 24.0258 23.587 22.9646 23.0741" fill="#D10000"/>
<path d="M21.3727 21.5351C18.1888 19.7397 17.3929 22.5611 18.7195 23.8437C18.9848 24.1001 19.7807 24.1001 20.3114 24.3567C20.842 24.6131 21.1073 23.587 22.434 24.2283C23.4952 24.8695 24.0258 23.587 22.9646 23.0741" stroke="black" stroke-width="1.113" stroke-linecap="round" stroke-linejoin="round"/>
<path d="M23.2292 12.8143C23.2292 12.0448 21.6373 11.5318 19.78 14.3533C17.6575 17.6877 17.9228 19.4832 18.9841 20.2527C19.78 20.7657 20.576 20.5092 21.3719 18.2007C21.9026 16.9182 23.2292 13.5838 23.2292 12.8143Z" fill="white" stroke="black" stroke-width="1.113" stroke-linecap="round" stroke-linejoin="round"/>
<path d="M26.4123 12.5572C29.0657 12.0442 28.8004 21.5346 24.5551 21.7911C19.7794 22.0476 22.9633 13.3267 26.4123 12.5572Z" fill="white" stroke="black" stroke-width="1.113" stroke-linecap="round" stroke-linejoin="round"/>
<path d="M25.0849 17.1743C26.4115 18.2003 24.8196 22.3042 22.9624 20.7653C21.6358 19.4828 23.493 15.8918 25.0849 17.1743Z" fill="black"/>
<path d="M20.5761 16.6615C21.9026 17.6875 19.7801 21.0219 18.9841 19.4829C18.1882 18.4569 18.9841 15.6355 20.5761 16.6615Z" fill="black"/>
<path d="M19.7797 16.918C20.045 16.918 20.045 18.4569 19.7797 18.4569C18.9837 18.4569 19.2491 16.918 19.7797 16.918Z" fill="white"/>
<path d="M24.0247 17.9438C24.2901 17.9438 24.2901 18.9698 23.7594 18.9698C23.4941 18.9698 23.2289 17.9438 24.0247 17.9438Z" fill="white"/>
<path d="M24.5542 40.2591C23.2277 40.2591 22.4317 40.5158 20.8398 38.7202L24.5542 40.2591Z" fill="#D10000"/>
<path d="M24.5542 40.2591C23.2277 40.2591 22.4317 40.5158 20.8398 38.7202" stroke="black" stroke-width="1.113" stroke-linecap="round" stroke-linejoin="round"/>
<path d="M23.2287 38.7199C16.3304 39.2329 21.6368 29.7424 26.9433 33.8465C28.0045 34.616 29.0658 34.8724 30.6576 34.3593" fill="#D10000"/>
<path d="M23.2287 38.7199C16.3304 39.2329 21.6368 29.7424 26.9433 33.8465C28.0045 34.616 29.0658 34.8724 30.6576 34.3593" stroke="black" stroke-width="1.113" stroke-linecap="round" stroke-linejoin="round"/>
<path d="M22.1685 34.1033C22.9645 35.3858 20.3113 37.4377 18.7194 36.1552C17.1275 34.8727 21.3726 33.0774 22.1685 34.1033Z" fill="#D10000" stroke="black" stroke-width="1.113" stroke-linecap="round" stroke-linejoin="round"/>
<path d="M20.5744 31.5384C14.472 30.7689 14.7373 35.1294 17.3905 35.8989C20.309 36.6683 23.4928 32.5644 20.5744 31.5384Z" fill="#D10000" stroke="black" stroke-width="1.113" stroke-linecap="round" stroke-linejoin="round"/>
<path d="M18.9834 32.8206C19.2487 34.6162 15.2689 35.642 14.473 33.077C13.9424 31.2817 18.4528 28.7167 18.9834 32.8206Z" fill="#D10000" stroke="black" stroke-width="1.113" stroke-linecap="round" stroke-linejoin="round"/>
<path d="M19.7794 29.2299C21.3713 31.2819 17.3915 32.3077 16.3303 31.0252C14.2077 28.7169 18.4528 27.6908 19.7794 29.2299Z" fill="#D10000" stroke="black" stroke-width="1.113" stroke-linecap="round" stroke-linejoin="round"/>
<path d="M14.207 48.4671C17.6562 48.2104 23.4932 48.2104 21.9013 45.6454C21.3706 44.876 21.636 44.3631 21.636 43.8501C22.1666 45.9021 26.4118 44.6196 26.1463 47.1846L21.1053 53.8535L14.207 48.4671Z" fill="#00B000" stroke="black" stroke-width="1.113" stroke-linecap="round" stroke-linejoin="round"/>
<path d="M29.5968 45.9019C30.658 45.3888 31.7193 45.9019 32.7805 45.1324C34.6377 46.9277 34.6377 49.4927 35.1684 50.0058L26.1475 53.5967L20.3105 50.7753C22.9637 47.6972 25.8822 48.9797 26.1475 47.1844C26.6781 44.1063 28.2702 44.8758 29.5968 46.1583C29.5968 46.1583 29.8621 48.7233 29.0662 48.7233C27.209 48.9797 23.2291 50.5188 23.2291 50.5188" fill="#00B000"/>
<path d="M29.5968 45.9019C30.658 45.3888 31.7193 45.9019 32.7805 45.1324C34.6377 46.9277 34.6377 49.4927 35.1684 50.0058L26.1475 53.5967L20.3105 50.7753C22.9637 47.6972 25.8822 48.9797 26.1475 47.1844C26.6781 44.1063 28.2702 44.8758 29.5968 46.1583C29.5968 46.1583 29.8621 48.7233 29.0662 48.7233C27.209 48.9797 23.2291 50.5188 23.2291 50.5188" stroke="black" stroke-width="1.113" stroke-linecap="round" stroke-linejoin="round"/>
<path d="M9.69727 49.7495C10.2279 48.98 17.6569 46.9278 17.6569 50.0059L13.1464 52.3145L9.69727 49.7495Z" fill="white" stroke="black" stroke-width="1.113" stroke-linecap="round" stroke-linejoin="round"/>
<path d="M33.3111 47.6976C33.3111 49.4929 31.7192 49.2365 31.4539 48.467C30.9233 46.6715 33.3111 46.4151 33.3111 47.6976Z" fill="#F4FFF4" stroke="black" stroke-width="1.113" stroke-linecap="round" stroke-linejoin="round"/>
<path d="M15.801 52.3143C9.16797 53.084 9.16797 51.2884 9.16797 51.2884C9.16797 50.0059 9.16797 50.0059 9.69857 49.7495C10.4946 50.7754 15.005 51.2884 17.1276 50.2623" fill="white"/>
<path d="M15.801 52.3143C9.16797 53.084 9.16797 51.2884 9.16797 51.2884C9.16797 50.0059 9.16797 50.0059 9.69857 49.7495C10.4946 50.7754 15.005 51.2884 17.1276 50.2623" stroke="black" stroke-width="1.113" stroke-linecap="round" stroke-linejoin="round"/>
<path d="M25.3508 52.571C25.3508 47.954 17.6565 48.4671 16.0645 51.2885L19.5137 53.8535L25.3508 52.571Z" fill="white" stroke="black" stroke-width="1.113" stroke-linecap="round" stroke-linejoin="round"/>
<path d="M34.9019 49.7494C35.4326 49.4928 35.1672 50.5189 35.1672 51.5447C29.8608 54.8792 18.7173 55.1358 15.7988 52.8272C15.7988 51.8014 15.7988 51.5447 16.0641 51.0317C17.656 53.5967 32.7792 52.5708 34.9019 49.7494Z" fill="white" stroke="black" stroke-width="1.113" stroke-linecap="round" stroke-linejoin="round"/>
<path d="M23.4942 48.98L25.6167 49.2364M22.4329 46.6714L25.086 46.9278M21.9023 47.4409L24.5554 47.9539M20.5757 47.9539L22.6982 48.467M18.4531 48.467L21.637 48.98M26.4128 46.9278L29.5966 47.1845M26.1475 47.6975L29.3313 48.2103M25.086 48.467L26.9435 48.7234" stroke="#00FFFF" stroke-width="1.113" stroke-linecap="round" stroke-linejoin="round"/>
</g>
</g>
<defs>
<clipPath id="clip0_451_6359">
<rect width="60" height="60" fill="white"/>
</clipPath>
</defs>
</svg>
