<svg width="60" height="60" viewBox="0 0 60 60" fill="none" xmlns="http://www.w3.org/2000/svg">
<g clip-path="url(#clip0_451_6410)">
<mask id="mask0_451_6410" style="mask-type:luminance" maskUnits="userSpaceOnUse" x="0" y="0" width="60" height="60">
<path d="M60 0H0V60H60V0Z" fill="white"/>
</mask>
<g mask="url(#mask0_451_6410)">
<path d="M45.9375 0H14.0625C6.296 0 0 6.296 0 14.0625V45.9375C0 53.704 6.296 60 14.0625 60H45.9375C53.704 60 60 53.704 60 45.9375V14.0625C60 6.296 53.704 0 45.9375 0Z" fill="#00599C"/>
<path d="M25.9591 49.3399C15.2638 49.3399 6.5625 40.6387 6.5625 29.9435C6.5625 19.2481 15.2638 10.5469 25.9591 10.5469C32.8603 10.5469 39.297 14.2607 42.7563 20.2391L34.362 25.0966C32.6306 22.1042 29.4105 20.2451 25.9591 20.2451C20.6113 20.2451 16.2608 24.5958 16.2608 29.9435C16.2608 35.291 20.6113 39.6417 25.9591 39.6417C29.4108 39.6417 32.6309 37.7827 34.3624 34.7897L42.7568 39.6471C39.2974 45.626 32.8608 49.3399 25.9591 49.3399Z" fill="white"/>
<path d="M45.3542 28.8659H43.1989V26.7104H41.0441V28.8659H38.8887V31.0208H41.0441V33.1763H43.1989V31.0208H45.3542V28.8659Z" fill="white"/>
<path d="M53.4381 28.8659H51.2828V26.7104H49.128V28.8659H46.9727V31.0208H49.128V33.1763H51.2828V31.0208H53.4381V28.8659Z" fill="white"/>
</g>
</g>
<defs>
<clipPath id="clip0_451_6410">
<rect width="60" height="60" fill="white"/>
</clipPath>
</defs>
</svg>
