<svg width="60" height="60" viewBox="0 0 60 60" fill="none" xmlns="http://www.w3.org/2000/svg">
<g clip-path="url(#clip0_451_6402)">
<mask id="mask0_451_6402" style="mask-type:luminance" maskUnits="userSpaceOnUse" x="0" y="0" width="60" height="60">
<path d="M60 0H0V60H60V0Z" fill="white"/>
</mask>
<g mask="url(#mask0_451_6402)">
<path d="M45.9375 0H14.0625C6.296 0 0 6.296 0 14.0625V45.9375C0 53.704 6.296 60 14.0625 60H45.9375C53.704 60 60 53.704 60 45.9375V14.0625C60 6.296 53.704 0 45.9375 0Z" fill="#394AAB"/>
<path d="M31.4065 7.73438C39.6431 7.73438 46.8347 12.2077 50.6864 18.8569L50.6489 18.7929L40.9577 24.3729C39.0485 21.1401 35.5481 18.9584 31.5328 18.9135L31.4065 18.9128C25.2832 18.9128 20.319 23.8767 20.319 29.9998C20.319 32.0023 20.8529 33.8794 21.7813 35.5005C23.6925 38.8369 27.285 41.0873 31.4065 41.0873C35.553 41.0873 39.1662 38.8083 41.0677 35.4363L41.0215 35.5172L50.6979 41.123C46.8884 47.7159 39.7955 52.1754 31.6545 52.2642L31.4065 52.2656C23.1436 52.2656 15.9317 47.7647 12.0895 41.0803C10.2139 37.8171 9.14062 34.0341 9.14062 29.9998C9.14062 17.7031 19.1091 7.73438 31.4065 7.73438Z" fill="white"/>
</g>
</g>
<defs>
<clipPath id="clip0_451_6402">
<rect width="60" height="60" fill="white"/>
</clipPath>
</defs>
</svg>
