<svg width="60" height="60" viewBox="0 0 60 60" fill="none" xmlns="http://www.w3.org/2000/svg">
<g clip-path="url(#clip0_451_6428)">
<mask id="mask0_451_6428" style="mask-type:luminance" maskUnits="userSpaceOnUse" x="0" y="0" width="60" height="60">
<path d="M60 0H0V60H60V0Z" fill="white"/>
</mask>
<g mask="url(#mask0_451_6428)">
<path d="M45.9375 0H14.0625C6.296 0 0 6.296 0 14.0625V45.9375C0 53.704 6.296 60 14.0625 60H45.9375C53.704 60 60 53.704 60 45.9375V14.0625C60 6.296 53.704 0 45.9375 0Z" fill="#953CAD"/>
<path d="M45.8051 23.5942V26.7522H48.963V23.5942H50.542V26.7522H53.7V28.3311H50.542V31.4889H53.7V33.0679H50.542V36.2258H48.963V33.0679H45.8051V36.2258H44.2261V33.0679H41.0684V31.4889H44.2261V28.3311H41.0684V26.7522H44.2261V23.5942H45.8051ZM48.963 28.3311H45.8051V31.4889H48.963V28.3311Z" fill="white"/>
<path d="M28.594 7.73438C36.8306 7.73438 44.0222 12.2077 47.8739 18.8569L47.8364 18.7929L38.1452 24.3729C36.236 21.1401 32.7356 18.9584 28.7203 18.9135L28.594 18.9128C22.4707 18.9128 17.5065 23.8767 17.5065 29.9998C17.5065 32.0023 18.0404 33.8794 18.9688 35.5005C20.8799 38.8369 24.4725 41.0873 28.594 41.0873C32.7405 41.0873 36.3537 38.8083 38.2552 35.4363L38.209 35.5172L47.8854 41.123C44.0759 47.7159 36.983 52.1754 28.842 52.2642L28.594 52.2656C20.3311 52.2656 13.1192 47.7647 9.27703 41.0803C7.40143 37.8171 6.32812 34.0341 6.32812 29.9998C6.32812 17.7031 16.2966 7.73438 28.594 7.73438Z" fill="white"/>
</g>
</g>
<defs>
<clipPath id="clip0_451_6428">
<rect width="60" height="60" fill="white"/>
</clipPath>
</defs>
</svg>
