<svg width="60" height="60" viewBox="0 0 60 60" fill="none" xmlns="http://www.w3.org/2000/svg">
<g clip-path="url(#clip0_451_6437)">
<mask id="mask0_451_6437" style="mask-type:luminance" maskUnits="userSpaceOnUse" x="0" y="0" width="60" height="60">
<path d="M60 0H0V60H60V0Z" fill="white"/>
</mask>
<g mask="url(#mask0_451_6437)">
<path d="M45.9375 0H14.0625C6.296 0 0 6.296 0 14.0625V45.9375C0 53.704 6.296 60 14.0625 60H45.9375C53.704 60 60 53.704 60 45.9375V14.0625C60 6.296 53.704 0 45.9375 0Z" fill="#092E20"/>
<path d="M26.4115 11.9531H33.1181V42.9961C29.6777 43.6493 27.1519 43.9106 24.4085 43.9106C16.2209 43.9104 11.9531 40.2091 11.9531 33.1104C11.9531 26.273 16.4825 21.8314 23.4938 21.8314C24.5824 21.8314 25.4098 21.9182 26.4115 22.1794V11.9531ZM26.4115 27.5791C25.6277 27.3183 24.9745 27.2311 24.1472 27.2311C20.7503 27.2311 18.7904 29.3215 18.7904 32.9794C18.7904 36.5508 20.6632 38.5104 24.1036 38.5104C24.8435 38.5104 25.4536 38.4668 26.4115 38.3365V27.5791Z" fill="white"/>
<path d="M43.7886 22.31V37.8568C43.7886 43.2136 43.3967 45.7829 42.2209 48.004C41.132 50.1382 39.6948 51.488 36.7335 52.9688L30.5059 50.0072C33.4672 48.6139 34.9044 47.3949 35.8187 45.5215C36.7771 43.6055 37.0822 41.3843 37.0822 35.5489V22.31H43.7886ZM37.0822 11.9888H43.7886V18.8696H37.0822V11.9888Z" fill="white"/>
</g>
</g>
<defs>
<clipPath id="clip0_451_6437">
<rect width="60" height="60" fill="white"/>
</clipPath>
</defs>
</svg>
