<svg width="60" height="60" viewBox="0 0 60 60" fill="none" xmlns="http://www.w3.org/2000/svg">
<g clip-path="url(#clip0_451_6420)">
<mask id="mask0_451_6420" style="mask-type:luminance" maskUnits="userSpaceOnUse" x="0" y="0" width="60" height="60">
<path d="M60 0H0V60H60V0Z" fill="white"/>
</mask>
<g mask="url(#mask0_451_6420)">
<path d="M45.9375 0H14.0625C6.296 0 0 6.296 0 14.0625V45.9375C0 53.704 6.296 60 14.0625 60H45.9375C53.704 60 60 53.704 60 45.9375V14.0625C60 6.296 53.704 0 45.9375 0Z" fill="#2396ED"/>
<path d="M33.0907 28.6226H37.9463V24.2295H33.0907V28.6226ZM27.3105 28.6226H32.1659V24.2295H27.3105V28.6226ZM21.6458 28.6226H26.5012V24.2295H21.6458V28.6226ZM15.9811 28.6226H20.7209V24.2295H15.9811V28.6226ZM10.2008 28.6226H15.0562V24.2295H10.2008V28.6226ZM15.9811 23.3047H20.7209V18.9116H15.9811V23.3047ZM21.6458 23.3047H26.5012V18.9116H21.6458V23.3047ZM27.3105 23.3047H32.1659V18.9116H27.3105V23.3047ZM27.3105 17.9867H32.1659V13.5938H27.3105V17.9867ZM53.4375 26.6573C53.4375 26.6573 51.3565 24.6918 47.0791 25.3855C46.6167 22.0329 43.0329 20.0676 43.0329 20.0676C43.0329 20.0676 39.6804 24.1139 42.108 28.6226C41.4145 28.9695 40.2584 29.4319 38.5242 29.4319H6.73261C6.15451 31.6284 6.15451 46.1945 22.1082 46.1945C33.5531 46.1945 42.108 40.8769 46.1543 31.1658C52.1658 31.6284 53.4375 26.6573 53.4375 26.6573Z" fill="white"/>
</g>
</g>
<defs>
<clipPath id="clip0_451_6420">
<rect width="60" height="60" fill="white"/>
</clipPath>
</defs>
</svg>
