<svg width="60" height="60" viewBox="0 0 60 60" fill="none" xmlns="http://www.w3.org/2000/svg">
<g clip-path="url(#clip0_451_6446)">
<mask id="mask0_451_6446" style="mask-type:luminance" maskUnits="userSpaceOnUse" x="0" y="0" width="60" height="60">
<path d="M60 0H0V60H60V0Z" fill="white"/>
</mask>
<g mask="url(#mask0_451_6446)">
<path d="M45.9375 0H14.0625C6.296 0 0 6.296 0 14.0625V45.9375C0 53.704 6.296 60 14.0625 60H45.9375C53.704 60 60 53.704 60 45.9375V14.0625C60 6.296 53.704 0 45.9375 0Z" fill="#512BD4"/>
<path d="M5.6372 39.596C5.113 39.596 4.6674 39.4247 4.3005 39.0818C3.9335 38.73 3.75 38.3123 3.75 37.8286C3.75 37.3362 3.9335 36.914 4.3005 36.5622C4.6674 36.2107 5.113 36.0347 5.6372 36.0347C6.1702 36.0347 6.6202 36.2107 6.9871 36.5622C7.3628 36.914 7.5507 37.3362 7.5507 37.8286C7.5507 38.3123 7.3628 38.73 6.9871 39.0818C6.6202 39.4247 6.1702 39.596 5.6372 39.596Z" fill="white"/>
<path d="M26.593 39.3059H23.1855L14.208 25.4032C13.9809 25.0514 13.793 24.6862 13.6446 24.3082H13.5658C13.6357 24.7127 13.6707 25.579 13.6707 26.9067V39.3059H10.6562V20.3906H14.2865L22.9627 33.9638C23.3297 34.5267 23.5655 34.9134 23.6705 35.1246H23.7228C23.6356 34.6233 23.5917 33.7748 23.5917 32.5786V20.3906H26.593V39.3059Z" fill="white"/>
<path d="M41.2728 39.3059H30.7227V20.3906H40.8535V23.0552H33.842V28.4105H40.3032V31.0617H33.842V36.6546H41.2728V39.3059Z" fill="white"/>
<path d="M56.267 23.0552H50.867V39.3059H47.7477V23.0552H42.3613V20.3906H56.267V23.0552Z" fill="white"/>
</g>
</g>
<defs>
<clipPath id="clip0_451_6446">
<rect width="60" height="60" fill="white"/>
</clipPath>
</defs>
</svg>
