<svg width="60" height="60" viewBox="0 0 60 60" fill="none" xmlns="http://www.w3.org/2000/svg">
<g clip-path="url(#clip0_451_6457)">
<mask id="mask0_451_6457" style="mask-type:luminance" maskUnits="userSpaceOnUse" x="0" y="0" width="60" height="60">
<path d="M60 0H0V60H60V0Z" fill="white"/>
</mask>
<g mask="url(#mask0_451_6457)">
<path d="M45.9375 0H14.0625C6.296 0 0 6.296 0 14.0625V45.9375C0 53.704 6.296 60 14.0625 60H45.9375C53.704 60 60 53.704 60 45.9375V14.0625C60 6.296 53.704 0 45.9375 0Z" fill="#242938"/>
<path d="M36.1398 53.8716H36.718L46.1542 49.1529L46.3112 48.9309V11.266L46.1542 11.0429L36.718 6.32812H36.1328L36.1398 53.8716Z" fill="#5294CF"/>
<path d="M23.8594 53.8716H23.2733L13.845 49.1529L13.6537 48.8238L13.5566 11.4579L13.845 11.0429L23.2733 6.32812H23.8667L23.8594 53.8716Z" fill="#1F5B98"/>
<path d="M23.2891 6.32812H36.7077V53.8716H23.2891V6.32812Z" fill="#2D72B8"/>
<path d="M51.0939 29.0319L50.7749 28.9611L46.222 28.5367L46.1543 28.5702L36.7098 28.1926H23.2904L13.8456 28.5702V21.368L13.8357 21.3733L13.8456 21.3522L23.2904 19.1637H36.7098L46.1543 21.3522L49.6263 23.1978V22.0112L51.0939 21.8507L50.942 21.5544L46.2959 18.2323L46.1543 18.2783L36.7098 15.3517H23.2904L13.8456 18.2783V11.043L8.90625 16.8294V21.883L8.94455 21.8553L10.3736 22.0112V23.2221L8.90625 24.0074V29.0359L8.94455 29.0319L10.3736 29.053V31.1635L9.14065 31.1818L8.90625 31.1596V36.19L10.3736 36.9789V38.2037L8.96775 38.3591L8.90625 38.3129V43.3656L13.8456 49.153V41.9183L23.2904 44.845H36.7098L46.1822 41.9096L46.308 41.965L50.8929 38.6917L51.0939 38.3657L49.6263 38.2037V37.0035L49.4341 36.9266L46.2959 38.6183L46.1822 38.8555L36.7098 41.0314V41.034H23.2904V41.0314L13.8456 38.8464V31.6178L23.2904 31.9942V32.0033H36.7098L46.1543 31.6178L46.3695 31.7167L50.7826 31.3368L51.0939 31.1846L49.6263 31.1635V29.053L51.0939 29.0319Z" fill="#1A476F"/>
<path d="M46.1543 41.9181V49.1528L51.0937 43.3656V38.3457L46.1829 41.9097L46.1543 41.9181Z" fill="#2D72B8"/>
<path d="M46.1543 38.8619L46.1829 38.8553L51.0937 36.2139V31.1631L46.1543 31.6173V38.8619Z" fill="#2D72B8"/>
<path d="M46.1829 21.3587L46.1543 21.3521V28.57L51.0937 29.0317V23.9832L46.1829 21.3587Z" fill="#2D72B8"/>
<path d="M46.1829 18.3066L51.0937 21.8507V16.8307L46.1543 11.043V18.2783L46.1829 18.2882V18.3066Z" fill="#2D72B8"/>
</g>
</g>
<defs>
<clipPath id="clip0_451_6457">
<rect width="60" height="60" fill="white"/>
</clipPath>
</defs>
</svg>
