<svg width="60" height="60" viewBox="0 0 60 60" fill="none" xmlns="http://www.w3.org/2000/svg">
<g clip-path="url(#clip0_451_6596)">
<mask id="mask0_451_6596" style="mask-type:luminance" maskUnits="userSpaceOnUse" x="0" y="0" width="60" height="60">
<path d="M60 0H0V60H60V0Z" fill="white"/>
</mask>
<g mask="url(#mask0_451_6596)">
<path d="M45.9375 0H14.0625C6.296 0 0 6.296 0 14.0625V45.9375C0 53.704 6.296 60 14.0625 60H45.9375C53.704 60 60 53.704 60 45.9375V14.0625C60 6.296 53.704 0 45.9375 0Z" fill="#F4F2ED"/>
<path d="M53.4375 42.8758C52.7552 43.1343 52.002 43.1336 51.3199 42.8744C50.6381 42.6149 50.0747 42.1148 49.7365 41.4683C47.6123 38.2886 45.2667 35.2523 43.0123 32.1508L42.0347 30.8476C39.3502 34.4444 36.6656 37.8976 34.2157 41.4815C33.8965 42.0993 33.3637 42.58 32.7164 42.834C32.0691 43.0883 31.3514 43.0984 30.6973 42.8629L40.7707 29.349L31.4009 17.1383C32.0754 16.8947 32.8132 16.8914 33.4898 17.1288C34.1665 17.3662 34.7405 17.8298 35.115 18.4414C37.2912 21.6211 39.7022 24.6576 42.0998 27.8765C44.5109 24.6836 46.8956 21.6342 49.1241 18.4805C49.4449 17.8727 49.9781 17.4041 50.6222 17.1638C51.266 16.9236 51.9759 16.9284 52.6165 17.1773L48.9806 21.9991C47.3517 24.1492 45.7488 26.3125 44.0548 28.4106C43.9181 28.533 43.8089 28.6825 43.7341 28.8498C43.6594 29.0172 43.6207 29.1983 43.6207 29.3816C43.6207 29.5647 43.6594 29.7458 43.7341 29.9132C43.8089 30.0805 43.9181 30.2301 44.0548 30.3524C47.1694 34.4835 50.2577 38.6275 53.4375 42.8758Z" fill="#0F0F0F"/>
<path d="M6.5625 29.1797C6.8362 27.8766 7.0056 26.456 7.3835 25.1269C9.638 17.1124 18.8253 13.7763 25.1456 18.7414C28.8466 21.6474 29.772 25.7656 29.5896 30.4048H8.7388C8.4 38.693 14.3815 43.6971 22.0311 41.1429C23.272 40.699 24.3827 39.9532 25.2633 38.9726C26.1438 37.992 26.7661 36.8074 27.0743 35.5261C27.4784 34.223 28.1299 34.0015 29.3679 34.3793C29.164 35.9658 28.6031 37.4855 27.7273 38.824C26.8516 40.1625 25.6838 41.2849 24.3117 42.1071C22.0447 43.347 19.4437 43.838 16.8808 43.5103C14.3178 43.1827 11.9241 42.053 10.042 40.2827C8.1799 38.1891 7.0541 35.5439 6.8362 32.7504C6.8362 32.3074 6.6667 31.8642 6.5755 31.4473C6.5668 30.6741 6.5625 29.9182 6.5625 29.1797ZM8.7649 28.6193H27.6218C27.5044 22.6118 23.7122 18.3504 18.6559 18.3113C13.0262 18.2331 8.9994 22.4033 8.7518 28.5933L8.7649 28.6193Z" fill="#0F0F0F"/>
</g>
</g>
<defs>
<clipPath id="clip0_451_6596">
<rect width="60" height="60" fill="white"/>
</clipPath>
</defs>
</svg>
