<svg width="60" height="60" viewBox="0 0 60 60" fill="none" xmlns="http://www.w3.org/2000/svg">
<g clip-path="url(#clip0_451_6523)">
<mask id="mask0_451_6523" style="mask-type:luminance" maskUnits="userSpaceOnUse" x="0" y="0" width="60" height="60">
<path d="M60 0H0V60H60V0Z" fill="white"/>
</mask>
<g mask="url(#mask0_451_6523)">
<path d="M45.9375 0H14.0625C6.296 0 0 6.296 0 14.0625V45.9375C0 53.704 6.296 60 14.0625 60H45.9375C53.704 60 60 53.704 60 45.9375V14.0625C60 6.296 53.704 0 45.9375 0Z" fill="#F4F2ED"/>
<mask id="mask1_451_6523" style="mask-type:luminance" maskUnits="userSpaceOnUse" x="14" y="6" width="32" height="48">
<path d="M45.5531 6.5625H14.2969V53.4375H45.5531V6.5625Z" fill="white"/>
</mask>
<g mask="url(#mask1_451_6523)">
<path d="M22.1113 53.4376C26.4239 53.4376 29.9238 49.9377 29.9238 45.6252V37.8125H22.1113C17.7988 37.8125 14.2988 41.3127 14.2988 45.6252C14.2988 49.9377 17.7988 53.4376 22.1113 53.4376Z" fill="#0ACF83"/>
<path d="M14.2988 30C14.2988 25.6875 17.7988 22.1875 22.1113 22.1875H29.9238V37.8124H22.1113C17.7988 37.8124 14.2988 34.3125 14.2988 30Z" fill="#A259FF"/>
<path d="M14.2988 14.375C14.2988 10.0625 17.7988 6.5625 22.1113 6.5625H29.9238V22.1875H22.1113C17.7988 22.1875 14.2988 18.6875 14.2988 14.375Z" fill="#F24E1E"/>
<path d="M29.9238 6.5625H37.7362C42.0487 6.5625 45.5489 10.0625 45.5489 14.375C45.5489 18.6875 42.0487 22.1875 37.7362 22.1875H29.9238V6.5625Z" fill="#FF7262"/>
<path d="M45.5489 30C45.5489 34.3125 42.0487 37.8124 37.7362 37.8124C33.4237 37.8124 29.9238 34.3125 29.9238 30C29.9238 25.6875 33.4237 22.1875 37.7362 22.1875C42.0487 22.1875 45.5489 25.6875 45.5489 30Z" fill="#1ABCFE"/>
</g>
</g>
</g>
<defs>
<clipPath id="clip0_451_6523">
<rect width="60" height="60" fill="white"/>
</clipPath>
</defs>
</svg>
