<svg width="61" height="60" viewBox="0 0 61 60" fill="none" xmlns="http://www.w3.org/2000/svg">
<rect width="60" height="59" transform="translate(0.5 0.5)" fill="white"/>
<path d="M11.375 45.8562L11.6937 45.4193L26.7313 17.3684L26.7631 17.0716L20.135 4.82909C20.0137 4.60522 19.8238 4.42453 19.5923 4.31259C19.3608 4.20065 19.0993 4.16313 18.8449 4.20533C18.5905 4.24753 18.3561 4.36732 18.1747 4.54775C17.9934 4.72818 17.8743 4.96012 17.8344 5.21075L11.375 45.8562Z" fill="#FFC24A"/>
<path d="M11.5625 45.5245L11.8025 45.0635L26.6844 17.304L20.0731 5.01359C19.9641 4.79985 19.7876 4.6266 19.57 4.5198C19.3524 4.413 19.1055 4.37839 18.8663 4.42117C18.627 4.46394 18.4083 4.58179 18.2429 4.75707C18.0775 4.93235 17.9743 5.15561 17.9487 5.39341L11.5625 45.5245Z" fill="#FFA712"/>
<path d="M31.5955 26.3309L36.5305 21.3528L31.5936 12.0953C31.4849 11.8961 31.3234 11.7295 31.1261 11.6134C30.9288 11.4973 30.7032 11.436 30.4733 11.436C30.2434 11.436 30.0178 11.4973 29.8205 11.6134C29.6232 11.7295 29.4616 11.8961 29.353 12.0953L26.7148 17.0402V17.4625L31.5955 26.3309Z" fill="#F4BD62"/>
<path d="M31.5064 26.1281L36.3046 21.2974L31.5064 12.2999C31.4279 12.1052 31.2938 11.9369 31.1202 11.8154C30.9466 11.694 30.741 11.6245 30.5281 11.6153C30.3153 11.6061 30.1042 11.6577 29.9205 11.7638C29.7368 11.8699 29.5882 12.026 29.4927 12.2133L26.8414 17.2449L26.7627 17.5012L31.5064 26.1281Z" fill="#FFA50E"/>
<path d="M11.3789 45.8582L11.5233 45.7144L12.0464 45.506L31.2839 26.6592L31.5277 26.0065L26.7295 17.0127L11.3789 45.8582Z" fill="#F6820C"/>
<path d="M32.21 55.3626L49.625 45.8138L44.6487 15.7035C44.6131 15.4913 44.5186 15.2928 44.3757 15.1299C44.2329 14.9669 44.0471 14.8459 43.8388 14.7799C43.6306 14.714 43.4079 14.7058 43.1952 14.7562C42.9825 14.8066 42.788 14.9136 42.6331 15.0656L11.375 45.8562L28.6869 55.3608C29.2251 55.6561 29.8312 55.8111 30.4475 55.8111C31.0638 55.8111 31.6699 55.6561 32.2081 55.3608" fill="#FDE068"/>
<path d="M49.4656 45.7346L44.5306 15.8511C44.5219 15.6481 44.4521 15.4522 44.3302 15.2881C44.2082 15.1241 44.0394 14.9994 43.8453 14.9297C43.6512 14.86 43.4404 14.8485 43.2397 14.8967C43.0389 14.9449 42.8572 15.0505 42.7175 15.2003L11.5625 45.7991L28.6831 55.2023C29.2171 55.4952 29.8183 55.6489 30.4297 55.6489C31.0411 55.6489 31.6423 55.4952 32.1762 55.2023L49.4656 45.7346Z" fill="#FCCA3F"/>
<path d="M32.21 55.0749C31.6718 55.3703 31.0657 55.5253 30.4494 55.5253C29.833 55.5253 29.227 55.3703 28.6888 55.0749L11.5175 45.7124L11.375 45.8562L28.6869 55.3607C29.2251 55.656 29.8312 55.8111 30.4475 55.8111C31.0638 55.8111 31.6699 55.656 32.2081 55.3607L49.625 45.8138L49.5819 45.5557L32.21 55.0749Z" fill="#EEAB37"/>
</svg>
