<svg width="60" height="60" viewBox="0 0 60 60" fill="none" xmlns="http://www.w3.org/2000/svg">
<g clip-path="url(#clip0_451_6539)">
<mask id="mask0_451_6539" style="mask-type:luminance" maskUnits="userSpaceOnUse" x="0" y="0" width="60" height="60">
<path d="M60 0H0V60H60V0Z" fill="white"/>
</mask>
<g mask="url(#mask0_451_6539)">
<path d="M45.9375 0H14.0625C6.296 0 0 6.296 0 14.0625V45.9375C0 53.704 6.296 60 14.0625 60H45.9375C53.704 60 60 53.704 60 45.9375V14.0625C60 6.296 53.704 0 45.9375 0Z" fill="#F4F2ED"/>
<path d="M33.9689 8.92066L47.0412 8.90625L25.1095 30.8264L19.3939 36.5102L12.8906 29.9991L33.9689 8.92066ZM33.8473 28.4927C34.017 28.2687 34.3291 28.3793 34.5661 28.3505L47.0299 28.3535L35.6705 39.702L29.1335 33.2051L33.8473 28.4927Z" fill="#44D1FD"/>
<path d="M22.6172 39.713L29.1332 33.2051L35.6702 39.702L35.6974 39.7308L29.1349 46.2323L22.6172 39.713Z" fill="#1FBCFD"/>
<path d="M29.1348 46.2321L35.6973 39.7305L47.0342 51.0787C42.7639 51.0883 38.495 51.0754 34.2263 51.085C33.983 51.1394 33.8326 50.917 33.6772 50.7794L29.1348 46.2321Z" fill="#08589C"/>
</g>
</g>
<defs>
<clipPath id="clip0_451_6539">
<rect width="60" height="60" fill="white"/>
</clipPath>
</defs>
</svg>
