<svg width="60" height="60" viewBox="0 0 60 60" fill="none" xmlns="http://www.w3.org/2000/svg">
<g clip-path="url(#clip0_451_6472)">
<mask id="mask0_451_6472" style="mask-type:luminance" maskUnits="userSpaceOnUse" x="0" y="0" width="60" height="60">
<path d="M60 0H0V60H60V0Z" fill="white"/>
</mask>
<g mask="url(#mask0_451_6472)">
<path d="M45.9375 0H14.0625C6.296 0 0 6.296 0 14.0625V45.9375C0 53.704 6.296 60 14.0625 60H45.9375C53.704 60 60 53.704 60 45.9375V14.0625C60 6.296 53.704 0 45.9375 0Z" fill="#F03C2E"/>
<mask id="mask1_451_6472" style="mask-type:luminance" maskUnits="userSpaceOnUse" x="6" y="6" width="48" height="48">
<path d="M53.4375 6.5625H6.5625V53.4375H53.4375V6.5625Z" fill="white"/>
</mask>
<g mask="url(#mask1_451_6472)">
<path d="M52.5526 27.9127L32.0872 7.44736C31.8071 7.16697 31.4743 6.94457 31.1082 6.79284C30.7419 6.64108 30.3493 6.56299 29.953 6.56299C29.5566 6.56299 29.164 6.64108 28.7977 6.79284C28.4316 6.94457 28.0988 7.16697 27.8187 7.44736L23.5707 11.6954L28.9613 17.086C30.2152 16.6466 31.6508 16.9469 32.6497 17.9459C33.1252 18.4223 33.4573 19.0229 33.6078 19.679C33.7583 20.3351 33.7212 21.0203 33.5007 21.6563L38.6965 26.8522C39.9535 26.4186 41.4036 26.6982 42.4069 27.7046C42.7407 28.0384 43.0053 28.4345 43.1858 28.8704C43.3662 29.3063 43.459 29.7735 43.459 30.2452C43.4588 30.717 43.366 31.1842 43.1853 31.6201C43.0046 32.0558 42.74 32.4519 42.4062 32.7854C42.0727 33.1192 41.6766 33.3835 41.2407 33.564C40.8047 33.7447 40.3376 33.8375 39.8658 33.8373C39.394 33.8373 38.9267 33.7442 38.491 33.5638C38.0551 33.3831 37.659 33.1184 37.3255 32.7847C36.2708 31.73 36.0101 30.1773 36.5433 28.8779L31.6976 24.0322V36.7838C32.0494 36.9577 32.3708 37.1874 32.6497 37.4635C32.9832 37.797 33.2478 38.1929 33.4285 38.6288C33.609 39.0645 33.7018 39.5317 33.7018 40.0035C33.7018 40.4752 33.609 40.9424 33.4285 41.3781C33.2478 41.814 32.9832 42.2101 32.6497 42.5436C32.3162 42.8771 31.9201 43.1417 31.4844 43.3222C31.0484 43.5027 30.5813 43.5957 30.1097 43.5957C29.638 43.5957 29.1708 43.5027 28.7351 43.3222C28.2992 43.1417 27.9031 42.8771 27.5696 42.5436C27.2356 42.2101 26.9708 41.8142 26.7901 41.3785C26.6091 40.9426 26.5161 40.4752 26.5161 40.0035C26.5161 39.5317 26.6091 39.0645 26.7901 38.6286C26.9708 38.1927 27.2356 37.7968 27.5696 37.4635C27.9167 37.1178 28.302 36.8556 28.7459 36.6798V23.8095C28.3182 23.6338 27.9167 23.3746 27.5696 23.026C27.0652 22.5222 26.7223 21.8796 26.5845 21.1802C26.4469 20.4807 26.5205 19.7561 26.7962 19.0987L21.4788 13.7843L7.44564 27.8028C7.16504 28.0831 6.94255 28.4159 6.79065 28.7823C6.63875 29.1486 6.56055 29.5412 6.56055 29.9377C6.56055 30.3343 6.63875 30.7271 6.79065 31.0934C6.94255 31.4598 7.16504 31.7926 7.44564 32.0729L27.9125 52.5367C28.1926 52.817 28.5254 53.0394 28.8915 53.1913C29.2578 53.3429 29.6504 53.421 30.0467 53.421C30.443 53.421 30.8356 53.3429 31.2019 53.1913C31.568 53.0394 31.9008 52.817 32.1809 52.5367L52.5526 32.1974C52.8331 31.917 53.0558 31.5842 53.2076 31.2179C53.3595 30.8516 53.4376 30.459 53.4376 30.0624C53.4376 29.6659 53.3595 29.2731 53.2076 28.9067C53.0558 28.5404 52.8331 28.2076 52.5526 27.9273" fill="white"/>
</g>
</g>
</g>
<defs>
<clipPath id="clip0_451_6472">
<rect width="60" height="60" fill="white"/>
</clipPath>
</defs>
</svg>
