<svg width="60" height="60" viewBox="0 0 60 60" fill="none" xmlns="http://www.w3.org/2000/svg">
<g clip-path="url(#clip0_451_6588)">
<mask id="mask0_451_6588" style="mask-type:luminance" maskUnits="userSpaceOnUse" x="0" y="0" width="60" height="60">
<path d="M60 0H0V60H60V0Z" fill="white"/>
</mask>
<g mask="url(#mask0_451_6588)">
<path d="M45.9375 0H14.0625C6.296 0 0 6.296 0 14.0625V45.9375C0 53.704 6.296 60 14.0625 60H45.9375C53.704 60 60 53.704 60 45.9375V14.0625C60 6.296 53.704 0 45.9375 0Z" fill="#F4F2ED"/>
<path d="M30.0002 7.03125C17.0576 7.03125 6.5625 17.5244 6.5625 30.469C6.5625 40.8244 13.2781 49.6097 22.5906 52.7088C23.7619 52.9259 24.192 52.2005 24.192 51.5815C24.192 51.0225 24.1702 49.1763 24.1601 47.2179C17.6398 48.6356 16.2639 44.4525 16.2639 44.4525C15.1977 41.7434 13.6616 41.0231 13.6616 41.0231C11.5351 39.5684 13.8219 39.5984 13.8219 39.5984C16.1754 39.7636 17.4147 42.0136 17.4147 42.0136C19.5051 45.5967 22.8976 44.5608 24.2351 43.962C24.4455 42.447 25.0528 41.4131 25.7231 40.8279C20.5173 40.2352 15.0448 38.2254 15.0448 29.2448C15.0448 26.6859 15.9604 24.5951 17.4597 22.9538C17.2163 22.3635 16.4141 19.9796 17.6868 16.7513C17.6868 16.7513 19.6549 16.1214 24.1338 19.1537C26.0034 18.6344 28.0083 18.374 30.0002 18.3651C31.992 18.374 33.9987 18.6344 35.8716 19.1537C40.3451 16.1214 42.3105 16.7513 42.3105 16.7513C43.5863 19.9796 42.7838 22.3635 42.5402 22.9538C44.043 24.5951 44.9524 26.6859 44.9524 29.2448C44.9524 38.247 39.4695 40.2291 34.2504 40.8091C35.0911 41.5366 35.8402 42.9628 35.8402 45.1495C35.8402 48.2855 35.813 50.8095 35.813 51.5815C35.813 52.2052 36.2348 52.9359 37.4229 52.7058C46.7304 49.6031 53.4375 40.8209 53.4375 30.469C53.4375 17.5244 42.9438 7.03125 30.0002 7.03125ZM15.3407 40.4187C15.2891 40.5352 15.1059 40.5701 14.939 40.4902C14.769 40.4137 14.6735 40.2548 14.7286 40.1381C14.7791 40.0181 14.9626 39.9848 15.1323 40.0652C15.3026 40.1416 15.3997 40.302 15.3407 40.4187ZM16.4936 41.4473C16.3818 41.5512 16.1633 41.5029 16.015 41.3391C15.8617 41.1757 15.833 40.9573 15.9463 40.852C16.0616 40.7484 16.2735 40.797 16.4272 40.9603C16.5805 41.1258 16.6104 41.3426 16.4936 41.4473ZM17.2845 42.7636C17.1409 42.8634 16.9061 42.7699 16.7609 42.5613C16.6173 42.353 16.6173 42.1031 16.764 42.0028C16.9095 41.9027 17.1409 41.9927 17.288 42.1997C17.4312 42.4116 17.4312 42.6616 17.2845 42.7636ZM18.6221 44.288C18.4936 44.4295 18.22 44.3916 18.0197 44.1982C17.8148 44.0093 17.7577 43.7412 17.8866 43.5994C18.0166 43.4573 18.2918 43.4974 18.4936 43.6891C18.697 43.8776 18.7591 44.1478 18.6221 44.288ZM20.3508 44.8024C20.2941 44.9862 20.0306 45.0696 19.7651 44.9916C19.5 44.9112 19.3266 44.6963 19.3801 44.5106C19.4352 44.3259 19.6999 44.239 19.9673 44.3224C20.232 44.4023 20.4059 44.6159 20.3508 44.8024ZM22.3182 45.0209C22.3248 45.214 22.0997 45.3743 21.821 45.3778C21.5408 45.3841 21.3141 45.2276 21.311 45.0375C21.311 44.8423 21.5311 44.6836 21.8113 44.6789C22.09 44.6735 22.3182 44.8287 22.3182 45.0209ZM24.2508 44.9468C24.2843 45.1352 24.0907 45.3291 23.8139 45.3806C23.5418 45.4303 23.2899 45.3138 23.2554 45.1268C23.2216 44.9334 23.4188 44.7398 23.6904 44.6897C23.9677 44.6416 24.2156 44.7551 24.2508 44.9468Z" fill="#161614"/>
</g>
</g>
<defs>
<clipPath id="clip0_451_6588">
<rect width="60" height="60" fill="white"/>
</clipPath>
</defs>
</svg>
