<svg width="60" height="60" viewBox="0 0 60 60" fill="none" xmlns="http://www.w3.org/2000/svg">
<g clip-path="url(#clip0_451_6651)">
<mask id="mask0_451_6651" style="mask-type:luminance" maskUnits="userSpaceOnUse" x="0" y="0" width="60" height="60">
<path d="M60 0H0V60H60V0Z" fill="white"/>
</mask>
<g mask="url(#mask0_451_6651)">
<path d="M45.9375 0H14.0625C6.296 0 0 6.296 0 14.0625V45.9375C0 53.704 6.296 60 14.0625 60H45.9375C53.704 60 60 53.704 60 45.9375V14.0625C60 6.296 53.704 0 45.9375 0Z" fill="#F4F2ED"/>
<path d="M29.9998 51.5626L38.8034 25.0332H21.1973L29.9998 51.5626Z" fill="#E24329"/>
<path d="M29.9997 51.5626L21.1971 25.0332H8.85938L29.9997 51.5626Z" fill="#FC6D26"/>
<path d="M8.85948 25.0327L6.18348 33.0952C5.93898 33.8302 6.20548 34.636 6.84488 35.0904L30 51.5628L8.85948 25.0327Z" fill="#FCA326"/>
<path d="M8.85938 25.0324H21.1971L15.8946 9.05379C15.6218 8.23207 14.4333 8.23207 14.1609 9.05379L8.85938 25.0324Z" fill="#E24329"/>
<path d="M30 51.5626L38.8036 25.0332H51.1418L30 51.5626Z" fill="#FC6D26"/>
<path d="M51.1413 25.0327L53.817 33.0952C54.061 33.8302 53.794 34.636 53.1551 35.0904L30 51.5628L51.1413 25.0327Z" fill="#FCA326"/>
<path d="M51.1402 25.0322H38.8027L44.1047 9.05379C44.3778 8.23207 45.5661 8.23207 45.8384 9.05379L51.1402 25.0322Z" fill="#E24329"/>
</g>
</g>
<defs>
<clipPath id="clip0_451_6651">
<rect width="60" height="60" fill="white"/>
</clipPath>
</defs>
</svg>
