<svg width="60" height="60" viewBox="0 0 60 60" fill="none" xmlns="http://www.w3.org/2000/svg">
<g clip-path="url(#clip0_451_6605)">
<mask id="mask0_451_6605" style="mask-type:luminance" maskUnits="userSpaceOnUse" x="0" y="0" width="60" height="60">
<path d="M60 0H0V60H60V0Z" fill="white"/>
</mask>
<g mask="url(#mask0_451_6605)">
<path d="M45.9375 0H14.0625C6.296 0 0 6.296 0 14.0625V45.9375C0 53.704 6.296 60 14.0625 60H45.9375C53.704 60 60 53.704 60 45.9375V14.0625C60 6.296 53.704 0 45.9375 0Z" fill="#F4F2ED"/>
<path d="M23.8205 42.8012C23.8205 42.8012 22.0207 43.8967 25.0732 44.2101C28.7595 44.6798 30.7085 44.6012 34.778 43.8191C34.778 43.8191 35.8734 44.5244 37.3608 45.0716C28.2026 48.9848 16.6193 44.8368 23.8205 42.8012ZM22.6465 37.7141C22.6465 37.7141 20.6895 39.2015 23.742 39.5139C27.7329 39.9051 30.8648 39.9836 36.2653 38.8888C36.2653 38.8888 36.9706 39.6719 38.1438 40.063C27.1088 43.3501 14.7416 40.3748 22.6465 37.7141ZM44.2488 46.6368C44.2488 46.6368 45.5791 47.7323 42.7615 48.5938C37.5171 50.159 20.7681 50.6294 16.0719 48.5938C14.4291 47.8886 17.5593 46.8707 18.5763 46.7153C19.594 46.4805 20.1414 46.4805 20.1414 46.4805C18.3415 45.228 8.16619 49.0633 14.9756 50.1669C33.6818 53.2201 49.1013 48.8366 44.2481 46.6448L44.2488 46.6368ZM24.6813 32.3912C24.6813 32.3912 16.1497 34.4268 21.628 35.1304C23.9761 35.4428 28.5938 35.3652 32.8988 35.0519C36.4209 34.7392 39.9511 34.1127 39.9511 34.1127C39.9511 34.1127 38.6984 34.6607 37.8377 35.2082C29.1427 37.48 12.4713 36.4623 17.2459 34.1141C21.317 32.1571 24.6813 32.3912 24.6813 32.3912ZM39.9429 40.9227C48.7102 36.3829 44.6391 32.0001 41.8214 32.5483C41.1162 32.7046 40.8038 32.8609 40.8038 32.8609C40.8038 32.8609 41.0384 32.3912 41.5866 32.2358C47.1434 30.2788 51.5271 38.106 39.7868 41.1585C39.7868 41.1585 39.8653 41.079 39.9429 40.9227ZM25.542 53.2883C33.9952 53.8366 46.9095 52.9757 47.2228 48.9831C47.2228 48.9831 46.5977 50.5483 40.2572 51.7225C33.0567 53.0528 24.1331 52.8965 18.8896 52.0349C18.8896 52.0349 19.9851 52.9741 25.5427 53.2874L25.542 53.2883Z" fill="#4E7896"/>
<path d="M34.6151 6.5625C34.6151 6.5625 39.4676 11.4935 29.9974 18.928C22.4051 24.9544 28.2745 28.3987 29.9974 32.3112C25.5361 28.3202 22.3282 24.7973 24.5185 21.51C27.7353 16.66 36.5785 14.312 34.6151 6.5625ZM32.1108 29.0255C34.3802 31.6083 31.4857 33.9565 31.4857 33.9565C31.4857 33.9565 37.2774 30.9832 34.6167 27.3033C32.19 23.7811 30.3117 22.059 40.4869 16.188C40.4869 16.188 24.4412 20.1789 32.1123 29.0238L32.1108 29.0255Z" fill="#F58219"/>
</g>
</g>
<defs>
<clipPath id="clip0_451_6605">
<rect width="60" height="60" fill="white"/>
</clipPath>
</defs>
</svg>
