<svg width="60" height="60" viewBox="0 0 60 60" fill="none" xmlns="http://www.w3.org/2000/svg">
<g clip-path="url(#clip0_451_6579)">
<mask id="mask0_451_6579" style="mask-type:luminance" maskUnits="userSpaceOnUse" x="0" y="0" width="60" height="60">
<path d="M60 0H0V60H60V0Z" fill="white"/>
</mask>
<g mask="url(#mask0_451_6579)">
<path d="M45.9375 0H14.0625C6.296 0 0 6.296 0 14.0625V45.9375C0 53.704 6.296 60 14.0625 60H45.9375C53.704 60 60 53.704 60 45.9375V14.0625C60 6.296 53.704 0 45.9375 0Z" fill="#F0DB4F"/>
<path d="M15.7774 50.1404L20.369 47.3616C21.2548 48.9321 22.0606 50.2611 23.9934 50.2611C25.8462 50.2611 27.0143 49.5364 27.0143 46.7173V27.5459H32.6529V46.797C32.6529 52.6369 29.2296 55.2952 24.2351 55.2952C19.7246 55.2952 17.1064 52.9597 15.7774 50.1404Z" fill="#323330"/>
<path d="M35.7148 49.5363L40.3057 46.8783C41.5144 48.8519 43.0852 50.3018 45.8639 50.3018C48.2004 50.3018 49.6901 49.1337 49.6901 47.5226C49.6901 45.5894 48.1596 44.9046 45.582 43.7773L44.1727 43.1728C40.1046 41.4412 37.406 39.2662 37.406 34.6748C37.406 30.4458 40.6282 27.2236 45.6628 27.2236C49.2473 27.2236 51.825 28.4723 53.6779 31.7346L49.2874 34.5539C48.3206 32.8221 47.2739 32.1375 45.6628 32.1375C44.0114 32.1375 42.9642 33.1847 42.9642 34.5539C42.9642 36.2454 44.0114 36.9302 46.4278 37.9777L47.8373 38.5816C52.6301 40.6359 55.3289 42.7298 55.3289 47.4419C55.3289 52.5171 51.3415 55.2959 45.9848 55.2959C40.7491 55.2959 37.3659 52.7988 35.7148 49.5363Z" fill="#323330"/>
</g>
</g>
<defs>
<clipPath id="clip0_451_6579">
<rect width="60" height="60" fill="white"/>
</clipPath>
</defs>
</svg>
