<svg width="60" height="60" viewBox="0 0 60 60" fill="none" xmlns="http://www.w3.org/2000/svg">
<g clip-path="url(#clip0_451_6634)">
<mask id="mask0_451_6634" style="mask-type:luminance" maskUnits="userSpaceOnUse" x="0" y="0" width="60" height="60">
<path d="M60 0H0V60H60V0Z" fill="white"/>
</mask>
<g mask="url(#mask0_451_6634)">
<path d="M45.9375 0H14.0625C6.296 0 0 6.296 0 14.0625V45.9375C0 53.704 6.296 60 14.0625 60H45.9375C53.704 60 60 53.704 60 45.9375V14.0625C60 6.296 53.704 0 45.9375 0Z" fill="url(#paint0_linear_451_6634)"/>
<path d="M18.5718 16.1114C16.2314 19.5372 16.5229 23.994 18.306 27.6298L18.4372 27.8888L18.5258 28.0529C18.5422 28.0847 18.5612 28.1161 18.578 28.1471C18.6091 28.2047 18.6401 28.26 18.6666 28.3168L18.8372 28.6149L18.9347 28.779L19.1327 29.0944L19.2213 29.2273C19.3099 29.3691 19.41 29.51 19.5084 29.649C19.5106 29.6525 19.5137 29.6564 19.5163 29.66C19.5318 29.6822 19.5491 29.7043 19.5606 29.7265C19.6457 29.8461 19.7379 29.964 19.8264 30.0809L19.9248 30.2084L20.1662 30.5107L20.2584 30.6232C20.3682 30.7557 20.4804 30.8864 20.5951 31.0149L20.6022 31.0219C20.6066 31.0275 20.611 31.0308 20.6154 31.0365C20.7265 31.1618 20.8405 31.2844 20.9575 31.4042L21.0673 31.5167L21.3407 31.7897L21.4523 31.8978C21.5751 32.0154 21.6999 32.131 21.8266 32.2447L21.8975 32.3065L22.2373 32.599L22.3782 32.7134L22.6617 32.9349L22.8132 33.0523L23.2465 33.369C23.2576 33.3765 23.2673 33.3844 23.2784 33.3919C23.3803 33.4629 23.4836 33.5316 23.5872 33.6003L23.721 33.691L24.2047 33.9924L24.3386 34.069L24.7018 34.2762C24.7682 34.3125 24.8361 34.3472 24.9025 34.3817L25.1622 34.5146L25.2219 34.5439L25.3283 34.5961L25.7401 34.7902L25.8275 34.8345C25.9865 34.905 26.1465 34.9728 26.3078 35.0377L26.4247 35.0848L26.8778 35.2557L26.9345 35.2761C27.1018 35.3351 27.2704 35.3914 27.4396 35.4446L27.5615 35.4816C27.7386 35.5348 27.9048 35.5983 28.0829 35.6323C39.4009 37.7393 42.6894 28.7098 42.6894 28.7098C39.9282 32.3736 35.027 33.3392 30.3836 32.2641C30.2075 32.2198 30.0369 32.168 29.8651 32.1162L29.7357 32.0719C29.5684 32.0197 29.4018 31.9641 29.237 31.9067L29.1683 31.8814C29.0209 31.8282 28.8742 31.7729 28.7284 31.7152L28.6044 31.6655C28.4448 31.6015 28.2864 31.5345 28.1293 31.4644L28.0347 31.422L27.6341 31.2315L27.519 31.1747C27.415 31.1225 27.3116 31.0688 27.2087 31.014L27.002 30.9031C26.8768 30.8347 26.7531 30.7639 26.6307 30.691L26.5054 30.62C26.3422 30.5227 26.181 30.4207 26.0216 30.3188C25.9773 30.29 25.9347 30.2595 25.8908 30.2302L25.5465 29.9972L25.4359 29.9175L25.1104 29.6782L24.9657 29.5674L24.6721 29.3335L24.5411 29.2273L24.1754 28.9172C24.163 28.906 24.149 28.895 24.1311 28.883C24.0011 28.7665 23.8729 28.647 23.7468 28.5268L23.6385 28.4206L23.3621 28.145L23.254 28.0341C23.1389 27.9146 23.0259 27.7929 22.9151 27.6692C22.9098 27.6629 22.9036 27.6572 22.8983 27.6514C22.7812 27.5208 22.6666 27.3877 22.5545 27.2527L22.4646 27.1437L22.2165 26.8322L22.1257 26.7172L21.8399 26.3295C19.2616 22.7477 18.3401 17.8081 20.3957 13.751L18.5718 16.1114ZM25.8372 13.2247C24.145 15.7056 24.2366 19.0256 25.5568 21.6491C25.7776 22.0896 26.0277 22.5148 26.3054 22.9218C26.559 23.2918 26.8403 23.7326 27.1768 24.0293C27.2987 24.1622 27.4262 24.2951 27.5565 24.4308C27.5893 24.4648 27.6231 24.4972 27.6566 24.5314C27.7832 24.6568 27.9125 24.7793 28.0447 24.8986C28.0501 24.9031 28.055 24.9082 28.0607 24.9127C28.2097 25.0451 28.3618 25.1736 28.5175 25.2982L28.6204 25.3796C28.775 25.5015 28.9332 25.6189 29.0943 25.7323C29.0985 25.7358 29.1029 25.7393 29.1076 25.7426C29.1784 25.7925 29.2515 25.8399 29.3237 25.8877C29.3584 25.9109 29.391 25.9353 29.4257 25.9568C29.5412 26.0325 29.6584 26.1057 29.777 26.1762L29.8267 26.2055L30.1368 26.3827C30.1731 26.4036 30.2101 26.4216 30.2474 26.4411L30.4689 26.5554C30.4801 26.5613 30.4911 26.5655 30.5017 26.5709C30.651 26.6461 30.8012 26.7172 30.955 26.7858C30.9878 26.8004 31.0213 26.8137 31.055 26.8278C31.1779 26.881 31.3018 26.9325 31.4272 26.9815L31.5866 27.0411C31.6998 27.083 31.8135 27.1233 31.9279 27.162L32.0818 27.2119C32.2445 27.2637 32.4053 27.3284 32.575 27.3572C41.3134 28.8317 43.3314 21.9791 43.3314 21.9791C41.5129 24.646 37.9914 25.9193 34.2327 24.9261C34.0665 24.8818 33.9015 24.833 33.7379 24.7798C33.6878 24.7643 33.6388 24.7479 33.5891 24.7355C33.4731 24.6973 33.3578 24.6568 33.2432 24.6141L33.0866 24.5548C32.9612 24.5105 32.8372 24.4552 32.7147 24.402C32.6809 24.3872 32.6472 24.3741 32.6141 24.3586C32.4599 24.2911 32.3078 24.2192 32.1578 24.1428C32.0807 24.1043 32.005 24.064 31.929 24.024L31.7971 23.955C31.6996 23.9014 31.6033 23.8461 31.5079 23.7889L31.4387 23.7446C31.3208 23.674 31.2041 23.6014 31.0888 23.5266C31.0532 23.5034 31.0187 23.4823 30.9833 23.4549L30.7565 23.302C30.5961 23.1885 30.4389 23.0712 30.2842 22.9502L30.1778 22.8651C28.5329 21.5423 27.2286 19.7348 26.609 17.685C25.959 15.5585 26.0994 13.1729 27.2291 11.2365L25.8372 13.2247ZM31.9464 11.0681C30.9486 12.5638 30.8509 14.4209 31.5477 16.0724C32.2778 17.8254 33.7738 19.201 35.5197 19.8527C35.5916 19.8801 35.6638 19.9045 35.7411 19.9293L35.837 19.9603C35.9397 19.9931 36.0421 20.0312 36.148 20.0516C40.9733 21.0009 42.2818 17.5299 42.6301 17.0191C41.4836 18.7004 39.557 19.104 37.1931 18.5196C37.007 18.4731 36.801 18.4044 36.617 18.3398C36.3857 18.2561 36.159 18.1601 35.938 18.0522C35.5173 17.8459 35.1184 17.598 34.7472 17.312C32.6272 15.6772 31.3129 12.5593 32.6933 10.02" fill="white"/>
<path d="M30.8966 40.1625H29.3992C29.316 40.1625 29.2335 40.2291 29.2159 40.3104L28.1526 45.2311C28.135 45.3122 28.0525 45.3786 27.9698 45.3786H26.9097C25.8606 45.3786 25.982 44.6534 26.2007 43.6596L26.2075 43.6296L26.3345 42.9518L26.3894 42.6727L26.8734 40.3104C26.89 40.2291 26.8356 40.1621 26.7524 40.1621H25.2152C25.1727 40.1635 25.132 40.1787 25.0989 40.2054C25.0661 40.2321 25.0427 40.2689 25.0326 40.31L24.34 43.5945C23.9592 45.3328 24.0602 46.9908 26.1299 47.0426L26.1897 47.0438H29.4379C29.5211 47.0438 29.6031 46.9775 29.6209 46.8959L31.0216 40.31C31.0394 40.2286 30.9848 40.1621 30.902 40.1621L30.8966 40.1625ZM36.8716 45.3959C36.955 45.3959 37.0045 45.4622 36.9925 45.5438L36.8472 46.2549L36.8716 45.3959Z" fill="white"/>
<path d="M32.8644 44.4805C32.8633 44.4025 32.9519 44.2686 33.0351 44.2686L32.848 44.2656C32.7594 45.1135 32.8644 44.4805 32.8644 44.4805ZM36.8706 45.3957C36.954 45.3957 37.0035 45.4621 36.9915 45.5436L36.8223 46.3703L36.8706 45.3957Z" fill="white"/>
<path d="M34.0837 47.1284H34.0136H34.0926H34.0837ZM12.0668 44.4978L12.2994 43.4665L12.0336 44.6449L12.0026 44.7928L12.0668 44.4978ZM14.8516 40.1452H13.2067C13.1641 40.1468 13.1233 40.1621 13.0901 40.1888C13.0568 40.2153 13.0329 40.2516 13.0219 40.2928L12.71 41.666C12.7048 41.6839 12.7039 41.7026 12.7075 41.7209C12.711 41.7389 12.7189 41.756 12.7305 41.7706C12.7421 41.7851 12.757 41.7966 12.7739 41.8041C12.7909 41.8116 12.8094 41.8149 12.8279 41.8137H14.4856C14.5689 41.8137 14.6513 41.7471 14.669 41.666L14.9703 40.2896C14.988 40.2087 14.9348 40.1421 14.8507 40.1421L14.8516 40.1452ZM9.71534 49.8307L11.0718 49.8415C10.6713 49.8415 10.0104 49.8342 9.71534 49.8307Z" fill="white"/>
<path d="M14.3759 42.2871H12.7177C12.6752 42.2887 12.6344 42.304 12.6011 42.3307C12.5679 42.3572 12.544 42.3935 12.533 42.4347L12.0678 44.4972L12.0031 44.7932L11.5601 46.8989C11.5382 46.9971 11.5116 47.0943 11.4804 47.19C11.4804 47.19 11.1703 48.1115 10.6502 48.1012L10.1341 48.0916C10.0917 48.0928 10.0509 48.1073 10.0174 48.1333C9.984 48.1593 9.9597 48.1952 9.948 48.236L9.6047 49.6814C9.5992 49.6992 9.5982 49.7179 9.6015 49.736C9.6048 49.7543 9.6125 49.7714 9.6238 49.7859C9.6352 49.8004 9.6498 49.8122 9.6667 49.8199C9.6834 49.8276 9.7018 49.8311 9.7203 49.8304L11.0772 49.8415C12.3779 49.8415 13.0633 49.1205 13.5032 47.0472L14.5 42.4399C14.5177 42.359 14.4636 42.2925 14.3804 42.2925L14.3759 42.2871ZM37.9273 47.0442C37.8441 47.0442 37.7944 46.9779 37.8078 46.8963L39.0549 41.0547L37.9273 47.0442Z" fill="white"/>
<path d="M37.8266 46.9707C37.8165 46.93 37.8224 46.8301 37.84 46.749L38.4318 43.9759L37.8081 46.8967C37.7903 46.9782 37.8444 47.0446 37.9276 47.0446H38.0793C37.9961 47.0446 37.8365 47.0113 37.8266 46.9707ZM39.5633 47.0113C39.5181 47.0291 39.4126 47.0446 39.3294 47.0446H39.4808C39.5233 47.0429 39.5638 47.0275 39.5966 47.0007C39.6294 46.974 39.6524 46.9372 39.6625 46.8962L39.6927 46.7483C39.6763 46.8296 39.6041 46.9932 39.5598 47.0113H39.5633ZM44.8342 41.4463L44.9029 41.7299C44.9221 41.811 44.8694 41.8768 44.7864 41.8773" fill="white"/>
<path d="M40.1355 44.5491L40.1967 44.255L40.4346 43.1408L40.1653 44.4024L40.1355 44.5491ZM39.0755 40.959L39.0237 41.2025L38.4316 43.9759L39.0555 41.0551L39.0755 40.959Z" fill="white"/>
<path d="M44.9026 41.7299L44.834 41.4463L44.7322 41.0033C44.5975 40.4804 44.2023 40.1779 43.3438 40.1779L39.392 40.1753C39.3496 40.1767 39.309 40.1919 39.276 40.2186C39.2432 40.2453 39.2197 40.2821 39.2097 40.3232L39.1485 40.6126L39.0599 41.0497L37.8442 46.7439C37.8264 46.8254 37.8207 46.9211 37.8308 46.9653C37.8411 47.0096 38.0005 47.0394 38.0835 47.0394H39.3327C39.4159 47.0394 39.5209 47.0242 39.5666 47.0061C39.6123 46.9879 39.6791 46.8289 39.6995 46.7429L40.1736 44.3975L40.6808 42.0212C40.6984 41.9401 40.7804 41.8743 40.8634 41.8738L44.7941 41.8719C44.8771 41.8719 44.9298 41.8056 44.9106 41.7245L44.9026 41.7299ZM49.9632 39.1635L49.6607 39.1646H48.4025C48.3564 39.1675 48.3116 39.1801 48.2706 39.2017C48.2298 39.2232 48.1942 39.2532 48.1658 39.2896L45.3838 43.3653C45.3369 43.434 45.2833 43.4239 45.2643 43.3433L45.0594 42.4452C45.0484 42.4042 45.0247 42.3676 44.9915 42.3411C44.9582 42.3146 44.9174 42.2994 44.8747 42.2978H43.0865C43.003 42.2978 42.9536 42.3629 42.9765 42.4431L43.7739 45.2509C43.7968 45.3306 43.7982 45.4621 43.7783 45.5432L43.424 46.9021C43.4179 46.9194 43.4162 46.9379 43.4193 46.9562C43.4223 46.9745 43.4298 46.9916 43.4411 47.0061C43.4523 47.0207 43.4671 47.0321 43.484 47.0396C43.5008 47.0471 43.5193 47.0502 43.5379 47.0486H45.3097C45.3932 47.0486 45.4783 46.9822 45.4986 46.9023L45.853 45.5436C45.8807 45.448 45.9243 45.3575 45.9815 45.2762L50.5028 39.2809C50.5529 39.2143 50.526 39.1604 50.4425 39.1611L49.9686 39.1644L49.9632 39.1635ZM35.7531 42.6796C35.7425 42.7682 35.6593 42.8347 35.5759 42.8347H33.3076C33.2293 42.8347 33.1895 42.7815 33.2015 42.715L33.2031 42.703L33.2134 42.6646C33.4349 42.0887 33.8713 41.7107 34.7 41.7107C35.6336 41.7107 35.8164 42.167 35.7531 42.6796ZM35.0877 40.0623C32.1772 40.0623 31.4875 41.829 31.1007 43.6121C30.7136 45.4297 30.7471 47.1296 33.7588 47.1296H34.2362L34.604 47.1282L36.5204 47.1168C36.5626 47.1149 36.6027 47.0994 36.6353 47.0727C36.6679 47.046 36.6908 47.0094 36.7007 46.9684L36.9918 45.5455C37.0086 45.4639 36.9543 45.3974 36.8708 45.3974H34.1631C33.0866 45.3974 32.7665 45.1112 32.8841 44.27H37.2125C37.2833 44.2686 37.3475 44.2257 37.3729 44.1585C37.3773 44.1465 37.3818 44.1336 37.3834 44.1207C38.0258 41.6975 37.8416 40.0642 35.0886 40.0642L35.0877 40.0623ZM21.3304 42.67L21.2897 42.8148C21.2897 42.8153 20.9627 43.9736 20.9627 43.9736L20.6358 45.1316C20.6222 45.1726 20.5966 45.2082 20.5622 45.2343C20.5279 45.26 20.4865 45.275 20.4435 45.2769H18.7131C17.4009 45.2769 17.0815 44.2506 17.4009 42.7368C17.7199 41.1885 18.3467 40.2257 19.6381 40.1284C21.4031 39.9955 21.7557 41.2373 21.3304 42.67ZM22.5168 45.1883C22.5168 45.1883 23.332 43.2081 23.518 42.0639C23.7704 40.5322 23.0041 38.3115 20.0426 38.3115C17.0979 38.3115 15.8194 40.4317 15.3316 42.7417C14.8443 45.0629 15.4831 47.0992 18.4105 47.0832L22.8788 47.0668C22.9216 47.0647 22.9628 47.0495 22.9966 47.0232C23.0305 46.9968 23.0554 46.9607 23.0679 46.9196L23.4444 45.4853C23.4505 45.4679 23.4522 45.4492 23.4493 45.4311C23.4465 45.4129 23.439 45.3957 23.4278 45.3812C23.4166 45.3664 23.4019 45.355 23.3851 45.3475C23.3683 45.34 23.3499 45.3367 23.3315 45.3381L22.6107 45.3336C22.5398 45.3332 22.5 45.2877 22.508 45.2275C22.5097 45.2162 22.5124 45.2052 22.5168 45.1937V45.1883Z" fill="white"/>
<path d="M37.093 43.8631C37.093 43.9179 37.0487 43.9622 36.9939 43.9622C36.9388 43.9622 36.8945 43.9179 36.8945 43.8631C36.8945 43.808 36.9388 43.7637 36.9939 43.7637C37.0487 43.7637 37.093 43.808 37.093 43.8631Z" fill="white"/>
</g>
</g>
<defs>
<linearGradient id="paint0_linear_451_6634" x1="0" y1="0" x2="60" y2="60" gradientUnits="userSpaceOnUse">
<stop stop-color="#FF5C00"/>
<stop offset="1" stop-color="#FF0F00"/>
</linearGradient>
<clipPath id="clip0_451_6634">
<rect width="60" height="60" fill="white"/>
</clipPath>
</defs>
</svg>
