<svg width="60" height="60" viewBox="0 0 60 60" fill="none" xmlns="http://www.w3.org/2000/svg">
<g clip-path="url(#clip0_451_6559)">
<mask id="mask0_451_6559" style="mask-type:luminance" maskUnits="userSpaceOnUse" x="0" y="0" width="60" height="60">
<path d="M60 0H0V60H60V0Z" fill="white"/>
</mask>
<g mask="url(#mask0_451_6559)">
<path d="M45.9375 0H14.0625C6.296 0 0 6.296 0 14.0625V45.9375C0 53.704 6.296 60 14.0625 60H45.9375C53.704 60 60 53.704 60 45.9375V14.0625C60 6.296 53.704 0 45.9375 0Z" fill="#F4F2ED"/>
<path d="M20.1432 46.8577L25.8926 50.0499H34.587L42.7203 43.9433L46.3662 34.3669L37.9524 24.2356L35.5686 18.5454L23.9295 18.9618L24.0697 22.1538L21.826 26.3173L18.3203 33.118L17.6191 38.8081L20.1432 46.8577Z" fill="#ECEFF1"/>
<path d="M43.8429 26.8725C41.5992 23.6803 39.7762 21.7374 38.7947 17.7126C37.8131 13.6878 39.0752 14.7981 38.2338 11.3284C37.8131 9.52423 37.1118 8.27515 36.4108 7.30364C35.5694 6.33213 34.5879 5.77699 34.0268 5.63819C32.7649 4.94428 29.82 3.83398 26.174 5.77699C22.3878 7.72001 22.8085 11.8836 23.5097 20.3496C23.5097 20.9047 23.3694 21.5986 23.0889 22.1538C22.528 23.4029 21.5464 24.513 20.705 25.4848C19.7234 26.8725 18.7418 28.2605 18.0407 29.787C16.3579 32.9791 14.8154 37.0038 15.2361 38.5305C15.9372 38.3918 24.7718 51.7153 24.7718 51.9928C25.3326 51.8541 27.7165 51.8541 29.82 51.8541C32.7649 51.7153 34.4475 51.5766 36.8315 52.1316C36.8315 51.7153 36.6911 51.2988 36.6911 50.8826C36.6911 50.0498 36.8315 49.3559 36.9717 48.3844C37.1118 47.6904 37.2522 46.9966 37.3924 46.1639C35.9901 47.4129 33.4659 48.8009 31.0821 49.2171C28.9786 49.6334 25.4728 48.9396 23.79 46.8577C23.9304 46.8577 24.2107 46.8577 24.3511 46.7189C24.7718 46.5802 25.1925 46.4414 25.3326 46.1639C25.7533 45.4699 25.4728 44.7759 25.1925 44.3597C24.9119 43.9432 22.8085 42.4165 21.8269 41.584C20.8453 40.7513 20.2843 40.3348 19.7234 39.7798C19.7234 39.7798 18.882 38.947 18.6016 38.6693C18.3211 38.3918 18.1809 38.1143 18.0407 37.9753C17.7602 37.2816 17.62 36.4488 17.7602 35.3386C17.9004 33.8119 18.4613 32.5627 19.1625 31.1749C19.4429 30.6197 20.1441 29.5095 20.1441 29.5095C20.1441 29.5095 17.7602 35.3386 19.0223 37.1428C19.0223 37.1428 19.1625 35.3386 19.7234 33.5344C20.1441 32.2852 20.8453 30.4809 21.6866 29.5095C22.528 28.538 24.6314 24.9295 24.7718 22.7089C24.7718 21.7374 24.9119 20.7659 24.9119 20.072C24.3511 19.5168 34.1672 18.129 34.728 19.6556C34.8682 20.2108 36.8315 25.207 37.9532 27.844C38.5141 29.0932 39.2154 30.2034 39.6361 31.5912C40.0568 33.1179 40.3371 35.1996 40.3371 37.2816C40.3371 37.6978 40.3371 38.3918 40.1969 39.0858C40.4775 39.0858 45.9464 33.2566 39.4959 28.3992C39.4959 28.3992 43.4222 30.2034 43.5625 33.8119C43.7027 36.7263 42.4406 39.0858 42.1603 39.502C42.3004 39.502 45.105 40.7512 45.2451 40.7512C45.8062 40.7512 46.9279 40.3348 46.9279 40.3348C47.0683 39.9185 47.4888 38.808 47.4888 38.3918C48.4706 35.1996 46.0865 30.0647 43.8429 26.8725Z" fill="#263238"/>
<path d="M26.0339 17.7126C27.0408 17.7126 27.8569 16.4698 27.8569 14.9369C27.8569 13.4039 27.0408 12.1611 26.0339 12.1611C25.0273 12.1611 24.2109 13.4039 24.2109 14.9369C24.2109 16.4698 25.0273 17.7126 26.0339 17.7126Z" fill="#ECEFF1"/>
<path d="M32.3447 17.9901C33.6614 17.9901 34.7288 16.561 34.7288 14.7981C34.7288 13.0351 33.6614 11.606 32.3447 11.606C31.0282 11.606 29.9609 13.0351 29.9609 14.7981C29.9609 16.561 31.0282 17.9901 32.3447 17.9901Z" fill="#ECEFF1"/>
<path d="M27.0525 15.1268C26.9361 14.2143 26.4054 13.5291 25.8675 13.5964C25.3299 13.6636 24.9882 14.4579 25.1049 15.3705C25.2214 16.283 25.7518 16.9682 26.2897 16.9009C26.8275 16.8336 27.169 16.0393 27.0525 15.1268Z" fill="#212121"/>
<path d="M32.2052 17.1577C32.9795 17.1577 33.6074 16.35 33.6074 15.3535C33.6074 14.3571 32.9795 13.5493 32.2052 13.5493C31.4305 13.5493 30.8027 14.3571 30.8027 15.3535C30.8027 16.35 31.4305 17.1577 32.2052 17.1577Z" fill="#212121"/>
<path d="M50.8538 45.8861C50.293 45.6086 49.3112 45.1921 48.4698 43.9431C48.0493 43.2491 48.1894 41.3062 47.4882 40.4734C47.0675 39.9184 46.5066 40.1959 46.3665 40.1959C45.1044 40.4734 42.1594 42.4164 40.1963 40.1959C39.9158 39.9184 39.4951 39.502 38.7941 39.502C38.0928 39.502 37.8125 39.7795 37.532 40.3347C37.2514 40.8899 37.2514 41.3062 37.2514 42.6941C37.2514 43.8044 37.2514 45.0534 37.1112 46.0248C36.8307 48.3843 36.4102 49.7723 36.4102 51.16C36.4102 52.6867 36.8307 53.6582 37.3918 54.0745C37.8125 54.4909 38.5135 54.7684 40.0562 54.7684C41.5986 54.7684 42.5802 54.2134 43.5619 53.2417C44.263 52.548 44.8238 52.2702 46.7872 50.8825C48.3296 49.911 50.7137 48.6618 51.1341 48.2455C51.4147 47.968 51.8354 47.8291 51.8354 46.9963C51.8354 46.3026 51.2745 46.0248 50.8538 45.8861Z" fill="#FFC107"/>
<path d="M22.6685 46.3025C21.2662 44.0818 21.126 43.6656 20.1443 42.2776C19.303 40.8899 17.48 38.2529 16.3582 38.2529C15.5168 38.2529 15.0961 38.6692 14.5352 39.2244C13.9742 39.7794 13.4133 41.0286 12.4317 41.7226C11.5903 42.4164 9.20639 42.2776 8.64549 43.1104C8.08459 43.9431 9.20639 45.1923 9.20639 47.274C9.20639 48.1068 8.50529 48.6618 8.36509 49.217C8.22479 49.911 8.08459 50.3272 8.36509 50.8825C8.92599 51.7152 9.62709 51.9927 14.3949 52.9642C16.9191 53.5194 19.303 54.9071 20.8455 55.0461C22.388 55.1849 25.0523 55.0461 25.0523 51.2987C25.1927 49.0782 23.9306 48.523 22.6685 46.3025Z" fill="#FFC107"/>
<path d="M25.3318 21.1821C24.4904 20.627 23.7891 20.0718 23.7891 19.2391C23.7891 18.4064 24.3502 18.1288 25.1916 17.4349C25.3318 17.2961 26.8742 15.9082 28.4169 15.9082C29.9593 15.9082 31.7823 16.8798 32.4835 17.1573C33.7456 17.4349 35.0075 17.7125 34.8673 18.684C34.7272 20.0718 34.587 20.3494 33.1845 21.0433C32.203 21.3209 30.38 22.8476 29.1179 22.8476C28.557 22.8476 27.7156 22.8476 27.1548 22.7088C26.7341 22.57 26.0328 21.8761 25.3318 21.1821Z" fill="#FFC107"/>
<path d="M25.0525 20.0721C25.333 20.3496 25.7538 20.6272 26.1745 20.766C26.4548 20.9048 26.8755 21.0436 26.8755 21.0436C27.4366 21.0436 27.8573 21.0436 28.1376 21.0436C28.8388 21.0436 29.8204 20.766 30.802 20.2108C31.7835 19.7945 31.9239 19.5169 32.6249 19.2393C33.3262 18.823 34.0272 18.4066 33.7469 18.2678C33.4663 18.129 33.1858 18.2678 32.2042 18.823C31.3628 19.3781 30.6618 19.6557 29.8204 20.0721C29.3997 20.2108 28.8388 20.4884 28.4181 20.4884C27.9974 20.4884 27.5767 20.4884 27.156 20.4884C26.7353 20.4884 26.4548 20.3496 26.0341 20.2108C25.7538 20.0721 25.6134 19.9333 25.4732 19.9333C25.1929 19.7945 24.6318 19.2393 24.3515 19.1005C24.3515 19.1005 24.0709 19.1005 24.2111 19.2393C24.6318 19.6557 24.7722 19.7945 25.0525 20.0721Z" fill="#634703"/>
<path d="M29.2598 17.0188C29.3999 17.2964 29.6805 17.2964 29.8206 17.4352C29.9608 17.574 30.1012 17.574 30.1012 17.574C30.2413 17.4352 30.1012 17.1576 29.9608 17.1576C29.9608 16.8801 29.2598 16.8801 29.2598 17.0188Z" fill="#634703"/>
<path d="M27.0156 17.2962C27.0156 17.435 27.2959 17.5738 27.2959 17.435C27.4363 17.2962 27.5765 17.1575 27.7166 17.1575C27.9972 17.0187 27.8568 16.8799 27.4363 16.8799C27.1558 17.0187 27.1558 17.1575 27.0156 17.2962Z" fill="#634703"/>
<path d="M40.6175 41.8614C40.6175 42.0001 40.6175 42.1389 40.6175 42.2776C40.898 42.8329 41.5991 42.9716 42.1599 42.9716C43.0013 42.9716 43.8427 42.4164 44.2634 41.8614C44.2634 41.7226 44.4036 41.5837 44.544 41.4449C44.8243 41.0287 44.9647 40.7512 45.1048 40.6122C45.1048 40.6122 44.9647 40.4734 44.9647 40.3347C44.8243 40.0572 44.4036 39.7794 43.8427 39.6407C43.422 39.5019 42.721 39.3632 42.4405 39.3632C41.1784 39.2244 40.4773 39.6407 40.0566 40.0572C40.0566 40.0572 40.1968 40.0572 40.1968 40.1959C40.4773 40.4734 40.6175 40.7512 40.6175 41.1674C40.7577 41.4449 40.6175 41.5837 40.6175 41.8614Z" fill="#455A64"/>
</g>
</g>
<defs>
<clipPath id="clip0_451_6559">
<rect width="60" height="60" fill="white"/>
</clipPath>
</defs>
</svg>
