<svg width="60" height="60" viewBox="0 0 60 60" fill="none" xmlns="http://www.w3.org/2000/svg">
<g clip-path="url(#clip0_451_6624)">
<mask id="mask0_451_6624" style="mask-type:luminance" maskUnits="userSpaceOnUse" x="0" y="0" width="60" height="60">
<path d="M60 0H0V60H60V0Z" fill="white"/>
</mask>
<g mask="url(#mask0_451_6624)">
<path d="M45.9375 0H14.0625C6.296 0 0 6.296 0 14.0625V45.9375C0 53.704 6.296 60 14.0625 60H45.9375C53.704 60 60 53.704 60 45.9375V14.0625C60 6.296 53.704 0 45.9375 0Z" fill="#023430"/>
<path d="M40.1187 25.2166C37.6491 14.3226 32.5022 11.4224 31.1892 9.37233C30.6478 8.46921 30.1681 7.53045 29.7537 6.5625C29.6843 7.53028 29.5568 8.14001 28.7341 8.87391C27.0825 10.3466 20.0676 16.063 19.4772 28.4409C18.9272 39.982 27.9616 47.0984 29.1551 47.8341C30.0729 48.2857 31.1906 47.8437 31.736 47.4291C36.0909 44.4403 42.0413 36.472 40.1234 25.2166" fill="#10AA50"/>
<path d="M30.1279 41.6885C29.9005 44.545 29.7377 46.2049 29.1602 47.8373C29.1602 47.8373 29.5391 50.5568 29.8054 53.4375H30.7473C30.9721 51.4089 31.315 49.3952 31.7748 47.4065C30.5554 46.8065 30.1748 44.1951 30.1279 41.6885Z" fill="#B8C4C2"/>
<path d="M31.7735 47.4081C30.5412 46.8388 30.1847 44.1724 30.1298 41.6885C30.4345 37.5909 30.5234 33.4802 30.3961 29.3732C30.3314 27.2184 30.4266 9.41422 29.8652 6.80762C30.2494 7.69046 30.6916 8.5467 31.1897 9.37067C32.5027 11.4224 37.6512 14.3225 40.1191 25.2166C42.0417 36.4527 36.1238 44.3999 31.7735 47.4081Z" fill="#12924F"/>
</g>
</g>
<defs>
<clipPath id="clip0_451_6624">
<rect width="60" height="60" fill="white"/>
</clipPath>
</defs>
</svg>
