<svg width="60" height="60" viewBox="0 0 60 60" fill="none" xmlns="http://www.w3.org/2000/svg">
<g clip-path="url(#clip0_451_6665)">
<mask id="mask0_451_6665" style="mask-type:luminance" maskUnits="userSpaceOnUse" x="0" y="0" width="60" height="60">
<path d="M60 0H0V60H60V0Z" fill="white"/>
</mask>
<g mask="url(#mask0_451_6665)">
<path d="M45.9375 0H14.0625C6.296 0 0 6.296 0 14.0625V45.9375C0 53.704 6.296 60 14.0625 60H45.9375C53.704 60 60 53.704 60 45.9375V14.0625C60 6.296 53.704 0 45.9375 0Z" fill="#F4F2ED"/>
<mask id="mask1_451_6665" style="mask-type:luminance" maskUnits="userSpaceOnUse" x="8" y="8" width="44" height="44">
<path d="M51.0939 8.90625H8.90625V51.0938H51.0939V8.90625Z" fill="white"/>
</mask>
<g mask="url(#mask1_451_6665)">
<path fill-rule="evenodd" clip-rule="evenodd" d="M47.7665 41.7679C45.472 41.7042 43.6919 41.9392 42.2001 42.5669C41.7705 42.7394 41.0812 42.7394 41.0245 43.2801C41.2542 43.507 41.2818 43.8782 41.4831 44.1927C41.827 44.7635 42.4303 45.5322 42.9749 45.9311L44.811 47.2431C45.9299 47.9268 47.1923 48.3264 48.2824 49.0108C48.9138 49.4102 49.5447 49.9235 50.1761 50.3517C50.4977 50.5797 50.6924 50.9512 51.0944 51.093V51.0067C50.8938 50.751 50.8359 50.3805 50.636 50.0941L49.7742 49.2677C48.9428 48.1558 47.9092 47.1855 46.7903 46.3879C45.8721 45.7605 43.8644 44.9052 43.4913 43.8508L43.4348 43.7868C44.065 43.7231 44.811 43.5011 45.4141 43.33C46.3903 43.0743 47.279 43.1306 48.2824 42.8741L49.6605 42.4748V42.2191C49.1439 41.706 48.771 41.0214 48.2263 40.5372C46.7634 39.2826 45.1556 38.0561 43.4913 37.0298C42.6021 36.4598 41.4541 36.0883 40.5074 35.6045C40.1622 35.4332 39.5892 35.3477 39.3885 35.0627C38.8708 34.4364 38.5846 33.6086 38.2117 32.8668L35.8593 27.9056C35.343 26.7934 35.0266 25.6813 34.3964 24.655C31.4406 19.8075 28.2267 16.8709 23.2917 13.9905C22.2306 13.3917 20.9682 13.1341 19.6261 12.821L17.4744 12.706C17.0146 12.5066 16.5561 11.9646 16.1541 11.7077C14.5188 10.6813 10.3008 8.4573 9.09515 11.3881C8.32025 13.2415 10.243 15.0661 10.8957 16.0075C11.3844 16.6632 12.0146 17.4046 12.36 18.1459C12.5529 18.6303 12.6172 19.1442 12.8185 19.6574C13.277 20.9119 13.7079 22.3096 14.3104 23.4792C14.632 24.078 14.9696 24.7061 15.3715 25.2475C15.6011 25.567 16.003 25.7038 16.0885 26.2169C15.6866 26.7876 15.659 27.6421 15.4294 28.356C14.396 31.5782 14.7979 35.5701 16.2609 37.9424C16.7207 38.6549 17.8043 40.2238 19.2744 39.6245C20.5656 39.1113 20.2776 37.4861 20.6505 36.0602C20.7373 35.7184 20.6796 35.4902 20.8513 35.2614V35.3254L22.028 37.6919C22.9174 39.089 24.4673 40.5435 25.7578 41.5136C26.4459 42.0269 26.9913 42.9114 27.8517 43.2245V43.1383H27.7952C27.6227 42.8826 27.3642 42.7675 27.1347 42.5681C26.6184 42.055 26.0446 41.4274 25.6427 40.8574C24.4382 39.2608 23.3772 37.4924 22.4299 35.6678C21.9701 34.784 21.5682 33.8144 21.1965 32.9306C21.0229 32.5881 21.0229 32.0742 20.7367 31.9042C20.3058 32.5305 19.6756 33.0738 19.3586 33.8432C18.8133 35.069 18.7567 36.5805 18.556 38.1489C18.4403 38.1775 18.4917 38.1489 18.4403 38.2127C17.5232 37.9853 17.2069 37.0431 16.8628 36.2456C16.0024 34.221 15.8583 30.9705 16.6043 28.6321C16.8049 28.0333 17.6667 26.1513 17.3226 25.581C17.149 25.0392 16.5766 24.726 16.2602 24.2978C15.8873 23.7559 15.4866 23.072 15.2281 22.4732C14.54 20.8755 14.196 19.1084 13.4494 17.5113C13.104 16.7699 12.5021 15.9998 12.014 15.316C11.4687 14.5459 10.8674 14.004 10.4365 13.092C10.2931 12.7724 10.0925 12.265 10.3221 11.9224C10.3787 11.6943 10.4944 11.6029 10.7227 11.5518C11.0957 11.2322 12.1581 11.6374 12.531 11.8074C13.5921 12.2356 14.4815 12.6344 15.3709 13.2326C15.7728 13.5176 16.2037 14.0596 16.72 14.2027H17.3233C18.2416 14.4021 19.2737 14.2666 20.1335 14.5223C21.6544 15.008 23.0312 15.7199 24.266 16.4907C28.0242 18.8572 31.1238 22.222 33.2174 26.2431C33.5615 26.8989 33.7049 27.4977 34.0213 28.1821C34.6246 29.5799 35.3706 31.0052 35.9718 32.3746C36.5751 33.7148 37.1486 35.0845 38.0092 36.1963C38.44 36.7952 40.1608 37.1083 40.9352 37.4221C41.5094 37.6778 42.3981 37.908 42.9159 38.2211C43.8906 38.8199 44.8663 39.5043 45.7839 40.1601C46.2424 40.5013 47.6779 41.2145 47.7632 41.7834L47.7665 41.7679ZM18.5065 16.9891C18.1101 16.9857 17.7149 17.0336 17.331 17.1317V17.1956H17.3876C17.6171 17.6519 18.0191 17.9657 18.3059 18.3651L18.9663 19.7341L19.023 19.6701C19.4249 19.3851 19.6261 18.9288 19.6261 18.2449C19.4538 18.0456 19.4255 17.8455 19.2821 17.6461C19.1097 17.3611 18.7367 17.2179 18.5065 16.9904V16.9891Z" fill="#00678C"/>
</g>
</g>
</g>
<defs>
<clipPath id="clip0_451_6665">
<rect width="60" height="60" fill="white"/>
</clipPath>
</defs>
</svg>
