<svg width="60" height="60" viewBox="0 0 60 60" fill="none" xmlns="http://www.w3.org/2000/svg">
<g clip-path="url(#clip0_451_6677)">
<mask id="mask0_451_6677" style="mask-type:luminance" maskUnits="userSpaceOnUse" x="0" y="0" width="60" height="60">
<path d="M60 0H0V60H60V0Z" fill="white"/>
</mask>
<g mask="url(#mask0_451_6677)">
<path d="M45.9375 0H14.0625C6.296 0 0 6.296 0 14.0625V45.9375C0 53.704 6.296 60 14.0625 60H45.9375C53.704 60 60 53.704 60 45.9375V14.0625C60 6.296 53.704 0 45.9375 0Z" fill="#F4F2ED"/>
<path d="M34.3894 4.21875C34.0247 4.21875 33.686 4.29895 33.3734 4.4059C34.0378 4.86045 34.4025 5.46202 34.5848 6.14381C34.598 6.2374 34.624 6.30424 34.6369 6.3978C34.65 6.47803 34.6631 6.55823 34.6631 6.63846C34.7152 7.81488 34.3634 7.96193 34.1159 8.65709C33.738 9.5528 33.8423 10.5153 34.2982 11.2907C34.3373 11.3843 34.3894 11.4912 34.4545 11.5848C33.9595 8.20256 36.7083 7.69455 37.2164 6.63846C37.2553 5.71603 36.5128 5.10108 35.9266 4.67327C35.3665 4.3257 34.8584 4.21875 34.3894 4.21875ZM38.5322 4.98075C38.4799 5.28823 38.5191 5.20802 38.5062 5.36845C38.493 5.4754 38.493 5.60909 38.4799 5.71603C38.4539 5.82298 38.4279 5.92992 38.3888 6.03687C38.3627 6.14381 38.3236 6.25076 38.2847 6.3577C38.2324 6.46467 38.1935 6.55823 38.1412 6.66518C38.1023 6.71869 38.0761 6.77213 38.0372 6.82561C38.0112 6.86571 37.9849 6.90581 37.9589 6.94594C37.8937 7.03952 37.8286 7.13309 37.7634 7.21329C37.6854 7.29352 37.6202 7.38708 37.5291 7.45395C37.5291 7.46733 37.5291 7.46733 37.5291 7.46733C37.4508 7.53417 37.3727 7.61438 37.2816 7.68122C37.008 7.89511 36.6954 8.05554 36.4087 8.25607C36.3176 8.32289 36.2264 8.37638 36.1481 8.45658C36.057 8.52342 35.9789 8.59027 35.9006 8.67049C35.8095 8.7507 35.7443 8.8309 35.6662 8.92448C35.6011 9.00471 35.5228 9.09827 35.4708 9.19186C35.4056 9.28545 35.3405 9.37901 35.2884 9.47259C35.2362 9.57954 35.1973 9.67312 35.145 9.78007C35.1061 9.88702 35.067 9.9806 35.0409 10.0875C35.0018 10.2079 34.9758 10.3148 34.9498 10.4218C34.9366 10.4753 34.9366 10.5421 34.9235 10.5956C34.9106 10.649 34.9106 10.7025 34.8975 10.756C34.8975 10.8629 34.8846 10.9832 34.8846 11.0902C34.8846 11.1704 34.8846 11.2506 34.8975 11.3308C34.8975 11.4378 34.9106 11.5447 34.9366 11.665C34.9498 11.772 34.9758 11.8789 35.0018 11.9859C35.0409 12.0928 35.067 12.1998 35.1061 12.3067C35.1321 12.3736 35.1713 12.4404 35.1973 12.4939L32.201 11.3041C31.6929 11.157 31.1979 11.0233 30.6898 10.903C30.4162 10.8362 30.1427 10.7693 29.869 10.7025C29.0873 10.5421 28.2928 10.4218 27.498 10.3416C27.472 10.3416 27.4591 10.3282 27.4329 10.3282C26.6512 10.248 25.8827 10.2079 25.1011 10.2079C24.5278 10.2079 23.9548 10.2346 23.3946 10.2747C22.5999 10.3282 21.8052 10.4351 21.0106 10.5688C20.8152 10.5955 20.6197 10.6356 20.4244 10.6758C20.0205 10.756 19.6297 10.8495 19.2519 10.9431C19.0565 10.9966 18.8611 11.0501 18.6657 11.1035C18.4703 11.1837 18.2879 11.2773 18.1055 11.3575C17.9622 11.4244 17.8189 11.4912 17.6756 11.5581C17.6496 11.5714 17.6235 11.5714 17.6105 11.5848C17.4802 11.6516 17.3629 11.7051 17.2457 11.772C17.2066 11.7853 17.1806 11.7986 17.1545 11.8121C17.0112 11.8789 16.8679 11.9591 16.7507 12.0259C16.6595 12.066 16.5683 12.1195 16.4901 12.1596C16.4511 12.1864 16.3989 12.2131 16.3729 12.2265C16.2556 12.2933 16.1384 12.3602 16.0342 12.427C15.9169 12.4939 15.8127 12.5607 15.7215 12.6275C15.6303 12.6944 15.5392 12.7478 15.461 12.8147C15.4479 12.8281 15.435 12.8281 15.4219 12.8414C15.3437 12.8949 15.2525 12.9617 15.1744 13.0286C15.1744 13.0286 15.1613 13.0419 15.1484 13.0553C15.0832 13.1088 15.0181 13.1622 14.9529 13.2157C14.9269 13.2291 14.9008 13.2558 14.8748 13.2692C14.8096 13.3227 14.7445 13.3895 14.6794 13.443C14.6663 13.4697 14.6403 13.4831 14.6272 13.4965C14.5491 13.5767 14.4709 13.6435 14.3928 13.7238C14.3797 13.7238 14.3797 13.7371 14.3667 13.7505C14.2886 13.8173 14.2104 13.8975 14.1322 13.9777C14.1192 13.9911 14.1192 14.0044 14.1062 14.0044C14.0411 14.0713 13.9759 14.1381 13.9108 14.2183C13.8847 14.2451 13.8457 14.2718 13.8196 14.2985C13.7545 14.3788 13.6763 14.459 13.5981 14.5392C13.5851 14.5659 13.5591 14.5793 13.546 14.606C13.4418 14.713 13.3506 14.8199 13.2464 14.9269C13.2333 14.9403 13.2203 14.9536 13.2073 14.967C12.9989 15.1943 12.7774 15.4215 12.5429 15.622C12.3084 15.8359 12.0609 16.0365 11.8134 16.2102C11.5528 16.3974 11.3053 16.5578 11.0318 16.7183C10.7712 16.8653 10.4976 16.999 10.211 17.1193C9.9375 17.2396 9.6509 17.3466 9.3643 17.4401C8.8171 17.5605 8.257 17.7877 7.7749 17.8278C7.6707 17.8278 7.5535 17.8545 7.4493 17.8679C7.332 17.8946 7.2278 17.9214 7.1236 17.9482C7.0194 17.9883 6.9151 18.0284 6.8109 18.0685C6.7067 18.1086 6.6025 18.162 6.4983 18.2155C6.4071 18.2824 6.3029 18.3358 6.2117 18.4027C6.1205 18.4695 6.0293 18.5497 5.9511 18.63C5.86 18.6968 5.7688 18.7904 5.6906 18.8706C5.6124 18.9642 5.5343 19.0444 5.4691 19.138C5.404 19.2449 5.3258 19.3385 5.2737 19.4454C5.2086 19.539 5.1435 19.6459 5.0914 19.7529C5.0392 19.8732 4.9871 19.9802 4.948 20.1005C4.909 20.2074 4.8699 20.3277 4.8308 20.4481C4.8048 20.555 4.7787 20.662 4.7657 20.7689C4.7657 20.7823 4.7526 20.7956 4.7526 20.809C4.7266 20.9293 4.7266 21.0898 4.7135 21.17C4.7005 21.2636 4.6875 21.3438 4.6875 21.4373C4.6875 21.4909 4.6875 21.5576 4.7006 21.6111C4.7136 21.7047 4.7266 21.7849 4.7527 21.8651C4.7787 21.9454 4.8048 22.0256 4.8439 22.1058C4.8439 22.1192 4.8439 22.1192 4.8439 22.1192C4.8829 22.1994 4.935 22.2796 4.9872 22.3598C5.0393 22.44 5.0914 22.5202 5.1565 22.6004C5.2217 22.6673 5.2998 22.7475 5.378 22.8143C5.4561 22.8945 5.5343 22.9614 5.6255 23.0282C5.9381 23.3089 6.0163 23.4025 6.4202 23.6163C6.4853 23.6566 6.5504 23.6834 6.6286 23.7234C6.6416 23.7234 6.6546 23.7368 6.6677 23.7368C6.6677 23.7635 6.6677 23.7769 6.6807 23.8036C6.6938 23.9105 6.7198 24.0176 6.7459 24.1245C6.7719 24.2447 6.811 24.3518 6.8501 24.4453C6.8892 24.5255 6.9152 24.6056 6.9543 24.686C6.9674 24.7127 6.9803 24.7395 6.9934 24.7528C7.0455 24.8597 7.0976 24.9532 7.1497 25.047C7.2148 25.1405 7.28 25.234 7.3451 25.3277C7.4103 25.4079 7.4884 25.5014 7.5666 25.5816C7.6447 25.662 7.7229 25.7287 7.8141 25.8089C7.8141 25.8089 7.8271 25.8223 7.8401 25.8223C7.9183 25.8891 7.9965 25.9561 8.0746 26.0095C8.1658 26.0763 8.257 26.1298 8.3612 26.1832C8.4524 26.2366 8.5566 26.2901 8.6608 26.3304C8.739 26.3705 8.8302 26.3972 8.9214 26.4239C8.9344 26.4373 8.9474 26.4373 8.9735 26.4506C9.0256 26.464 9.0908 26.4773 9.1429 26.4907C9.1038 27.2126 9.0907 27.8944 9.195 28.1351C9.3122 28.4025 9.8854 27.5869 10.4586 26.651C10.3805 27.5735 10.3284 28.6563 10.4586 28.9772C10.6019 29.3114 11.3836 28.2687 12.061 27.1191C21.2973 24.9265 29.7258 31.4773 30.6117 40.7283C30.4423 39.2843 28.7098 38.4823 27.915 38.6829C27.5243 39.672 26.8598 40.942 25.7916 41.7307C25.883 40.8485 25.8438 39.9394 25.6615 39.0572C25.3748 40.287 24.8147 41.4368 24.0459 42.4259C22.8084 42.5196 21.5708 41.9046 20.9195 40.9821C20.8673 40.942 20.8544 40.8619 20.8153 40.8084C20.7762 40.7147 20.7371 40.6212 20.711 40.5277C20.672 40.4341 20.6459 40.3404 20.6329 40.2469C20.6198 40.1534 20.6198 40.0598 20.6198 39.9527C20.6198 39.8859 20.6198 39.8191 20.6198 39.7523C20.6329 39.6586 20.6589 39.5651 20.685 39.4716C20.711 39.378 20.7371 39.2843 20.7762 39.1908C20.8283 39.0973 20.8673 39.0037 20.9325 38.91C21.154 38.2683 21.154 37.747 20.7501 37.4395C20.6719 37.3861 20.5938 37.346 20.5026 37.3059C20.4505 37.2923 20.3854 37.2656 20.3332 37.2523C20.2942 37.2389 20.2681 37.2255 20.229 37.2122C20.1378 37.1855 20.0466 37.1587 19.9554 37.1454C19.8643 37.1187 19.7731 37.1053 19.6819 37.1053C19.5907 37.092 19.4865 37.0786 19.3953 37.0786C19.3301 37.0786 19.265 37.092 19.1999 37.092C19.0957 37.092 19.0045 37.1053 18.9133 37.132C18.8221 37.1454 18.7309 37.1588 18.6397 37.1855C18.5485 37.2122 18.4573 37.2391 18.3661 37.2792C18.2749 37.3193 18.1968 37.3594 18.1056 37.3995C18.0274 37.4395 17.9493 37.493 17.8581 37.533C14.8227 39.5651 16.6335 44.3243 18.7048 45.7013C17.9232 45.8484 17.1285 46.0221 16.9071 46.196C16.894 46.2094 16.881 46.2227 16.881 46.2227C17.4412 46.5703 18.0274 46.8645 18.6397 47.1183C19.4735 47.3991 20.3593 47.6531 20.7501 47.76V47.7734C21.8314 48.0007 22.9257 48.0809 24.033 48.0141C29.8041 47.5997 34.5328 43.0945 35.3927 37.1588C35.4188 37.2792 35.4448 37.3861 35.4708 37.5063C35.5099 37.747 35.562 38.0011 35.5882 38.2549C35.5882 38.2549 35.5882 38.2549 35.5882 38.2685C35.6142 38.3888 35.6271 38.509 35.6402 38.6161C35.6402 38.6428 35.6402 38.6562 35.6402 38.6695C35.6534 38.7898 35.6662 38.9102 35.6662 39.0171C35.6794 39.1641 35.6923 39.3112 35.6923 39.4582C35.6923 39.525 35.6923 39.592 35.6923 39.6722C35.6923 39.739 35.7054 39.8191 35.7054 39.8859C35.7054 39.9663 35.6923 40.0465 35.6923 40.1266C35.6923 40.1934 35.6923 40.2605 35.6923 40.3139C35.6923 40.4074 35.6794 40.4876 35.6794 40.5813C35.6794 40.6348 35.6794 40.6882 35.6662 40.755C35.6662 40.8485 35.6531 40.9423 35.6531 41.0491C35.64 41.0892 35.64 41.1293 35.64 41.1694C35.6271 41.2765 35.614 41.37 35.6011 41.4769C35.6011 41.517 35.6011 41.557 35.588 41.5973C35.5748 41.7309 35.5488 41.8512 35.5359 41.985V41.9984V42.0117C35.5099 42.132 35.4837 42.2658 35.4577 42.386C35.4577 42.3994 35.4577 42.4127 35.4577 42.4261C35.4316 42.5463 35.4056 42.6668 35.3796 42.787C35.3796 42.8004 35.3665 42.8271 35.3665 42.8405C35.3405 42.9609 35.3145 43.0812 35.2753 43.2016C35.2753 43.215 35.2753 43.2281 35.2753 43.2417C35.2362 43.3753 35.197 43.4955 35.171 43.616C35.1581 43.6294 35.1581 43.6427 35.1581 43.6427C35.119 43.7763 35.0798 43.9099 35.0407 44.0438C34.9887 44.1773 34.9495 44.2978 34.8975 44.4314C34.8455 44.565 34.8063 44.6988 34.7543 44.8191C34.702 44.9529 34.65 45.0731 34.598 45.2067H34.5848C34.5326 45.3272 34.4805 45.4608 34.4154 45.581C34.4023 45.6211 34.3894 45.648 34.3762 45.6748C34.3634 45.6881 34.3634 45.7015 34.3502 45.7148C33.5034 47.4661 32.253 49.0034 30.6898 50.2066C30.5855 50.2734 30.4812 50.3536 30.3771 50.434C30.3511 50.4605 30.312 50.4741 30.2859 50.5008C30.1945 50.5676 30.1034 50.6344 29.9993 50.7012L30.0382 50.7816H30.0513C30.2337 50.7548 30.416 50.7279 30.5986 50.7012H30.6115C30.9502 50.6477 31.2891 50.5809 31.6277 50.5141C31.7189 50.5008 31.823 50.4741 31.9144 50.4473C31.9793 50.4338 32.0316 50.4206 32.0967 50.407C32.1879 50.3937 32.2791 50.367 32.3702 50.3536C32.4483 50.3269 32.5266 50.3135 32.6046 50.2868C33.9075 49.9659 35.171 49.5248 36.3825 49.0034C34.3113 51.9045 31.5366 54.244 28.2928 55.7812C29.7909 55.6744 31.2891 55.4203 32.7349 54.9926C37.9849 53.4016 42.4013 49.7787 45.0457 44.8992C44.5116 47.9873 43.313 50.9285 41.5413 53.4952C42.8051 52.6397 43.9645 51.6504 45.0197 50.5275C47.9377 47.3993 49.8527 43.4287 50.5041 39.1643C50.947 41.2765 51.0773 43.4555 50.8819 45.6077C60.288 32.1457 51.6635 18.189 48.0551 14.5126C48.042 14.4859 48.0291 14.4725 48.0291 14.4458C48.0159 14.4592 48.0159 14.4592 48.0159 14.4725C48.0159 14.4591 48.0159 14.4591 48.0028 14.4458C48.0028 14.6062 47.9897 14.7666 47.9768 14.9271C47.9377 15.2345 47.8988 15.5286 47.8465 15.8228C47.7813 16.1169 47.7033 16.411 47.625 16.7051C47.5338 16.9858 47.4298 17.2799 47.3123 17.5607C47.1952 17.828 47.0648 18.1088 46.9216 18.3761C46.7782 18.6301 46.6219 18.8975 46.4527 19.1381C46.2832 19.3921 46.1009 19.6328 45.9185 19.86C45.723 20.1007 45.5147 20.3146 45.3063 20.5285C45.176 20.6488 45.0586 20.7557 44.9285 20.8627C44.8242 20.9563 44.733 21.0365 44.6287 21.1301C44.3944 21.3172 44.1598 21.491 43.8994 21.6514C43.6519 21.8119 43.3913 21.9723 43.1306 22.1059C42.8571 22.2396 42.5836 22.36 42.3101 22.4803C42.0363 22.5872 41.7497 22.6808 41.4633 22.761C41.1766 22.8412 40.8769 22.9081 40.5905 22.9615C40.2907 23.015 39.9912 23.0418 39.7045 23.0685C39.4962 23.0819 39.2876 23.0952 39.0792 23.0952C38.7797 23.0952 38.4799 23.0685 38.1933 23.0417C37.8937 23.015 37.5942 22.9749 37.3076 22.908C37.0078 22.8545 36.7214 22.7743 36.4348 22.6807H36.4216C36.7083 22.6541 36.9949 22.6273 37.2816 22.5738C37.5811 22.5203 37.8677 22.4535 38.1544 22.3733C38.4408 22.2931 38.7274 22.1995 39.0009 22.0925C39.2876 21.9856 39.5611 21.8519 39.8217 21.7182C40.0952 21.5845 40.3427 21.4375 40.6034 21.2771C40.8509 21.1033 41.0984 20.9295 41.333 20.7423C41.5673 20.5552 41.7888 20.3546 41.9972 20.1407C42.2187 19.9402 42.4141 19.713 42.6096 19.4857C42.8051 19.245 42.9874 19.0044 43.1566 18.7638C43.1827 18.7237 43.2089 18.6702 43.2349 18.6301C43.3652 18.4162 43.4953 18.2023 43.6127 17.9884C43.7559 17.721 43.8862 17.4537 44.0034 17.1729C44.1206 16.8922 44.2249 16.6114 44.3161 16.3174C44.4073 16.0366 44.4724 15.7425 44.5376 15.4484C44.5898 15.1409 44.6419 14.8468 44.6679 14.5527C44.6939 14.2452 44.7199 13.9377 44.7199 13.6436C44.7199 13.4297 44.707 13.2158 44.6939 13.002C44.6679 12.6945 44.6287 12.4004 44.5898 12.1063C44.5376 11.7988 44.4724 11.5047 44.3944 11.2106C44.3032 10.9298 44.212 10.6357 44.1077 10.355C44.0034 10.0743 43.8734 9.7935 43.743 9.52612C43.5996 9.25877 43.4564 8.9914 43.3001 8.73741C43.1306 8.48339 42.9614 8.24276 42.7791 8.00212C42.5836 7.77485 42.3881 7.5476 42.1798 7.32033C42.0755 7.21338 41.9583 7.09308 41.8411 6.98613C41.2547 6.51823 40.6425 6.07706 40.0303 5.676C39.9391 5.62252 39.8609 5.58244 39.7697 5.54231C39.3398 5.26158 38.936 5.11444 38.5322 4.98075Z" fill="#E0234E"/>
</g>
</g>
<defs>
<clipPath id="clip0_451_6677">
<rect width="60" height="60" fill="white"/>
</clipPath>
</defs>
</svg>
