<svg width="60" height="60" viewBox="0 0 60 60" fill="none" xmlns="http://www.w3.org/2000/svg">
<g clip-path="url(#clip0_451_6685)">
<mask id="mask0_451_6685" style="mask-type:luminance" maskUnits="userSpaceOnUse" x="0" y="0" width="60" height="60">
<path d="M60 0H0V60H60V0Z" fill="white"/>
</mask>
<g mask="url(#mask0_451_6685)">
<path d="M45.9375 0H14.0625C6.296 0 0 6.296 0 14.0625V45.9375C0 53.704 6.296 60 14.0625 60H45.9375C53.704 60 60 53.704 60 45.9375V14.0625C60 6.296 53.704 0 45.9375 0Z" fill="#F4F2ED"/>
<path d="M40.497 22.8293L40.4798 22.822C40.4702 22.8184 40.4604 22.8147 40.4517 22.8061C40.4377 22.791 40.4273 22.773 40.4215 22.7533C40.4156 22.7336 40.4142 22.7127 40.4175 22.6924L41.3625 16.9148L45.7943 21.3477L41.1853 23.3086C41.1724 23.3137 41.1588 23.3162 41.145 23.3159H41.1267C41.1206 23.3123 41.1143 23.3074 41.1021 23.2951C40.9305 23.1041 40.7255 22.9463 40.497 22.8293ZM46.9249 22.4773L51.6635 27.2156C52.6477 28.2012 53.1403 28.6924 53.3201 29.2622C53.3468 29.3466 53.3688 29.4309 53.3859 29.5177L42.0619 24.7219C42.0558 24.7193 42.0497 24.717 42.0436 24.7144C41.9984 24.6961 41.9456 24.6752 41.9456 24.6288C41.9456 24.5824 41.9995 24.5604 42.0448 24.5421L42.0593 24.536L46.9249 22.4773ZM53.1928 31.0385C52.9484 31.4981 52.4716 31.9751 51.6647 32.783L46.3223 38.1241L39.4127 36.6853L39.3759 36.678C39.3148 36.6682 39.2501 36.6572 39.2501 36.6021C39.2238 36.3171 39.1392 36.0405 39.0014 35.7895C38.8636 35.5387 38.6756 35.3189 38.4492 35.1438C38.4211 35.1157 38.4286 35.0716 38.437 35.0313C38.437 35.0252 38.437 35.0191 38.4396 35.0142L39.739 27.0361L39.7439 27.0091C39.7514 26.948 39.7622 26.8772 39.8173 26.8772C40.0957 26.8425 40.3645 26.7527 40.608 26.613C40.8516 26.4736 41.0648 26.287 41.2355 26.0641C41.2465 26.052 41.2537 26.0384 41.2685 26.0311C41.3077 26.0128 41.3541 26.0311 41.3944 26.0482L53.1916 31.0385H53.1928ZM45.0938 39.3527L36.3087 48.1378L37.8124 38.8957L37.8148 38.8833C37.8162 38.8711 37.8185 38.8589 37.8223 38.8479C37.8345 38.8186 37.8661 38.8064 37.8968 38.7942L37.9113 38.7881C38.2406 38.6475 38.532 38.4309 38.7612 38.156C38.7905 38.1218 38.8259 38.0887 38.8711 38.0827C38.8828 38.0808 38.8948 38.0808 38.9065 38.0827L45.0923 39.3541L45.0938 39.3527ZM34.4491 49.9973L33.4589 50.9876L22.5114 35.1656C22.5075 35.16 22.5034 35.1541 22.4992 35.1485C22.4821 35.1253 22.4637 35.1021 22.4674 35.0752C22.4686 35.0557 22.4809 35.0386 22.4943 35.0238L22.5065 35.0081C22.5395 34.9591 22.5676 34.9102 22.5982 34.8577L22.6227 34.8148L22.6263 34.8113C22.6434 34.782 22.6593 34.7538 22.6887 34.7379C22.7144 34.7257 22.7498 34.7306 22.7779 34.7367L34.9064 37.238C34.9404 37.2431 34.9723 37.257 34.9995 37.2783C35.0154 37.2942 35.0189 37.3113 35.0227 37.3308C35.1073 37.6509 35.2648 37.9472 35.4827 38.1963C35.7007 38.4455 35.9733 38.6409 36.2794 38.7673C36.3136 38.7844 36.2988 38.8223 36.2831 38.8627C36.2752 38.8802 36.2691 38.8988 36.2646 38.9177C36.1118 39.8468 34.8014 47.8395 34.4491 49.9973ZM32.3808 52.0645C31.6509 52.7871 31.2206 53.1696 30.7341 53.3238C30.2543 53.4755 29.7394 53.4755 29.2596 53.3238C28.6901 53.1429 28.1974 52.6514 27.2133 51.6661L16.2191 40.672L19.0908 36.2182C19.1043 36.1964 19.1177 36.1767 19.1397 36.1608C19.1703 36.1387 19.2143 36.1486 19.251 36.1608C19.9101 36.3598 20.6178 36.3239 21.2535 36.0593C21.2865 36.0471 21.3195 36.0387 21.3451 36.0619C21.358 36.0736 21.3694 36.0867 21.3794 36.101L32.3808 52.0657V52.0645ZM15.1592 39.612L12.6372 37.0901L17.6177 34.9652C17.6304 34.9596 17.6441 34.9568 17.658 34.9568C17.6996 34.9568 17.724 34.9983 17.7461 35.0363C17.7961 35.1131 17.8491 35.1881 17.905 35.261L17.9209 35.2807C17.9355 35.3013 17.9258 35.3222 17.9111 35.3419L15.1604 39.612H15.1592ZM11.521 35.9738L8.3303 32.783C7.7875 32.2402 7.3938 31.8466 7.12 31.508L16.8218 33.5203C16.834 33.5224 16.8462 33.5245 16.8585 33.5264C16.9184 33.536 16.9844 33.547 16.9844 33.6033C16.9844 33.6645 16.9123 33.6926 16.8512 33.7158L16.8231 33.728L11.521 35.9738ZM6.5625 29.8673C6.5736 29.6618 6.6105 29.4586 6.6725 29.2622C6.8535 28.6924 7.3449 28.2012 8.3303 27.2156L12.4135 23.1325C14.2935 25.8609 16.1786 28.586 18.0688 31.3076C18.1018 31.3514 18.1385 31.4004 18.1006 31.437C17.9221 31.6338 17.7436 31.849 17.6177 32.0827C17.604 32.1127 17.583 32.1387 17.5566 32.1584C17.5407 32.1682 17.5236 32.1645 17.5052 32.1607H17.5028L6.5625 29.8662V29.8673ZM13.5064 22.0396L18.9967 16.5493C19.5126 16.7755 21.3904 17.5689 23.0701 18.2779C24.3415 18.8158 25.5005 19.3048 25.8647 19.4638C25.9015 19.4784 25.9345 19.4931 25.9502 19.5298C25.9601 19.5518 25.9552 19.5799 25.9502 19.6031C25.8635 19.9995 25.8764 20.4111 25.988 20.8012C26.0995 21.1913 26.3062 21.5475 26.5896 21.8379C26.6264 21.8746 26.5896 21.9271 26.558 21.9724L26.5409 21.998L20.9662 30.6326C20.9515 30.6572 20.938 30.6778 20.9136 30.6938C20.8842 30.712 20.8427 30.7036 20.8084 30.6949C20.5916 30.6382 20.3687 30.6077 20.1446 30.6045C19.9441 30.6045 19.7265 30.6413 19.5065 30.6816H19.5052C19.4808 30.6853 19.4588 30.69 19.4392 30.6755C19.4176 30.6579 19.3991 30.6368 19.3842 30.6131L13.5064 22.0396ZM20.1055 15.4405L27.2133 8.33278C28.1974 7.34866 28.6901 6.85598 29.2596 6.67627C29.7394 6.52458 30.2543 6.52458 30.7341 6.67627C31.3038 6.85598 31.7965 7.34866 32.7806 8.33278L34.3209 9.87314L29.2657 17.7021C29.2533 17.7249 29.2362 17.7449 29.2158 17.7608C29.1851 17.7816 29.1424 17.773 29.1056 17.7608C28.7072 17.6399 28.2851 17.6178 27.8761 17.6966C27.4671 17.7755 27.0834 17.9527 26.7584 18.2131C26.7253 18.2474 26.6766 18.2278 26.6348 18.2095C25.9748 17.9222 20.8402 15.7522 20.1055 15.4405ZM35.3944 10.9465L40.0617 15.6141L38.9372 22.5799V22.5983C38.936 22.6142 38.9327 22.6298 38.9273 22.6448C38.9152 22.6692 38.8905 22.6741 38.8662 22.6814C38.6257 22.7543 38.3993 22.8671 38.1963 23.0152C38.1874 23.0214 38.1795 23.0284 38.1717 23.0359C38.1584 23.0506 38.145 23.0641 38.123 23.0665C38.1049 23.0671 38.0871 23.0642 38.0702 23.058L30.9577 20.0359L30.9443 20.0298C30.8991 20.0115 30.8454 19.9894 30.8454 19.943C30.8034 19.5466 30.6741 19.1645 30.4664 18.8244C30.4322 18.7682 30.3942 18.7095 30.4235 18.652L35.3944 10.9465ZM30.5873 21.4675L37.2548 24.2916C37.2916 24.3087 37.332 24.3244 37.3479 24.3623C37.3542 24.3851 37.3542 24.4092 37.3479 24.432C37.3282 24.5299 37.3111 24.641 37.3111 24.7535V24.9405C37.3111 24.9872 37.2635 25.0066 37.2195 25.0249L37.2061 25.0298C36.1498 25.481 22.3769 31.354 22.3561 31.354C22.3354 31.354 22.3134 31.354 22.2926 31.3331C22.2559 31.2966 22.2926 31.2452 22.3256 31.1986C22.3314 31.1906 22.3371 31.1824 22.3427 31.1742L27.822 22.69L27.8318 22.6753C27.8637 22.624 27.9002 22.5665 27.9588 22.5665L28.0139 22.5751C28.1386 22.5922 28.2488 22.6081 28.3598 22.6081C29.1912 22.6081 29.9613 22.2034 30.4259 21.5115C30.4371 21.493 30.4512 21.4765 30.4676 21.4626C30.5006 21.4381 30.5494 21.4504 30.5873 21.4675ZM22.9515 32.6962L37.9641 26.2941C37.9641 26.2941 37.9861 26.2941 38.0067 26.3147C38.0888 26.3967 38.1584 26.4516 38.2256 26.5029L38.2587 26.5238C38.2891 26.5409 38.3198 26.5605 38.3222 26.5922C38.3222 26.6044 38.3222 26.6119 38.3198 26.6229L37.0336 34.5227L37.0287 34.5544C37.0202 34.6155 37.0116 34.6854 36.9541 34.6854C36.6113 34.7084 36.2791 34.8148 35.9869 34.9952C35.6944 35.1757 35.4502 35.4246 35.2758 35.7209L35.2695 35.7305C35.2523 35.7586 35.2366 35.7855 35.2085 35.8003C35.1827 35.8125 35.1497 35.8076 35.123 35.8015L23.1508 33.3319C23.1386 33.3295 22.965 32.6974 22.9515 32.6962Z" fill="url(#paint0_radial_451_6685)"/>
</g>
</g>
<defs>
<radialGradient id="paint0_radial_451_6685" cx="0" cy="0" r="1" gradientUnits="userSpaceOnUse" gradientTransform="translate(4.9904 29.3386) rotate(90) scale(46.8234 54.0593)">
<stop stop-color="#20C6B7"/>
<stop offset="1" stop-color="#4D9ABF"/>
</radialGradient>
<clipPath id="clip0_451_6685">
<rect width="60" height="60" fill="white"/>
</clipPath>
</defs>
</svg>
