<svg width="60" height="60" viewBox="0 0 60 60" fill="none" xmlns="http://www.w3.org/2000/svg">
<g clip-path="url(#clip0_451_6693)">
<mask id="mask0_451_6693" style="mask-type:luminance" maskUnits="userSpaceOnUse" x="0" y="0" width="60" height="60">
<path d="M60 0H0V60H60V0Z" fill="white"/>
</mask>
<g mask="url(#mask0_451_6693)">
<path d="M45.9375 0H14.0625C6.296 0 0 6.296 0 14.0625V45.9375C0 53.704 6.296 60 14.0625 60H45.9375C53.704 60 60 53.704 60 45.9375V14.0625C60 6.296 53.704 0 45.9375 0Z" fill="#F4F2ED"/>
<path d="M28.4651 6.57511C28.3643 6.58428 28.0434 6.61636 27.7547 6.63926C21.097 7.23952 14.8607 10.8319 10.9109 16.3534C8.7115 19.4234 7.3048 22.9058 6.7733 26.5943C6.5854 27.882 6.5625 28.2624 6.5625 30.008C6.5625 31.7539 6.5854 32.1342 6.7733 33.4217C8.0471 42.2239 14.3108 49.6196 22.8061 52.3596C24.3274 52.8499 25.931 53.1844 27.7547 53.386C28.4651 53.4638 31.5349 53.4638 32.2453 53.386C35.3932 53.0377 38.0599 52.2589 40.6901 50.9161C41.0932 50.7101 41.1712 50.655 41.1162 50.6093C41.0796 50.5817 39.3612 48.2768 37.2994 45.491L33.5512 40.4278L28.8544 33.4767C26.2702 29.6553 24.1441 26.5301 24.1256 26.5301C24.1073 26.5257 24.0891 29.614 24.0799 33.3851C24.0661 39.9879 24.0616 40.2537 23.9791 40.4093C23.8601 40.6339 23.7684 40.7255 23.5758 40.8265C23.4292 40.8996 23.301 40.9135 22.6091 40.9135H21.8164L21.6056 40.7806C21.4681 40.6936 21.3673 40.579 21.2986 40.4461L21.2023 40.2399L21.2115 31.0528L21.2253 21.8611L21.3673 21.6823C21.4406 21.5861 21.5964 21.4624 21.7064 21.4028C21.8942 21.3112 21.9676 21.302 22.7603 21.302C23.6951 21.302 23.8507 21.3387 24.0938 21.6045C24.1624 21.6778 26.7054 25.5085 29.748 30.1226C32.7905 34.7367 36.9511 41.0372 38.9946 44.13L42.7062 49.7524L42.8941 49.6287C44.5573 48.5473 46.317 47.0077 47.7098 45.4039C50.6745 41.9993 52.5853 37.8481 53.2268 33.4217C53.4145 32.1342 53.4375 31.7539 53.4375 30.008C53.4375 28.2624 53.4145 27.882 53.2268 26.5943C51.953 17.7921 45.6891 10.3966 37.1939 7.6565C35.6955 7.1708 34.1011 6.8363 32.314 6.63469C31.8741 6.58887 28.8452 6.53846 28.4651 6.57511ZM38.0599 20.7522C38.2798 20.8621 38.4586 21.0729 38.5228 21.2929C38.5594 21.412 38.5685 23.9597 38.5594 29.701L38.5455 37.9397L37.0931 35.7127L35.636 33.4859V27.4971C35.636 23.6253 35.6543 21.4486 35.6817 21.3433C35.7551 21.0867 35.9154 20.8851 36.1355 20.7659C36.3232 20.6697 36.3921 20.6605 37.1114 20.6605C37.7897 20.6605 37.9088 20.6697 38.0599 20.7522Z" fill="black"/>
</g>
</g>
<defs>
<clipPath id="clip0_451_6693">
<rect width="60" height="60" fill="white"/>
</clipPath>
</defs>
</svg>
