<svg width="60" height="60" viewBox="0 0 60 60" fill="none" xmlns="http://www.w3.org/2000/svg">
<g clip-path="url(#clip0_451_6701)">
<mask id="mask0_451_6701" style="mask-type:luminance" maskUnits="userSpaceOnUse" x="0" y="0" width="60" height="60">
<path d="M60 0H0V60H60V0Z" fill="white"/>
</mask>
<g mask="url(#mask0_451_6701)">
<path d="M45.9375 0H14.0625C6.296 0 0 6.296 0 14.0625V45.9375C0 53.704 6.296 60 14.0625 60H45.9375C53.704 60 60 53.704 60 45.9375V14.0625C60 6.296 53.704 0 45.9375 0Z" fill="#F4F2ED"/>
<path d="M28.0964 7.2929C29.2493 6.633 30.7507 6.63007 31.9024 7.2929C37.6966 10.5669 43.4927 13.8359 49.286 17.1119C50.3759 17.7257 51.1045 18.9384 51.0935 20.1939V39.892C51.1017 41.1996 50.3009 42.4413 49.1513 43.0411C43.376 46.2973 37.6036 49.5572 31.8293 52.8134C30.653 53.486 29.1213 53.4342 27.9813 52.7062C26.25 51.7027 24.5156 50.7037 22.7841 49.7011C22.4302 49.4902 22.0313 49.3223 21.7815 48.9792C22.0023 48.6816 22.3973 48.6445 22.7182 48.5145C23.4408 48.2845 24.1048 47.9156 24.7685 47.5577C24.9366 47.4429 25.1414 47.4869 25.3024 47.5896C26.783 48.4385 28.2506 49.3123 29.7361 50.153C30.053 50.336 30.3738 50.093 30.6448 49.942C36.312 46.7388 41.9862 43.548 47.6527 40.3439C47.8627 40.2429 47.9787 40.02 47.9616 39.7901C47.9655 33.292 47.9625 26.793 47.9637 20.2949C47.9876 20.034 47.8366 19.7941 47.6006 19.6873C41.8456 16.4461 36.093 13.2001 30.3389 9.95817C30.1348 9.8178 29.8655 9.81745 29.6611 9.95711C23.9067 13.2001 18.1556 16.4492 12.4013 19.6901C12.1662 19.7971 12.0084 20.0331 12.0364 20.2949C12.0374 26.793 12.0364 33.292 12.0364 39.791C12.016 40.0209 12.1409 40.2391 12.3494 40.338C13.8849 41.2087 15.4224 42.0734 16.959 42.9412C17.8246 43.407 18.8874 43.684 19.8411 43.327C20.6827 43.0252 21.2727 42.1662 21.2566 41.2727C21.2646 34.8127 21.2526 28.3516 21.2626 21.8925C21.2416 21.6056 21.5136 21.3687 21.7924 21.3957C22.5303 21.3907 23.269 21.3858 24.0068 21.3977C24.3148 21.3907 24.5266 21.6995 24.4887 21.9885C24.4856 28.4895 24.4966 34.9905 24.4838 41.4914C24.4856 43.2241 23.7738 45.1095 22.1712 45.9572C20.197 46.9798 17.7567 46.763 15.8062 45.7823C14.1177 44.9395 12.5063 43.9448 10.8478 43.042C9.6952 42.4455 8.89829 41.1989 8.90639 39.8923V20.1939C8.89429 18.9124 9.65219 17.6777 10.7757 17.0729C16.55 13.8142 22.3233 10.553 28.0964 7.2929Z" fill="#81CD39"/>
<path d="M33.1352 20.9382C35.6535 20.7761 38.3495 20.8422 40.6157 22.0827C42.3705 23.0336 43.3431 25.029 43.3741 26.9783C43.3251 27.241 43.0502 27.3861 42.7991 27.368C42.0686 27.3671 41.3376 27.3781 40.607 27.3631C40.297 27.3751 40.1169 27.0893 40.078 26.8154C39.868 25.8826 39.3592 24.9589 38.4815 24.5089C37.1338 23.8343 35.5715 23.8683 34.1017 23.8824C33.0292 23.9391 31.8756 24.0322 30.9667 24.6629C30.269 25.1408 30.0571 26.1054 30.306 26.8824C30.5409 27.4402 31.1847 27.6202 31.7116 27.7861C34.7467 28.58 37.9628 28.5008 40.9396 29.5454C42.1724 29.9712 43.378 30.7993 43.7999 32.0897C44.3519 33.8194 44.11 35.8866 42.8793 37.2751C41.8813 38.4176 40.428 39.0397 38.9784 39.3774C37.0499 39.8075 35.0486 39.8185 33.0902 39.6275C31.2487 39.4175 29.3322 38.9337 27.9107 37.6791C26.695 36.6235 26.1013 34.9786 26.1602 33.3915C26.1742 33.1233 26.4412 32.9363 26.698 32.9583C27.4337 32.9525 28.1697 32.9504 28.9054 32.9595C29.1993 32.9384 29.4173 33.1925 29.4323 33.4695C29.568 34.358 29.902 35.2908 30.6768 35.8175C32.1723 36.7824 34.049 36.7163 35.7613 36.7433C37.1798 36.6804 38.7723 36.6615 39.9302 35.7237C40.5409 35.1889 40.7219 34.294 40.5569 33.5243C40.378 32.8744 39.6981 32.5716 39.1143 32.3736C36.1183 31.426 32.8661 31.7698 29.8991 30.698C28.6945 30.2724 27.5296 29.4676 27.067 28.2301C26.4212 26.4786 26.717 24.312 28.0766 22.9705C29.4023 21.6359 31.3157 21.1221 33.1352 20.9382Z" fill="#81CD39"/>
</g>
</g>
<defs>
<clipPath id="clip0_451_6701">
<rect width="60" height="60" fill="white"/>
</clipPath>
</defs>
</svg>
