<svg width="60" height="60" viewBox="0 0 60 60" fill="none" xmlns="http://www.w3.org/2000/svg">
<g clip-path="url(#clip0_451_6710)">
<mask id="mask0_451_6710" style="mask-type:luminance" maskUnits="userSpaceOnUse" x="0" y="0" width="60" height="60">
<path d="M60 0H0V60H60V0Z" fill="white"/>
</mask>
<g mask="url(#mask0_451_6710)">
<path d="M45.9375 0H14.0625C6.296 0 0 6.296 0 14.0625V45.9375C0 53.704 6.296 60 14.0625 60H45.9375C53.704 60 60 53.704 60 45.9375V14.0625C60 6.296 53.704 0 45.9375 0Z" fill="#F4F2ED"/>
<path d="M32.5282 44.3749H48.6466C49.1585 44.3752 49.6615 44.2416 50.1049 43.9877C50.5484 43.7341 50.9163 43.3692 51.1723 42.9295C51.4282 42.4901 51.5627 41.9916 51.5625 41.4841C51.5623 40.9767 51.4273 40.4784 51.1709 40.0392L40.3462 21.4566C40.0903 21.0173 39.7223 20.6524 39.2791 20.3987C38.8357 20.145 38.333 20.0114 37.8211 20.0114C37.3092 20.0114 36.8065 20.145 36.363 20.3987C35.9198 20.6524 35.5519 21.0173 35.2959 21.4566L32.5282 26.2113L27.1165 16.9137C26.8605 16.4744 26.4923 16.1096 26.0489 15.8559C25.6055 15.6023 25.1025 15.4688 24.5906 15.4688C24.0787 15.4688 23.5758 15.6023 23.1324 15.8559C22.689 16.1096 22.3208 16.4744 22.0647 16.9137L8.59463 40.0392C8.33843 40.4784 8.20343 40.9767 8.20313 41.4841C8.20293 41.9916 8.33753 42.4901 8.59343 42.9295C8.84923 43.3692 9.21743 43.7341 9.66073 43.9877C10.1041 44.2416 10.607 44.3752 11.119 44.3749H21.2369C25.2457 44.3749 28.2021 42.6297 30.2362 39.2249L35.175 30.7479L37.8204 26.2113L45.7594 39.8384H35.175L32.5282 44.3749ZM21.0719 39.8336L14.0109 39.832L24.5953 21.6637L29.8765 30.7479L26.3405 36.8195C24.9895 39.0287 23.4548 39.8336 21.0719 39.8336Z" fill="#00DC82"/>
</g>
</g>
<defs>
<clipPath id="clip0_451_6710">
<rect width="60" height="60" fill="white"/>
</clipPath>
</defs>
</svg>
