<svg width="60" height="60" viewBox="0 0 60 60" fill="none" xmlns="http://www.w3.org/2000/svg">
<g clip-path="url(#clip0_451_6754)">
<mask id="mask0_451_6754" style="mask-type:luminance" maskUnits="userSpaceOnUse" x="0" y="0" width="60" height="60">
<path d="M60 0H0V60H60V0Z" fill="white"/>
</mask>
<g mask="url(#mask0_451_6754)">
<path d="M45.9375 0H14.0625C6.296 0 0 6.296 0 14.0625V45.9375C0 53.704 6.296 60 14.0625 60H45.9375C53.704 60 60 53.704 60 45.9375V14.0625C60 6.296 53.704 0 45.9375 0Z" fill="#242938"/>
<path d="M11.5214 23.4951H18.1794C20.1337 23.5115 21.5498 24.075 22.4278 25.1845C23.3058 26.294 23.5955 27.8095 23.2973 29.7309C23.1816 30.6089 22.9246 31.47 22.5271 32.3147C22.146 33.1593 21.6164 33.9211 20.9372 34.6003C20.1089 35.4614 19.223 36.0079 18.2789 36.24C17.3348 36.472 16.3575 36.5878 15.3473 36.5878H12.3661L11.422 41.3081H7.96875L11.5214 23.4951ZM14.4281 26.3273L12.9375 33.7804C13.0369 33.7968 13.1362 33.8053 13.2355 33.8053C13.3513 33.8053 13.4677 33.8053 13.5834 33.8053C15.1734 33.8217 16.4986 33.6646 17.5584 33.3332C18.6183 32.9854 19.3308 31.7765 19.695 29.7061C19.9931 27.967 19.6949 26.9648 18.8005 26.7C17.9226 26.4351 16.8215 26.3109 15.4963 26.3273C15.2976 26.3437 15.1072 26.3521 14.9249 26.3521C14.7594 26.3521 14.5856 26.3521 14.4033 26.3521L14.4281 26.3273Z" fill="white"/>
<path d="M27.2298 18.75H30.6583L29.6894 23.4952H32.7701C34.4595 23.5284 35.7179 23.8762 36.5462 24.5386C37.3909 25.2009 37.6394 26.46 37.2915 28.3148L35.627 36.5878H32.1489L33.7389 28.6875C33.9044 27.8592 33.8547 27.2714 33.5898 26.9236C33.325 26.5758 32.7536 26.4019 31.8756 26.4019L29.1179 26.377L27.0808 36.5878H23.6523L27.2298 18.75Z" fill="white"/>
<path d="M40.9745 23.4951H47.6327C49.5869 23.5115 51.003 24.075 51.8809 25.1845C52.7589 26.294 53.0486 27.8095 52.7505 29.7309C52.6347 30.6089 52.3778 31.47 51.9803 32.3147C51.5992 33.1593 51.0695 33.9211 50.3903 34.6003C49.562 35.4614 48.6761 36.0079 47.732 36.24C46.788 36.472 45.8106 36.5878 44.8005 36.5878H41.8192L40.8752 41.3081H37.4219L40.9745 23.4951ZM43.8812 26.3273L42.3906 33.7804C42.49 33.7968 42.5894 33.8053 42.6888 33.8053C42.8045 33.8053 42.9208 33.8053 43.0366 33.8053C44.6266 33.8217 45.9517 33.6646 47.0116 33.3332C48.0714 32.9854 48.7839 31.7765 49.1481 29.7061C49.4462 27.967 49.1481 26.9648 48.2538 26.7C47.3758 26.4351 46.2747 26.3109 44.9495 26.3273C44.7508 26.3437 44.5605 26.3521 44.3781 26.3521C44.2127 26.3521 44.0387 26.3521 43.8564 26.3521L43.8812 26.3273Z" fill="white"/>
</g>
</g>
<defs>
<clipPath id="clip0_451_6754">
<rect width="60" height="60" fill="white"/>
</clipPath>
</defs>
</svg>
