<svg width="60" height="60" viewBox="0 0 60 60" fill="none" xmlns="http://www.w3.org/2000/svg">
<g clip-path="url(#clip0_451_6718)">
<mask id="mask0_451_6718" style="mask-type:luminance" maskUnits="userSpaceOnUse" x="0" y="0" width="60" height="60">
<path d="M60 0H0V60H60V0Z" fill="white"/>
</mask>
<g mask="url(#mask0_451_6718)">
<path d="M45.9375 0H14.0625C6.296 0 0 6.296 0 14.0625V45.9375C0 53.704 6.296 60 14.0625 60H45.9375C53.704 60 60 53.704 60 45.9375V14.0625C60 6.296 53.704 0 45.9375 0Z" fill="#FF6C37"/>
<path d="M39.6234 20.7684L27.778 32.6139L24.4375 29.2736C36.0866 17.6246 37.2377 18.6351 39.6234 20.7684Z" fill="#EEEEEE"/>
<path d="M27.7782 32.8946C27.6938 32.8946 27.6378 32.8667 27.5815 32.8104L24.2131 29.4701C24.1008 29.3579 24.1008 29.1896 24.2131 29.0773C36.0587 17.2315 37.2936 18.3544 39.792 20.6C39.8483 20.6562 39.8762 20.7123 39.8762 20.7965C39.8762 20.8808 39.8483 20.9369 39.792 20.9929L27.9465 32.8104C27.9186 32.8667 27.8342 32.8946 27.7782 32.8946ZM24.8307 29.2737L27.7782 32.221L39.2026 20.7965C37.1255 18.9438 35.7219 18.3824 24.8307 29.2737Z" fill="#FF6C37"/>
<path d="M31.1753 36.0105L27.9473 32.7824L39.7928 20.937C42.9649 24.1368 38.2209 29.3299 31.1753 36.0105Z" fill="#EEEEEE"/>
<path d="M31.1741 36.2913C31.0898 36.2913 31.034 36.2632 30.9777 36.207L27.7497 32.9789C27.6934 32.9229 27.6934 32.8666 27.6934 32.7825C27.6934 32.6981 27.7216 32.6421 27.7778 32.5859L39.6231 20.7405C39.7354 20.6282 39.9039 20.6282 40.0162 20.7405C40.746 21.4141 41.1391 22.3685 41.1109 23.3509C41.0549 26.4666 37.518 30.4245 31.3987 36.207C31.3145 36.2632 31.2302 36.2913 31.1741 36.2913ZM28.3391 32.7825C30.1354 34.6069 30.8936 35.337 31.1741 35.6175C35.89 31.1264 40.4652 26.5228 40.4934 23.3509C40.5215 22.6211 40.2409 21.8914 39.7635 21.3299L28.3391 32.7825Z" fill="#FF6C37"/>
<path d="M24.4949 29.3578L26.8809 31.7437C26.9369 31.8 26.9369 31.856 26.8809 31.9123C26.8527 31.9404 26.8527 31.9404 26.8249 31.9404L21.8843 33.007C21.6318 33.0352 21.4072 32.8666 21.3511 32.614C21.323 32.4736 21.3792 32.3334 21.4634 32.2491L24.3264 29.3859C24.3827 29.3297 24.4668 29.3016 24.4949 29.3578Z" fill="#EEEEEE"/>
<path d="M21.7982 33.2881C21.3773 33.2881 21.0684 32.9511 21.0684 32.5299C21.0684 32.3337 21.1527 32.1371 21.293 31.9967L24.156 29.1336C24.3245 28.9932 24.5493 28.9932 24.7176 29.1336L27.1035 31.5195C27.2718 31.6599 27.2718 31.9126 27.1035 32.0808C27.0473 32.1371 26.9913 32.1652 26.9069 32.1933L21.9667 33.26C21.9105 33.26 21.8543 33.2881 21.7982 33.2881ZM24.4089 29.6668L21.658 32.4176C21.6019 32.4739 21.5738 32.558 21.6299 32.6422C21.658 32.7265 21.7421 32.7547 21.8263 32.7265L26.4578 31.7159L24.4089 29.6668Z" fill="#FF6C37"/>
<path d="M45.8833 14.2002C44.0868 12.46 41.1955 12.5161 39.4551 14.3406C37.7148 16.1651 37.7711 19.0282 39.5954 20.7687C41.0833 22.2002 43.329 22.4528 45.0974 21.3862L41.8972 18.1862L45.8833 14.2002Z" fill="#EEEEEE"/>
<path d="M42.7381 22.3125C40.0716 22.3125 37.9102 20.151 37.9102 17.4844C37.9102 14.8177 40.0716 12.6562 42.7381 12.6562C43.9733 12.6562 45.1803 13.1335 46.0784 14.0037C46.1347 14.0598 46.1628 14.116 46.1628 14.2002C46.1628 14.2844 46.1347 14.3406 46.0784 14.3967L42.2891 18.1861L45.2645 21.1616C45.377 21.2739 45.377 21.4423 45.2645 21.5546C45.2366 21.5826 45.2366 21.5827 45.2084 21.6108C44.4786 22.0598 43.6084 22.3125 42.7381 22.3125ZM42.7381 13.2458C40.3803 13.2458 38.4716 15.1547 38.4997 17.5126C38.4997 19.8705 40.4082 21.7793 42.7663 21.7512C43.412 21.7512 44.0574 21.6108 44.6469 21.302L41.6996 18.3827C41.6434 18.3266 41.6155 18.2703 41.6155 18.1861C41.6155 18.1019 41.6434 18.0457 41.6996 17.9896L45.4611 14.2283C44.7031 13.5827 43.7487 13.2458 42.7381 13.2458Z" fill="#FF6C37"/>
<path d="M45.9685 14.2846L45.9125 14.2285L41.8984 18.1863L45.0704 21.3583C45.3793 21.1617 45.6877 20.9373 45.9406 20.6846C47.7369 18.9161 47.7369 16.053 45.9685 14.2846Z" fill="#EEEEEE"/>
<path d="M45.0979 21.6668C45.0135 21.6668 44.9575 21.6388 44.9012 21.5826L41.7013 18.3826C41.6451 18.3265 41.6172 18.2703 41.6172 18.1861C41.6172 18.1019 41.6451 18.0457 41.7013 17.9896L45.6871 14.0037C45.7996 13.8914 45.9679 13.8914 46.0802 14.0037L46.1645 14.0598C48.0452 15.9405 48.0452 18.972 46.1927 20.8809C45.9119 21.1615 45.603 21.4142 45.2662 21.6107C45.182 21.6388 45.126 21.6668 45.0979 21.6668ZM42.2908 18.1861L45.126 21.0211C45.3505 20.8809 45.5751 20.6844 45.7434 20.516C47.3434 18.9159 47.4276 16.3054 45.8837 14.6213L42.2908 18.1861Z" fill="#FF6C37"/>
<path d="M40.1009 21.2733C39.427 20.5997 38.3323 20.5997 37.6587 21.2733L27.0762 31.8557L28.8448 33.6241L40.0446 23.7998C40.7745 23.182 40.8305 22.0873 40.2131 21.3575C40.1569 21.3295 40.1288 21.3014 40.1009 21.2733Z" fill="#EEEEEE"/>
<path d="M28.8168 33.9053C28.7326 33.9053 28.6764 33.8771 28.6201 33.8211L26.8518 32.0528C26.7395 31.9405 26.7395 31.772 26.8518 31.6597L37.434 21.0772C38.2201 20.2913 39.4832 20.2913 40.2693 21.0772C41.0554 21.8633 41.0554 23.1263 40.2693 23.9125C40.2414 23.9406 40.2133 23.9685 40.1851 23.9966L28.9851 33.8211C28.9572 33.8771 28.9009 33.9053 28.8168 33.9053ZM27.4694 31.8561L28.8449 33.2317L39.8483 23.5754C40.4657 23.0702 40.5219 22.1439 40.0166 21.5264C39.5113 20.909 38.5851 20.8528 37.9675 21.358C37.9396 21.3861 37.9115 21.4141 37.8552 21.4422L27.4694 31.8561Z" fill="#FF6C37"/>
<path d="M18.9637 43.8984C18.8514 43.9544 18.7952 44.0667 18.8233 44.1789L19.3006 46.2002C19.4129 46.4807 19.2444 46.8178 18.9356 46.9019C18.711 46.9861 18.4585 46.9019 18.3182 46.7336L15.2305 43.6739L25.3076 33.5967L28.7883 33.6527L31.1461 36.0107C30.5848 36.4879 27.1882 39.772 18.9637 43.8984Z" fill="#EEEEEE"/>
<path d="M18.7392 47.1824C18.5148 47.1824 18.2902 47.0983 18.1498 46.93L15.0901 43.8702C15.034 43.8142 15.0059 43.758 15.0059 43.6738C15.0059 43.5897 15.034 43.5335 15.0901 43.4772L25.1672 33.4002C25.2235 33.344 25.3076 33.3159 25.3639 33.3159L28.8446 33.3721C28.9287 33.3721 28.9847 33.4002 29.0408 33.4563L31.3988 35.8141C31.4551 35.8703 31.4829 35.9545 31.4829 36.0386C31.4829 36.123 31.4551 36.179 31.3707 36.2352L31.1743 36.4038C28.1989 39.014 24.1566 41.6247 19.1322 44.1229L19.6095 46.1158C19.6935 46.4807 19.5253 46.8738 19.1884 47.0702C19.0199 47.1543 18.8795 47.1824 18.7392 47.1824ZM15.6515 43.6738L18.5428 46.537C18.6269 46.6774 18.7953 46.7334 18.9357 46.6492C19.0761 46.5651 19.1322 46.3966 19.048 46.2562L18.5709 44.2352C18.5148 43.9825 18.6269 43.758 18.8515 43.6457C23.8198 41.1475 27.834 38.5652 30.7812 36.0107L28.7042 33.9335L25.4761 33.8772L15.6515 43.6738Z" fill="#FF6C37"/>
<path d="M12.844 46.0878L15.258 43.6738L18.8509 47.2668L13.1247 46.8739C12.872 46.8458 12.7036 46.6213 12.7316 46.3684C12.7316 46.2561 12.7597 46.1439 12.844 46.0878Z" fill="#EEEEEE"/>
<path d="M18.8519 47.5191L13.0976 47.1261C12.6765 47.098 12.3957 46.7333 12.4238 46.3121C12.4519 46.1436 12.508 45.9753 12.6484 45.8631L15.0625 43.449C15.1748 43.3367 15.3433 43.3367 15.4554 43.449L19.0484 47.042C19.1326 47.1261 19.1607 47.2384 19.1046 47.3509C19.0484 47.4631 18.9642 47.5191 18.8519 47.5191ZM15.259 44.0666L13.0415 46.284C12.9572 46.3402 12.9572 46.4806 13.0415 46.5366C13.0695 46.5648 13.0976 46.5929 13.1538 46.5929L18.1221 46.9297L15.259 44.0666Z" fill="#FF6C37"/>
<path d="M24.3257 34.8878C24.1572 34.8878 24.0449 34.7474 24.0449 34.607C24.0449 34.5229 24.073 34.4669 24.1293 34.4106L26.852 31.6879C26.9643 31.5754 27.1328 31.5754 27.2451 31.6879L29.0134 33.4562C29.0976 33.5404 29.1257 33.6245 29.0976 33.737C29.0695 33.8212 28.9853 33.9053 28.8733 33.9334L24.382 34.8878C24.3538 34.8878 24.3257 34.8878 24.3257 34.8878ZM27.0484 32.2773L25.1959 34.1301L28.2273 33.4841L27.0484 32.2773Z" fill="#FF6C37"/>
<path d="M28.7887 33.6528L25.701 34.3266C25.4765 34.3829 25.2517 34.2425 25.1957 34.0179C25.1676 33.8776 25.1957 33.7372 25.308 33.6249L27.0201 31.9126L28.7887 33.6528Z" fill="#EEEEEE"/>
<path d="M25.6451 34.607C25.252 34.607 24.9434 34.2984 24.9434 33.9053C24.9434 33.7089 25.0275 33.5404 25.1398 33.4002L26.8521 31.6879C26.9644 31.5754 27.1329 31.5754 27.2452 31.6879L29.0135 33.4562C29.0977 33.5404 29.1258 33.6245 29.0977 33.737C29.0695 33.8212 28.9854 33.9053 28.8734 33.9334L25.7855 34.607C25.7295 34.607 25.6732 34.607 25.6451 34.607ZM27.0485 32.2773L25.5328 33.793C25.4768 33.8493 25.4768 33.9053 25.5047 33.9616C25.5328 34.0176 25.5891 34.0457 25.6732 34.0457L28.2555 33.4841L27.0485 32.2773Z" fill="#FF6C37"/>
<path d="M45.9958 16.9788C45.9398 16.8105 45.7432 16.7263 45.5746 16.7825C45.4064 16.8384 45.3222 17.0349 45.3785 17.2034C45.3785 17.2315 45.4064 17.2595 45.4064 17.2876C45.5746 17.6245 45.5189 18.0455 45.2941 18.3543C45.1818 18.4947 45.21 18.6912 45.3222 18.8035C45.4626 18.9156 45.659 18.8877 45.7713 18.7473C46.1925 18.2139 46.2766 17.5403 45.9958 16.9788Z" fill="#FF6C37"/>
</g>
</g>
<defs>
<clipPath id="clip0_451_6718">
<rect width="60" height="60" fill="white"/>
</clipPath>
</defs>
</svg>
