<svg width="60" height="60" viewBox="0 0 60 60" fill="none" xmlns="http://www.w3.org/2000/svg">
<g clip-path="url(#clip0_451_6764)">
<mask id="mask0_451_6764" style="mask-type:luminance" maskUnits="userSpaceOnUse" x="0" y="0" width="60" height="60">
<path d="M60 0H0V60H60V0Z" fill="white"/>
</mask>
<g mask="url(#mask0_451_6764)">
<path d="M45.9375 0H14.0625C6.296 0 0 6.296 0 14.0625V45.9375C0 53.704 6.296 60 14.0625 60H45.9375C53.704 60 60 53.704 60 45.9375V14.0625C60 6.296 53.704 0 45.9375 0Z" fill="#00005B"/>
<path d="M12.6562 42.8156V17.0656C12.6562 16.8906 12.7312 16.7906 12.9063 16.7906C13.3313 16.7906 13.7314 16.7906 14.3064 16.7656C14.9064 16.7406 15.5313 16.7406 16.2063 16.7156C16.8813 16.6906 17.6063 16.6906 18.3814 16.6656C19.1563 16.6406 19.9062 16.6406 20.6562 16.6406C22.7063 16.6406 24.4062 16.8906 25.8063 17.4156C27.0563 17.8406 28.2063 18.5406 29.1562 19.4656C29.9562 20.2656 30.5812 21.2406 30.9813 22.3156C31.3563 23.3656 31.5562 24.4406 31.5562 25.5656C31.5562 27.7155 31.0563 29.4907 30.0563 30.8906C29.0562 32.2905 27.6563 33.3405 26.0314 33.9405C24.3313 34.5656 22.4563 34.7906 20.4064 34.7906C19.8064 34.7906 19.4062 34.7906 19.1562 34.7655C18.9063 34.7407 18.5562 34.7407 18.0813 34.7407V42.7657C18.1062 42.9405 17.9812 43.0905 17.8062 43.1156H17.7063H12.9562C12.7563 43.1156 12.6562 43.0155 12.6562 42.7905V42.8156ZM18.1063 21.6406V30.0405C18.4564 30.0656 18.7812 30.0907 19.0812 30.0907H20.4064C21.3814 30.0907 22.3563 29.9407 23.2812 29.6407C24.0813 29.4157 24.7812 28.9406 25.3313 28.3155C25.8563 27.6907 26.1063 26.8406 26.1063 25.7407C26.1312 24.9656 25.9312 24.1905 25.5312 23.5155C25.1062 22.8656 24.5064 22.3656 23.7814 22.0906C22.8564 21.7156 21.8562 21.5656 20.8312 21.5906C20.1813 21.5906 19.6063 21.5906 19.1314 21.6156C18.6313 21.5906 18.2814 21.6156 18.1063 21.6406Z" fill="#9999FF"/>
<path d="M35.157 23.1157H39.5321C39.7822 23.1157 39.9821 23.2907 40.0571 23.5156C40.1321 23.7158 40.182 23.9157 40.2071 24.1407C40.257 24.3908 40.3072 24.6657 40.332 24.9158C40.3571 25.1907 40.3822 25.4907 40.3822 25.8158C41.1322 24.9406 42.0322 24.2157 43.0571 23.6656C44.2072 23.0157 45.5321 22.6907 46.857 22.6907C47.0321 22.6657 47.1821 22.7907 47.2072 22.9657V23.0657V27.9406C47.2072 28.1408 47.082 28.2158 46.8071 28.2158C45.9071 28.1907 44.982 28.2657 44.1071 28.4656C43.3822 28.6156 42.6821 28.8406 42.0071 29.1406C41.532 29.3656 41.082 29.6656 40.7321 30.0657V42.8157C40.7321 43.0658 40.632 43.1656 40.407 43.1656H35.4821C35.2822 43.1907 35.1071 43.0658 35.082 42.8656V42.7658V28.9156C35.082 28.3156 35.082 27.6908 35.0572 27.0406C35.0321 26.3907 35.0321 25.7408 35.007 25.0906C35.007 24.5157 34.9571 23.9656 34.9072 23.3907C34.8821 23.2657 34.9571 23.1407 35.082 23.1157C35.082 23.0907 35.1322 23.0907 35.157 23.1157Z" fill="#9999FF"/>
</g>
</g>
<defs>
<clipPath id="clip0_451_6764">
<rect width="60" height="60" fill="white"/>
</clipPath>
</defs>
</svg>
