<svg width="60" height="60" viewBox="0 0 60 60" fill="none" xmlns="http://www.w3.org/2000/svg">
<g clip-path="url(#clip0_451_6773)">
<mask id="mask0_451_6773" style="mask-type:luminance" maskUnits="userSpaceOnUse" x="0" y="0" width="60" height="60">
<path d="M60 0H0V60H60V0Z" fill="white"/>
</mask>
<g mask="url(#mask0_451_6773)">
<path d="M45.9375 0H14.0625C6.296 0 0 6.296 0 14.0625V45.9375C0 53.704 6.296 60 14.0625 60H45.9375C53.704 60 60 53.704 60 45.9375V14.0625C60 6.296 53.704 0 45.9375 0Z" fill="#F4F2ED"/>
<path d="M29.831 6.79688C17.9312 6.79688 18.6743 11.9573 18.6743 11.9573L18.6876 17.3035H30.0434V18.9087H14.1772C14.1772 18.9087 6.5625 18.0451 6.5625 30.052C6.5625 42.0591 13.2087 41.6334 13.2087 41.6334H17.1753V36.0616C17.1753 36.0616 16.9615 29.4155 23.7155 29.4155H34.9781C34.9781 29.4155 41.306 29.5177 41.306 23.2998V13.0186C41.306 13.0186 42.2667 6.79688 29.831 6.79688ZM23.5695 10.392C24.6994 10.392 25.6125 11.3051 25.6125 12.4349C25.6125 13.5647 24.6994 14.4779 23.5695 14.4779C22.4397 14.4779 21.5265 13.5647 21.5265 12.4349C21.5265 11.3051 22.4397 10.392 23.5695 10.392Z" fill="url(#paint0_linear_451_6773)"/>
<path d="M30.1699 53.4275C42.0696 53.4275 41.3267 48.2673 41.3267 48.2673L41.3133 42.921H29.9576V41.3158H45.8238C45.8238 41.3158 53.4385 42.1794 53.4385 30.1724C53.4385 18.1654 46.7923 18.5912 46.7923 18.5912H42.8257V24.163C42.8257 24.163 43.0395 30.8092 36.2855 30.8092H25.0228C25.0228 30.8092 18.6949 30.7068 18.6949 36.9247V47.2058C18.6949 47.2058 17.7341 53.4275 30.1699 53.4275ZM36.4315 49.8325C35.3016 49.8325 34.3885 48.9193 34.3885 47.7897C34.3885 46.6597 35.3016 45.7466 36.4315 45.7466C37.5612 45.7466 38.4745 46.6597 38.4745 47.7897C38.4745 48.9193 37.5612 49.8325 36.4315 49.8325Z" fill="url(#paint1_linear_451_6773)"/>
</g>
</g>
<defs>
<linearGradient id="paint0_linear_451_6773" x1="11.0672" y1="10.9912" x2="34.2968" y2="33.9891" gradientUnits="userSpaceOnUse">
<stop stop-color="#387EB8"/>
<stop offset="1" stop-color="#366994"/>
</linearGradient>
<linearGradient id="paint1_linear_451_6773" x1="25.3266" y1="25.7589" x2="50.2725" y2="49.341" gradientUnits="userSpaceOnUse">
<stop stop-color="#FFE052"/>
<stop offset="1" stop-color="#FFC331"/>
</linearGradient>
<clipPath id="clip0_451_6773">
<rect width="60" height="60" fill="white"/>
</clipPath>
</defs>
</svg>
