<svg width="60" height="60" viewBox="0 0 60 60" fill="none" xmlns="http://www.w3.org/2000/svg">
<g clip-path="url(#clip0_451_6782)">
<mask id="mask0_451_6782" style="mask-type:luminance" maskUnits="userSpaceOnUse" x="0" y="0" width="60" height="60">
<path d="M60 0H0V60H60V0Z" fill="white"/>
</mask>
<g mask="url(#mask0_451_6782)">
<path d="M45.9375 0H14.0625C6.296 0 0 6.296 0 14.0625V45.9375C0 53.704 6.296 60 14.0625 60H45.9375C53.704 60 60 53.704 60 45.9375V14.0625C60 6.296 53.704 0 45.9375 0Z" fill="#F4F2ED"/>
<path d="M42.416 21.1911L39.2735 24.3337C44.4159 29.4762 44.4159 37.7613 39.2735 42.8086C34.1309 47.951 25.8457 47.951 20.7985 42.8086C15.656 37.6662 15.656 29.381 20.7985 24.3337L28.9409 16.1914L30.0837 15.0487V8.90625L17.7987 21.1911C10.9421 28.0477 10.9421 39.0947 17.7987 45.9513C24.6553 52.808 35.7024 52.808 42.416 45.9513C49.2727 39.0469 49.2727 28.0477 42.416 21.1911Z" fill="#EE4C2C"/>
<path d="M36.2739 20.4295C37.536 20.4295 38.5593 19.4062 38.5593 18.1439C38.5593 16.8817 37.536 15.8584 36.2739 15.8584C35.0116 15.8584 33.9883 16.8817 33.9883 18.1439C33.9883 19.4062 35.0116 20.4295 36.2739 20.4295Z" fill="#EE4C2C"/>
</g>
</g>
<defs>
<clipPath id="clip0_451_6782">
<rect width="60" height="60" fill="white"/>
</clipPath>
</defs>
</svg>
