<svg width="60" height="60" viewBox="0 0 60 60" fill="none" xmlns="http://www.w3.org/2000/svg">
<g clip-path="url(#clip0_451_6804)">
<mask id="mask0_451_6804" style="mask-type:luminance" maskUnits="userSpaceOnUse" x="0" y="0" width="60" height="60">
<path d="M60 0H0V60H60V0Z" fill="white"/>
</mask>
<g mask="url(#mask0_451_6804)">
<path d="M45.9375 0H14.0625C6.296 0 0 6.296 0 14.0625V45.9375C0 53.704 6.296 60 14.0625 60H45.9375C53.704 60 60 53.704 60 45.9375V14.0625C60 6.296 53.704 0 45.9375 0Z" fill="#F4F2ED"/>
<path d="M29.9995 34.4413C32.4145 34.4413 34.372 32.4836 34.372 30.0688C34.372 27.6541 32.4145 25.6963 29.9995 25.6963C27.5848 25.6963 25.627 27.6541 25.627 30.0688C25.627 32.4836 27.5848 34.4413 29.9995 34.4413Z" fill="#00D8FF"/>
<path fill-rule="evenodd" clip-rule="evenodd" d="M30.0005 21.1792C35.8711 21.1792 41.3248 22.0215 45.4369 23.4372C50.3913 25.1428 53.4375 27.7282 53.4375 30.0694C53.4375 32.509 50.2092 35.2556 44.8887 37.0184C40.8663 38.351 35.5732 39.0467 30.0005 39.0467C24.2869 39.0467 18.8763 38.3937 14.8086 37.0036C9.6622 35.2446 6.5625 32.4626 6.5625 30.0694C6.5625 27.7472 9.471 25.1817 14.3558 23.4788C18.4832 22.0398 24.0715 21.1792 29.9995 21.1792H30.0005Z" stroke="#00D8FF" stroke-width="2"/>
<path fill-rule="evenodd" clip-rule="evenodd" d="M22.2606 25.6495C25.1936 20.5641 28.6475 16.2605 31.9283 13.4056C35.8808 9.96577 39.6425 8.61863 41.6704 9.78804C43.7837 11.0068 44.5504 15.1757 43.4195 20.6651C42.5652 24.8154 40.5228 29.748 37.7387 34.5757C34.8843 39.5252 31.6159 43.886 28.3799 46.7145C24.2851 50.2938 20.3264 51.5892 18.2533 50.3937C16.2417 49.2345 15.4724 45.4327 16.4374 40.3502C17.2528 36.0558 19.3 30.7849 22.2606 25.6495Z" stroke="#00D8FF" stroke-width="2"/>
<path fill-rule="evenodd" clip-rule="evenodd" d="M22.2674 34.5885C19.3262 29.5087 17.3237 24.366 16.4879 20.098C15.4817 14.9556 16.1931 11.0239 18.2192 9.85105C20.3305 8.62873 24.3251 10.0466 28.5162 13.768C31.685 16.5815 34.9388 20.8136 37.7309 25.6366C40.5936 30.5814 42.739 35.5912 43.5736 39.8071C44.6297 45.1424 43.775 49.2189 41.7038 50.4177C39.6943 51.5812 36.0167 50.3495 32.0954 46.975C28.7822 44.1241 25.2375 39.719 22.2674 34.5885Z" stroke="#00D8FF" stroke-width="2"/>
</g>
</g>
<defs>
<clipPath id="clip0_451_6804">
<rect width="60" height="60" fill="white"/>
</clipPath>
</defs>
</svg>
