<svg width="60" height="60" viewBox="0 0 60 60" fill="none" xmlns="http://www.w3.org/2000/svg">
<g clip-path="url(#clip0_451_6815)">
<mask id="mask0_451_6815" style="mask-type:luminance" maskUnits="userSpaceOnUse" x="0" y="0" width="60" height="60">
<path d="M60 0H0V60H60V0Z" fill="white"/>
</mask>
<g mask="url(#mask0_451_6815)">
<path d="M45.9375 0H14.0625C6.296 0 0 6.296 0 14.0625V45.9375C0 53.704 6.296 60 14.0625 60H45.9375C53.704 60 60 53.704 60 45.9375V14.0625C60 6.296 53.704 0 45.9375 0Z" fill="#764ABC"/>
<path d="M39.042 38.8124C40.7719 38.6333 42.0841 37.142 42.0244 35.3525C41.9648 33.5631 40.4735 32.1315 38.6841 32.1315H38.5648C36.7155 32.191 35.284 33.7419 35.3435 35.5911C35.4033 36.486 35.7612 37.2613 36.2979 37.7982C34.2698 41.7948 31.1681 44.7177 26.5153 47.1634C23.3539 48.8335 20.0731 49.43 16.7923 49.0126C14.1081 48.6547 12.0203 47.4615 10.708 45.4932C8.79921 42.5703 8.62021 39.4088 10.2308 36.2474C11.3641 33.9805 13.1536 32.3103 14.287 31.4752C14.0484 30.6999 13.6905 29.3874 13.5116 28.4331C4.86221 34.6965 5.75701 43.1668 8.38161 47.1634C10.3501 50.1458 14.3467 51.995 18.7608 51.995C19.9538 51.995 21.1468 51.8757 22.3398 51.5774C29.9752 50.0863 35.7612 45.5527 39.042 38.8124Z" fill="white"/>
<path d="M49.5417 31.4158C45.0084 26.1068 38.3274 23.184 30.6922 23.184H29.7378C29.2009 22.1103 28.0675 21.3945 26.815 21.3945H26.6957C24.8465 21.4541 23.4149 23.0051 23.4745 24.8543C23.5342 26.6437 25.0253 28.0753 26.815 28.0753H26.9342C28.2465 28.0158 29.3799 27.1807 29.8571 26.0473H30.9308C35.4641 26.0473 39.759 27.3595 43.6362 29.9245C46.6187 31.893 48.7663 34.458 49.9592 37.5598C50.9734 40.065 50.9136 42.5107 49.8399 44.5985C48.1698 47.76 45.3662 49.4899 41.6677 49.4899C39.2818 49.4899 37.0152 48.7741 35.822 48.2372C35.1659 48.8337 33.973 49.788 33.1379 50.3845C35.7027 51.5775 38.3275 52.2337 40.8328 52.2337C46.5592 52.2337 50.7943 49.0723 52.4049 45.9108C54.1349 42.4512 54.016 36.4861 49.5417 31.4158Z" fill="white"/>
<path d="M19.2381 39.8264C19.2977 41.6159 20.789 43.0474 22.5785 43.0474H22.6978C24.5469 42.9877 25.9787 41.4368 25.9189 39.5876C25.8594 37.7981 24.368 36.3666 22.5785 36.3666H22.4592C22.3399 36.3666 22.161 36.3666 22.0417 36.4263C19.596 32.37 18.5819 27.9558 18.9398 23.1838C19.1784 19.6048 20.3714 16.503 22.4592 13.938C24.189 11.731 27.5295 10.6572 29.7962 10.5976C36.1191 10.4783 38.8034 18.3521 38.9823 21.5136C39.7578 21.6926 41.0701 22.1101 41.9649 22.4084C41.2491 12.745 35.2841 7.73438 29.5576 7.73438C24.189 7.73438 19.2381 11.6116 17.2696 17.3381C14.5257 24.9734 16.3152 32.3102 19.6556 38.0965C19.3574 38.5139 19.1784 39.1702 19.2381 39.8264Z" fill="white"/>
</g>
</g>
<defs>
<clipPath id="clip0_451_6815">
<rect width="60" height="60" fill="white"/>
</clipPath>
</defs>
</svg>
