<svg width="60" height="60" viewBox="0 0 60 60" fill="none" xmlns="http://www.w3.org/2000/svg">
<g clip-path="url(#clip0_451_6854)">
<mask id="mask0_451_6854" style="mask-type:luminance" maskUnits="userSpaceOnUse" x="0" y="0" width="60" height="60">
<path d="M60 0H0V60H60V0Z" fill="white"/>
</mask>
<g mask="url(#mask0_451_6854)">
<path d="M45.9375 0H14.0625C6.296 0 0 6.296 0 14.0625V45.9375C0 53.704 6.296 60 14.0625 60H45.9375C53.704 60 60 53.704 60 45.9375V14.0625C60 6.296 53.704 0 45.9375 0Z" fill="#CD6799"/>
<mask id="mask1_451_6854" style="mask-type:luminance" maskUnits="userSpaceOnUse" x="6" y="12" width="48" height="36">
<path d="M53.4375 12.4219H6.5625V47.5568H53.4375V12.4219Z" fill="white"/>
</mask>
<g mask="url(#mask1_451_6854)">
<path d="M46.9004 32.6162C45.2658 32.6246 43.8455 33.0184 42.6561 33.6001C42.2197 32.736 41.7833 31.9658 41.7061 31.401C41.6206 30.7421 41.5179 30.34 41.6206 29.5527C41.7233 28.7654 42.1854 27.6446 42.1768 27.5591C42.1683 27.4733 42.0741 27.0714 41.1329 27.0627C40.1916 27.0542 39.3788 27.2424 39.2846 27.4907C39.1904 27.7386 39.0108 28.3035 38.8911 28.8854C38.7284 29.7411 37.0083 32.796 36.0244 34.396C35.7078 33.7714 35.434 33.2237 35.374 32.7873C35.2885 32.1285 35.1858 31.7263 35.2885 30.939C35.3911 30.1517 35.8533 29.0307 35.8447 28.9452C35.8362 28.8596 35.742 28.4574 34.8007 28.449C33.8595 28.4403 33.0464 28.6285 32.9525 28.8767C32.8582 29.1249 32.7556 29.7069 32.5587 30.2715C32.3621 30.8364 30.0774 35.9364 29.4783 37.254C29.1704 37.93 28.905 38.469 28.7168 38.837C28.7168 38.837 28.7082 38.8628 28.6826 38.9054C28.52 39.2221 28.4257 39.3932 28.4257 39.3932C28.4257 39.3932 28.4257 39.3932 28.4257 39.4018C28.2975 39.6329 28.1604 39.8467 28.092 39.8467C28.0407 39.8467 27.9467 39.2307 28.1091 38.3921C28.4515 36.6207 29.2643 33.8654 29.2559 33.7714C29.2559 33.7201 29.4099 33.2408 28.7253 32.9926C28.0578 32.7444 27.8182 33.1553 27.7582 33.1553C27.6985 33.1553 27.6556 33.3008 27.6556 33.3008C27.6556 33.3008 28.4002 30.2031 26.2353 30.2031C24.8832 30.2031 23.0178 31.6834 22.0937 33.0184C21.5118 33.335 20.271 34.011 18.9447 34.7382C18.4399 35.0207 17.9179 35.3031 17.4301 35.5684C17.3959 35.5342 17.3617 35.4913 17.3274 35.4571C14.709 32.6589 9.86579 30.6824 10.0711 26.9258C10.1482 25.5566 10.6188 21.9628 19.3725 17.5987C26.5775 14.0476 32.3107 15.0316 33.3033 17.2136C34.7236 20.3284 30.2314 26.1128 22.7868 26.9514C19.9459 27.268 18.457 26.1728 18.0805 25.7621C17.6868 25.3342 17.6269 25.3086 17.4815 25.3942C17.2419 25.5224 17.3959 25.9074 17.4815 26.1299C17.7039 26.7118 18.6195 27.7386 20.1683 28.2435C21.5375 28.6885 24.8661 28.9367 28.8964 27.3793C33.406 25.6337 36.9315 20.7819 35.896 16.7173C34.8607 12.5929 28.0151 11.2323 21.5375 13.5341C17.6868 14.9033 13.511 17.0596 10.5075 19.8663C6.9393 23.2035 6.37449 26.1043 6.60559 27.3193C7.43559 31.6321 13.3827 34.4387 15.7615 36.5181C15.6417 36.5865 15.5305 36.6465 15.4364 36.6978C14.2469 37.2882 9.71169 39.6585 8.58219 42.1658C7.29869 45.0067 8.7876 47.0432 9.7717 47.3169C12.8265 48.1642 15.9669 46.641 17.6526 44.1252C19.3383 41.6094 19.133 38.3408 18.3543 36.8434C18.3457 36.8263 18.3372 36.8092 18.32 36.7921C18.6281 36.6123 18.9447 36.4241 19.2528 36.2443C19.8603 35.885 20.4593 35.5513 20.9727 35.2773C20.6818 36.0732 20.4679 37.0229 20.3651 38.3921C20.2368 40.0009 20.8957 42.0887 21.7599 42.9102C22.145 43.2695 22.5985 43.2782 22.8895 43.2782C23.8993 43.2782 24.3528 42.4396 24.8576 41.447C25.4736 40.2317 26.03 38.8199 26.03 38.8199C26.03 38.8199 25.3367 42.6364 27.2192 42.6364C27.9038 42.6364 28.5968 41.7465 28.905 41.293C28.905 41.3014 28.905 41.3014 28.905 41.3014C28.905 41.3014 28.9222 41.2759 28.9564 41.2159C29.0248 41.1046 29.0675 41.0361 29.0675 41.0361C29.0675 41.0361 29.0675 41.0277 29.0675 41.019C29.3415 40.5399 29.9574 39.4532 30.8731 37.6475C32.0539 35.3202 33.192 32.4109 33.192 32.4109C33.192 32.4109 33.2947 33.121 33.6455 34.3018C33.8508 34.9951 34.2788 35.7566 34.621 36.4925C34.3472 36.8776 34.1761 37.0914 34.1761 37.0914C34.1761 37.0914 34.1761 37.0914 34.1846 37.1C33.9622 37.3909 33.7226 37.7075 33.4573 38.0155C32.5245 39.1281 31.4122 40.4031 31.2582 40.771C31.0784 41.2075 31.1213 41.5239 31.4635 41.7807C31.7117 41.9689 32.1565 41.9945 32.61 41.9689C33.4486 41.9089 34.0393 41.7036 34.3301 41.5752C34.7836 41.4128 35.3143 41.1646 35.8104 40.7966C36.7261 40.1207 37.2823 39.1536 37.231 37.8786C37.2052 37.1769 36.9741 36.4754 36.6919 35.8164C36.7775 35.6966 36.8543 35.5768 36.9399 35.4571C38.3862 33.3435 39.507 31.0246 39.507 31.0246C39.507 31.0246 39.6097 31.7347 39.9605 32.9157C40.1316 33.5146 40.4825 34.165 40.7907 34.7982C39.4301 35.9021 38.5915 37.1856 38.292 38.0242C37.7529 39.5816 38.1722 40.2831 38.9679 40.4457C39.3275 40.5228 39.8408 40.3517 40.2174 40.1891C40.6965 40.0351 41.2613 39.7698 41.8004 39.376C42.7158 38.7001 43.5973 37.7589 43.546 36.4839C43.5202 35.9021 43.3662 35.3286 43.1522 34.7725C44.3075 34.2934 45.7965 34.0281 47.6961 34.2505C51.7693 34.7298 52.5736 37.2711 52.4194 38.3408C52.2654 39.4103 51.4097 39.9922 51.1273 40.172C50.8451 40.3517 50.7509 40.4115 50.7767 40.5399C50.8109 40.7282 50.9478 40.7195 51.1873 40.6853C51.5211 40.6255 53.3265 39.8211 53.4036 37.8531C53.532 35.3373 51.136 32.5904 46.9004 32.6162ZM15.4791 43.2097C14.1271 44.6814 12.2446 45.2378 11.4317 44.7671C10.5589 44.2621 10.9012 42.0887 12.5612 40.5313C13.5709 39.5816 14.8716 38.7001 15.7358 38.161C15.9326 38.0413 16.2236 37.8702 16.5744 37.6562C16.6343 37.622 16.6686 37.6049 16.6686 37.6049C16.737 37.562 16.8055 37.5193 16.8739 37.4764C17.4815 39.7014 16.8996 41.661 15.4791 43.2097ZM25.3196 36.5181C24.849 37.6649 23.865 40.5997 23.266 40.4373C22.7525 40.3002 22.4359 38.0755 23.1633 35.8764C23.5313 34.7724 24.3099 33.4548 24.7634 32.9413C25.4993 32.1198 26.3122 31.846 26.509 32.1798C26.7572 32.6162 25.6107 35.7992 25.3196 36.5181ZM33.4402 40.4031C33.2433 40.5057 33.0551 40.5742 32.9696 40.5228C32.9096 40.4886 33.0551 40.3517 33.0551 40.3517C33.0551 40.3517 34.0735 39.2563 34.4757 38.7601C34.7065 38.469 34.9805 38.1268 35.2714 37.7417C35.2714 37.776 35.2714 37.8189 35.2714 37.8531C35.2714 39.1623 34.005 40.0435 33.4402 40.4031ZM39.7039 38.9739C39.5583 38.8712 39.5841 38.529 40.0718 37.4593C40.26 37.04 40.7051 36.3385 41.4666 35.6624C41.5522 35.9364 41.6122 36.2014 41.6035 36.4496C41.595 38.1013 40.414 38.7172 39.7039 38.9739Z" fill="white"/>
</g>
</g>
</g>
<defs>
<clipPath id="clip0_451_6854">
<rect width="60" height="60" fill="white"/>
</clipPath>
</defs>
</svg>
