<svg width="60" height="60" viewBox="0 0 60 60" fill="none" xmlns="http://www.w3.org/2000/svg">
<g clip-path="url(#clip0_451_6866)">
<mask id="mask0_451_6866" style="mask-type:luminance" maskUnits="userSpaceOnUse" x="0" y="0" width="60" height="60">
<path d="M60 0H0V60H60V0Z" fill="white"/>
</mask>
<g mask="url(#mask0_451_6866)">
<path d="M45.9375 0H14.0625C6.296 0 0 6.296 0 14.0625V45.9375C0 53.704 6.296 60 14.0625 60H45.9375C53.704 60 60 53.704 60 45.9375V14.0625C60 6.296 53.704 0 45.9375 0Z" fill="#F4F2ED"/>
<path d="M52.4998 18.0128C52.4998 18.0128 37.4998 6.97506 25.8962 9.52225L25.047 9.80526C23.3489 10.3713 21.9338 11.2203 21.0848 12.3524L20.5187 13.2015L16.2734 20.56L23.6319 21.9751C26.7451 23.9562 30.7074 24.8053 34.3866 23.9562L47.4055 26.5034L52.4998 18.0128Z" fill="#76B3E1"/>
<path opacity="0.3" d="M52.4998 18.0128C52.4998 18.0128 37.4998 6.97506 25.8962 9.52225L25.047 9.80526C23.3489 10.3713 21.9338 11.2203 21.0848 12.3524L20.5187 13.2015L16.2734 20.56L23.6319 21.9751C26.7451 23.9562 30.7074 24.8053 34.3866 23.9562L47.4055 26.5034L52.4998 18.0128Z" fill="url(#paint0_linear_451_6866)"/>
<path d="M21.0862 18.0125L19.9541 18.2956C15.1428 19.7106 13.7277 24.2389 16.2749 28.2012C19.105 31.8804 25.0484 33.8616 29.8597 32.4464L47.4069 26.5032C47.4069 26.5032 32.4069 15.4654 21.0862 18.0125Z" fill="#518AC8"/>
<path opacity="0.3" d="M21.0862 18.0125L19.9541 18.2956C15.1428 19.7106 13.7277 24.2389 16.2749 28.2012C19.105 31.8804 25.0484 33.8616 29.8597 32.4464L47.4069 26.5032C47.4069 26.5032 32.4069 15.4654 21.0862 18.0125Z" fill="url(#paint1_linear_451_6866)"/>
<path d="M44.2924 30.7484C42.7078 28.7689 40.5687 27.3073 38.1483 26.551C35.7281 25.7946 33.1373 25.778 30.7076 26.5031L13.1604 32.1635L7.5 42.0692L39.198 47.4464L44.8584 37.2579C45.9905 35.2767 45.7076 33.0124 44.2924 30.7484Z" fill="url(#paint2_linear_451_6866)"/>
<path d="M38.632 40.6541C37.0477 38.6746 34.9083 37.213 32.4879 36.4567C30.0677 35.7004 27.477 35.6837 25.0472 36.4089L7.5 42.0693C7.5 42.0693 22.5 53.39 34.1037 50.5597L34.9528 50.2768C39.7641 48.8617 41.4623 44.3333 38.632 40.6541Z" fill="url(#paint3_linear_451_6866)"/>
</g>
</g>
<defs>
<linearGradient id="paint0_linear_451_6866" x1="14.1508" y1="8.95621" x2="49.3866" y2="26.0789" gradientUnits="userSpaceOnUse">
<stop offset="0.1" stop-color="#76B3E1"/>
<stop offset="0.3" stop-color="#DCF2FD"/>
<stop offset="1" stop-color="#76B3E1"/>
</linearGradient>
<linearGradient id="paint1_linear_451_6866" x1="33.4824" y1="17.3333" x2="27.3125" y2="37.8804" gradientUnits="userSpaceOnUse">
<stop stop-color="#76B3E1"/>
<stop offset="0.5" stop-color="#4377BB"/>
<stop offset="1" stop-color="#1F3B77"/>
</linearGradient>
<linearGradient id="paint2_linear_451_6866" x1="11.5755" y1="26.2767" x2="47.2076" y2="50.5031" gradientUnits="userSpaceOnUse">
<stop stop-color="#315AA9"/>
<stop offset="0.5" stop-color="#518AC8"/>
<stop offset="1" stop-color="#315AA9"/>
</linearGradient>
<linearGradient id="paint3_linear_451_6866" x1="27.6509" y1="29.1918" x2="13.2736" y2="81.9184" gradientUnits="userSpaceOnUse">
<stop stop-color="#4377BB"/>
<stop offset="0.5" stop-color="#1A336B"/>
<stop offset="1" stop-color="#1A336B"/>
</linearGradient>
<clipPath id="clip0_451_6866">
<rect width="60" height="60" fill="white"/>
</clipPath>
</defs>
</svg>
