<svg width="60" height="60" viewBox="0 0 60 60" fill="none" xmlns="http://www.w3.org/2000/svg">
<g clip-path="url(#clip0_451_6879)">
<mask id="mask0_451_6879" style="mask-type:luminance" maskUnits="userSpaceOnUse" x="0" y="0" width="60" height="60">
<path d="M60 0H0V60H60V0Z" fill="white"/>
</mask>
<g mask="url(#mask0_451_6879)">
<path d="M45.9375 0H14.0625C6.296 0 0 6.296 0 14.0625V45.9375C0 53.704 6.296 60 14.0625 60H45.9375C53.704 60 60 53.704 60 45.9375V14.0625C60 6.296 53.704 0 45.9375 0Z" fill="#F4F2ED"/>
<path d="M49.1121 40.2706C43.343 47.9574 31.0188 45.3626 23.1176 45.7357C23.1176 45.7357 21.7189 45.8135 20.3101 46.0456C20.3101 46.0456 20.8428 45.8182 21.5222 45.5841C27.0717 43.665 29.6941 43.2795 33.0661 41.5474C39.4017 38.3018 45.7073 31.2326 46.9903 23.8887C44.5786 30.9518 37.2443 37.0308 30.566 39.4992C25.9948 41.186 17.7274 42.8283 17.7274 42.8283C17.7312 42.8342 17.3979 42.6553 17.3933 42.6514C11.7716 39.9162 11.6093 27.7404 21.8195 23.8156C26.2962 22.0936 30.578 23.0394 35.4173 21.8876C40.5788 20.6604 46.5567 16.7916 48.9865 11.7335C51.7104 19.8129 54.982 32.4532 49.1121 40.2706ZM49.2124 9.22992C48.5257 10.8617 47.6873 12.3321 46.7212 13.6472C42.468 9.28216 36.5316 6.5625 29.9698 6.5625C17.0622 6.5625 6.5625 17.0634 6.5625 29.9686C6.5625 36.7339 9.4502 42.8353 14.0542 47.1122L14.5667 47.5662C13.7108 46.8682 13.5791 45.6113 14.2729 44.7544C14.9709 43.8973 16.2292 43.7644 17.0855 44.4586C17.9442 45.1542 18.075 46.4145 17.3798 47.2728C16.6871 48.1315 15.4266 48.2611 14.5691 47.5683L14.9179 47.8772C18.9903 51.3061 24.24 53.3773 29.9698 53.3773C42.3073 53.3773 52.4381 43.7761 53.3053 31.6578C53.948 25.7243 52.1951 18.19 49.2124 9.22992Z" fill="#5FB832"/>
</g>
</g>
<defs>
<clipPath id="clip0_451_6879">
<rect width="60" height="60" fill="white"/>
</clipPath>
</defs>
</svg>
