<svg width="60" height="60" viewBox="0 0 60 60" fill="none" xmlns="http://www.w3.org/2000/svg">
<g clip-path="url(#clip0_451_6887)">
<mask id="mask0_451_6887" style="mask-type:luminance" maskUnits="userSpaceOnUse" x="0" y="0" width="60" height="60">
<path d="M60 0H0V60H60V0Z" fill="white"/>
</mask>
<g mask="url(#mask0_451_6887)">
<mask id="mask1_451_6887" style="mask-type:luminance" maskUnits="userSpaceOnUse" x="0" y="0" width="60" height="60">
<path d="M45.9375 0H14.0625C6.296 0 0 6.296 0 14.0625V45.9375C0 53.704 6.296 60 14.0625 60H45.9375C53.704 60 60 53.704 60 45.9375V14.0625C60 6.296 53.704 0 45.9375 0Z" fill="white"/>
</mask>
<g mask="url(#mask1_451_6887)">
<path d="M14.0625 0C6.296 0 0 6.29599 0 14.0625V45.9375C0 53.704 6.296 60 14.0625 60H39.4828C39.0659 58.7712 38.7394 56.8252 38.5556 54.604C38.3974 52.6934 38.3449 50.5795 38.4326 48.5407C38.4089 48.2393 38.3946 48.0434 38.3946 48.0434C38.3946 48.0434 37.9554 45.0879 37.3233 42.66C37.0434 41.5823 36.7249 40.6078 36.3905 40.043C36.2182 39.7516 36.4092 38.5545 36.8899 36.7814C37.1712 37.2668 38.3578 39.3436 38.5962 40.013C38.8645 40.7695 38.9208 40.9863 38.9208 40.9863C38.9208 40.9863 38.2699 37.6413 37.2021 35.6895C37.4363 34.9003 37.7159 34.0282 38.0323 33.0959C38.4021 33.7444 39.2428 35.2336 39.5466 35.9393C39.5747 36.0047 39.6 36.0661 39.6185 36.1167C39.6616 36.2391 39.698 36.3429 39.7305 36.438C39.9019 36.9345 39.9436 37.0924 39.9436 37.0924C39.9436 37.0924 39.8801 36.7676 39.762 36.2665C39.712 36.0548 39.6499 35.8059 39.5808 35.5409C39.3117 34.5075 38.903 33.1547 38.3796 32.0946C39.723 25.1116 44.047 15.9681 48.7055 11.0318C49.107 10.6067 49.5103 10.2088 49.9144 9.85019C52.6376 7.43611 55.397 6.6207 57.676 8.65066C59.324 10.1197 59.999 12.1487 60 14.4845V14.0625C60 6.29599 53.704 0 45.9375 0H14.0625Z" fill="#D9D9D9"/>
<path d="M14.0625 0C6.296 0 0 6.29599 0 14.0625V45.9375C0 53.704 6.296 60 14.0625 60H39.4828C39.0659 58.7712 38.7394 56.8252 38.5556 54.604C38.3974 52.6934 38.3449 50.5795 38.4326 48.5407C38.4089 48.2393 38.3946 48.0434 38.3946 48.0434C38.3946 48.0434 37.9554 45.0879 37.3233 42.66C37.0434 41.5823 36.7249 40.6078 36.3905 40.043C36.2182 39.7516 36.4092 38.5545 36.8899 36.7814C37.1712 37.2668 38.3578 39.3436 38.5962 40.013C38.8645 40.7695 38.9208 40.9863 38.9208 40.9863C38.9208 40.9863 38.2699 37.6413 37.2021 35.6895C37.4363 34.9003 37.7159 34.0282 38.0323 33.0959C38.4021 33.7444 39.2428 35.2336 39.5466 35.9393C39.5747 36.0047 39.6 36.0661 39.6185 36.1167C39.6616 36.2391 39.698 36.3429 39.7305 36.438C39.9019 36.9345 39.9436 37.0924 39.9436 37.0924C39.9436 37.0924 39.8801 36.7676 39.762 36.2665C39.712 36.0548 39.6499 35.8059 39.5808 35.5409C39.3117 34.5075 38.903 33.1547 38.3796 32.0946C39.723 25.1116 44.047 15.9681 48.7055 11.0318C49.107 10.6067 49.5103 10.2088 49.9144 9.85019C52.6376 7.43611 55.397 6.6207 57.676 8.65066C59.324 10.1197 59.999 12.1487 60 14.4845V14.0625C60 6.29599 53.704 0 45.9375 0H14.0625Z" fill="url(#paint0_linear_451_6887)"/>
<path d="M57.676 8.65067C55.397 6.6207 52.6375 7.43611 49.9143 9.8502C49.5103 10.2088 49.1069 10.6067 48.7054 11.0318C44.047 15.9681 39.723 25.1116 38.3795 32.0946C38.9029 33.1547 39.3117 34.5075 39.5807 35.5409C39.6499 35.8059 39.712 36.0548 39.7619 36.2665C39.88 36.7676 39.9435 37.0924 39.9435 37.0924C39.9435 37.0924 39.9018 36.9345 39.7305 36.4381C39.6979 36.3429 39.6616 36.2391 39.6185 36.1167C39.5999 36.0661 39.5746 36.0047 39.5465 35.9393C39.2427 35.2336 38.402 33.7444 38.0322 33.0959C37.7158 34.0282 37.4362 34.9003 37.202 35.6895C38.2699 37.6413 38.9207 40.9863 38.9207 40.9863C38.9207 40.9863 38.8645 40.7695 38.5961 40.013C38.3578 39.3436 37.1711 37.2668 36.8899 36.7814C36.4092 38.5545 36.2181 39.7516 36.3904 40.043C36.7249 40.6078 37.0434 41.5823 37.3232 42.66C37.9553 45.0879 38.3945 48.0434 38.3945 48.0434C38.3945 48.0434 38.4088 48.2393 38.4325 48.5407C38.3449 50.5795 38.3974 52.6934 38.5556 54.604C38.7649 57.1331 39.1591 59.306 39.6616 60.4688L40.0026 60.2829C39.2648 57.9921 38.965 54.9898 39.0963 51.5271C39.2948 46.2347 40.5142 39.8522 42.767 33.1999C46.5733 23.1577 51.8542 15.1005 56.688 11.2527C52.2822 15.2266 46.3199 28.0898 44.5352 32.8533C42.5369 38.1874 41.1206 43.1932 40.2672 47.989C41.7398 43.493 46.5011 41.5603 46.5011 41.5603C46.5011 41.5603 48.8364 38.6836 51.5655 34.5736C49.9307 34.946 47.2464 35.5835 46.3471 35.9609C45.021 36.5166 44.6636 36.7062 44.6636 36.7062C44.6636 36.7062 48.9597 34.0929 52.6455 32.9098C57.715 24.9352 63.237 13.6062 57.676 8.65067Z" fill="#003B57"/>
<path d="M6.68435 11.4844C5.96645 11.4844 5.38265 11.6941 4.93515 12.1133C4.48755 12.5328 4.26055 13.0827 4.26055 13.7566C4.26055 14.1058 4.31695 14.4242 4.42805 14.7159C4.53915 15.0083 4.71205 15.2791 4.94445 15.5238C5.17685 15.7688 5.64215 16.1015 6.33545 16.5245C7.18625 17.037 7.74305 17.4529 8.01025 17.7777C8.27765 18.1021 8.41035 18.4422 8.41035 18.7967C8.41035 19.2714 8.25195 19.6503 7.92655 19.9351C7.60045 20.22 7.16445 20.362 6.62395 20.362C6.05375 20.362 5.55705 20.1637 5.13055 19.7699C4.70405 19.3755 4.48875 18.8538 4.48385 18.2H4.21875V20.5732H4.48385C4.56485 20.3484 4.67685 20.2335 4.82345 20.2335C4.89405 20.2335 5.05925 20.2815 5.31665 20.3712C5.94285 20.591 6.45695 20.6971 6.86115 20.6971C7.55765 20.6971 8.15225 20.4564 8.64765 19.9672C9.14225 19.4783 9.39195 18.8885 9.39195 18.2C9.39195 17.6661 9.22715 17.1911 8.90355 16.777C8.57985 16.3624 7.95055 15.8802 7.01005 15.3265C6.20075 14.8467 5.67545 14.4559 5.43295 14.1513C5.19005 13.8472 5.06545 13.5107 5.06545 13.1415C5.06545 12.7421 5.21405 12.4213 5.50735 12.1821C5.80065 11.9427 6.18495 11.8241 6.66575 11.8241C7.20695 11.8241 7.65795 11.9825 8.01495 12.3015C8.37145 12.6209 8.57765 13.0637 8.63835 13.6326H8.90355V11.5762H8.65695C8.62675 11.681 8.59885 11.748 8.57315 11.7782C8.54825 11.8081 8.50025 11.8241 8.42895 11.8241C8.34315 11.8241 8.19025 11.7884 7.97305 11.7185C7.50785 11.5639 7.07885 11.4844 6.68435 11.4844ZM15.3515 11.4844C14.4767 11.4844 13.6825 11.6878 12.9649 12.0949C12.2463 12.5012 11.6773 13.0654 11.2575 13.7841C10.8378 14.5027 10.6295 15.2659 10.6295 16.0792C10.6295 17.172 10.992 18.1455 11.7228 18.9987C12.4539 19.8514 13.33 20.3827 14.3466 20.5869C14.579 20.7064 14.9116 21.0149 15.3469 21.5142C15.8374 22.0776 16.2524 22.484 16.5937 22.726C16.9346 22.9681 17.3026 23.1456 17.6915 23.2631C18.0808 23.3801 18.5018 23.4375 18.957 23.4375C19.5082 23.4375 20.0017 23.343 20.4364 23.1483L20.3386 22.9096C20.0863 22.9994 19.8172 23.0427 19.5338 23.0427C19.1491 23.0427 18.7604 22.9176 18.3707 22.6663C17.9816 22.4145 17.495 21.9339 16.9146 21.225C16.6418 20.8853 16.4534 20.671 16.347 20.5869C17.4593 20.3726 18.374 19.8407 19.0873 18.9895C19.8004 18.1387 20.1573 17.1676 20.1573 16.0792C20.1573 14.787 19.6912 13.701 18.7662 12.8156C17.8404 11.93 16.702 11.4844 15.3515 11.4844ZM20.7621 11.4844L20.776 11.7644C21.3585 11.7644 21.6846 11.9337 21.7575 12.2739C21.7847 12.3956 21.7972 12.6204 21.7994 12.9441L21.7948 19.1364C21.7899 19.5989 21.7232 19.8942 21.5948 20.0223C21.4662 20.1496 21.2488 20.2293 20.9341 20.261L20.9203 20.541H26.7261L26.875 19.1364H26.61C26.5343 19.519 26.3605 19.7932 26.0842 19.9489C25.8069 20.1057 25.3171 20.183 24.6093 20.183H24.0605C23.4237 20.183 23.0553 19.9558 22.9579 19.499C22.9378 19.4087 22.9309 19.3117 22.93 19.2052L22.9533 12.9441C22.9531 12.4823 23.0122 12.1729 23.1346 12.0214C23.2584 11.8705 23.4815 11.786 23.8044 11.7644L23.7907 11.4844H20.7621ZM15.4445 11.8241C16.4311 11.8241 17.2368 12.2075 17.8591 12.9808C18.4812 13.7544 18.7894 14.8147 18.7894 16.1573C18.7894 17.4295 18.4767 18.4482 17.8498 19.2144C17.2228 19.9804 16.3884 20.362 15.3515 20.362C14.3554 20.362 13.5476 19.9685 12.9277 19.1777C12.3084 18.3869 12.0019 17.3602 12.0019 16.0976C12.0019 14.8002 12.3121 13.7617 12.937 12.9854C13.5615 12.21 14.3977 11.8241 15.4445 11.8241ZM28.7965 13.1552C28.6549 13.1552 28.5469 13.2024 28.4662 13.2975C28.3835 13.3923 28.3582 13.507 28.387 13.6464C28.4149 13.7816 28.4922 13.9001 28.615 13.9999C28.7371 14.0995 28.8688 14.1513 29.0104 14.1513C29.1472 14.1513 29.2518 14.0995 29.3268 13.9999C29.4018 13.9001 29.4245 13.7816 29.3966 13.6464C29.3676 13.507 29.2931 13.3923 29.178 13.2975C29.0616 13.2024 28.9334 13.1552 28.7965 13.1552ZM32.6251 14.1054C32.3844 15.0188 31.863 15.513 31.0622 15.5927L31.0712 15.8543H32.0065L31.9879 18.9482C31.9893 19.4771 32.0058 19.8293 32.0438 20.0085C32.1359 20.4377 32.4198 20.6558 32.8949 20.6558C33.5826 20.6558 34.304 20.2425 35.0582 19.4164L34.8304 19.2236C34.2857 19.7676 33.804 20.0407 33.3836 20.0407C33.1251 20.0407 32.9648 19.894 32.9044 19.6046C32.8877 19.5343 32.8812 19.4522 32.8812 19.3567L32.8905 15.8543H34.3186L34.3048 15.4366H32.8949V14.1054H32.6251ZM38.1473 15.2714C37.3486 15.2714 36.6987 15.654 36.1936 16.4144C35.6909 17.176 35.5352 18.0198 35.733 18.9482C35.8493 19.492 36.0809 19.9135 36.4355 20.2105C36.7894 20.5075 37.2384 20.6558 37.7752 20.6558C38.2751 20.6558 38.9712 20.5309 39.2639 20.2794C39.5576 20.028 39.8283 19.6207 40.0781 19.063L39.8779 18.8564C39.4794 19.58 38.6748 19.9443 38.0683 19.9443C37.2341 19.9443 36.7235 19.4928 36.5332 18.5948C36.5084 18.4801 36.4898 18.357 36.4772 18.2275C37.4695 18.0725 38.2214 17.798 38.7291 17.4013C39.236 17.0043 39.7453 16.5835 39.6502 16.1389C39.5934 15.8748 39.4545 15.6671 39.2407 15.5101C39.0241 15.3531 38.4616 15.2714 38.1473 15.2714ZM29.4151 15.3035L27.694 15.6937V15.9966L28.2892 15.9232C28.5777 15.9232 28.7475 16.0521 28.8012 16.3088C28.8192 16.3947 28.8305 16.5153 28.8337 16.6668L28.815 19.4439C28.8103 19.8282 28.7669 20.0516 28.6801 20.1187C28.5925 20.1859 28.3614 20.2197 27.9869 20.2197L27.9776 20.4814H30.7085L30.7037 20.2197C30.3243 20.2197 30.0785 20.1902 29.9688 20.1325C29.861 20.0752 29.7869 19.9709 29.7547 19.8112C29.7299 19.6961 29.7191 19.4977 29.7175 19.2236L29.7269 15.3035H29.4151ZM37.7101 15.8176C37.8763 15.8176 38.037 15.8809 38.1987 16.0058C38.358 16.1302 38.4552 16.2686 38.4869 16.4189C38.6427 17.1573 37.9793 17.6677 36.4866 17.9521C36.4439 17.4137 36.5386 16.925 36.7798 16.4832C37.0191 16.0418 37.3307 15.8176 37.7101 15.8176Z" fill="#003B57"/>
</g>
</g>
</g>
<defs>
<linearGradient id="paint0_linear_451_6887" x1="34.597" y1="1.22787" x2="34.597" y2="56.6632" gradientUnits="userSpaceOnUse">
<stop stop-color="#97D9F6"/>
<stop offset="0.920245" stop-color="#0F80CC"/>
<stop offset="1" stop-color="#0F80CC"/>
</linearGradient>
<clipPath id="clip0_451_6887">
<rect width="60" height="60" fill="white"/>
</clipPath>
</defs>
</svg>
