<svg width="60" height="60" viewBox="0 0 60 60" fill="none" xmlns="http://www.w3.org/2000/svg">
<g clip-path="url(#clip0_451_6901)">
<mask id="mask0_451_6901" style="mask-type:luminance" maskUnits="userSpaceOnUse" x="0" y="0" width="60" height="60">
<path d="M60 0H0V60H60V0Z" fill="white"/>
</mask>
<g mask="url(#mask0_451_6901)">
<path d="M45.9375 0H14.0625C6.296 0 0 6.296 0 14.0625V45.9375C0 53.704 6.296 60 14.0625 60H45.9375C53.704 60 60 53.704 60 45.9375V14.0625C60 6.296 53.704 0 45.9375 0Z" fill="#F4F2ED"/>
<path d="M43.0174 48.3697V36.9678H48.0848V53.4373H10.0781V36.9678H15.1457V48.3697H43.0174Z" fill="#BCBBBB"/>
<path d="M37.3172 6.5625L33.8967 9.09628L46.4388 25.946L49.8595 23.4122L37.3172 6.5625ZM43.0183 29.8732L26.9287 16.4443L29.5891 13.277L45.6787 26.7061L43.0183 29.8732ZM21.6078 25.8192L40.6111 34.6875L42.3848 30.8869L23.3814 22.0186L21.6078 25.8192ZM39.3443 39.4889L40.2058 35.7518L19.8088 31.5075L18.9473 35.7009L39.3443 39.4889ZM39.2175 44.5692H18.9473V40.7686H39.2175V44.5692Z" fill="#F48024"/>
</g>
</g>
<defs>
<clipPath id="clip0_451_6901">
<rect width="60" height="60" fill="white"/>
</clipPath>
</defs>
</svg>
