<svg width="60" height="60" viewBox="0 0 60 60" fill="none" xmlns="http://www.w3.org/2000/svg">
<g clip-path="url(#clip0_451_6910)">
<mask id="mask0_451_6910" style="mask-type:luminance" maskUnits="userSpaceOnUse" x="0" y="0" width="60" height="60">
<path d="M60 0H0V60H60V0Z" fill="white"/>
</mask>
<g mask="url(#mask0_451_6910)">
<path d="M45.9375 0H14.0625C6.296 0 0 6.296 0 14.0625V45.9375C0 53.704 6.296 60 14.0625 60H45.9375C53.704 60 60 53.704 60 45.9375V14.0625C60 6.296 53.704 0 45.9375 0Z" fill="#F05138"/>
<path d="M47.5021 37.0406C47.5586 36.8142 47.6151 36.588 47.6718 36.3618C50.1599 26.4656 44.1091 14.7031 33.817 8.53906C38.3409 14.6465 40.3202 22.0546 38.567 28.5013C38.3974 29.0669 38.2277 29.6324 38.0015 30.198C37.7753 30.0283 37.4927 29.8586 37.0968 29.6889C37.0968 29.6889 26.8612 23.3553 15.7773 12.2148C15.4945 11.9321 21.7151 21.0932 28.7273 28.5013C25.391 26.6353 16.1731 19.9057 10.2919 14.59C11.027 15.7775 11.8753 16.9651 12.7801 18.0395C17.6434 24.2601 24.0337 31.8944 31.668 37.7756C26.2956 41.0556 18.7179 41.3383 11.1967 37.7756C9.3305 36.9274 7.5775 35.853 5.9375 34.6654C9.1043 39.7549 14.0242 44.1658 20.0185 46.7671C27.1438 49.8208 34.2693 49.6513 39.5285 46.8236C39.5285 46.8236 39.5849 46.8236 39.5849 46.7671C39.8111 46.6542 40.0375 46.4845 40.2637 46.3713C42.8083 45.0707 47.7848 43.7699 50.4993 48.9726C51.291 50.1602 52.7048 43.3741 47.5021 37.0406Z" fill="white"/>
</g>
</g>
<defs>
<clipPath id="clip0_451_6910">
<rect width="60" height="60" fill="white"/>
</clipPath>
</defs>
</svg>
