<svg width="60" height="60" viewBox="0 0 60 60" fill="none" xmlns="http://www.w3.org/2000/svg">
<g clip-path="url(#clip0_451_6926)">
<mask id="mask0_451_6926" style="mask-type:luminance" maskUnits="userSpaceOnUse" x="0" y="0" width="60" height="60">
<path d="M60 0H0V60H60V0Z" fill="white"/>
</mask>
<g mask="url(#mask0_451_6926)">
<path d="M45.9375 0H14.0625C6.296 0 0 6.296 0 14.0625V45.9375C0 53.704 6.296 60 14.0625 60H45.9375C53.704 60 60 53.704 60 45.9375V14.0625C60 6.296 53.704 0 45.9375 0Z" fill="#007ACC"/>
<path d="M13.2671 30.1989L13.248 32.6561H17.1528H21.0575V43.7514V54.8465H23.8195H26.5814V43.7514V32.6561H30.4861H34.3908V30.2465C34.3908 28.9131 34.3624 27.7989 34.3242 27.7703C34.2956 27.7323 29.5432 27.7131 23.7813 27.7227L13.2956 27.7513L13.2671 30.1989Z" fill="white"/>
<path d="M48.4142 27.6815C49.9379 28.0626 51.0999 28.7388 52.1666 29.8434C52.719 30.434 53.538 31.5103 53.605 31.7674C53.624 31.8435 51.0141 33.596 49.4333 34.5768C49.3761 34.615 49.1473 34.3673 48.8902 33.9864C48.1189 32.8626 47.3094 32.3767 46.0712 32.2912C44.2522 32.1672 43.0808 33.1197 43.0904 34.7102C43.0904 35.1768 43.157 35.4529 43.3475 35.834C43.7473 36.6625 44.4903 37.1578 46.8238 38.1672C51.1189 40.015 52.9569 41.234 54.1 42.9672C55.376 44.9006 55.662 47.9863 54.795 50.2816C53.843 52.7767 51.4808 54.472 48.1569 55.034C47.1284 55.2149 44.6902 55.1863 43.5856 54.9864C41.176 54.5578 38.8904 53.3674 37.4809 51.8055C36.9284 51.1959 35.8522 49.6054 35.919 49.491C35.9473 49.4531 36.1951 49.3007 36.4712 49.1388C36.7379 48.9864 37.7476 48.4054 38.6998 47.853L40.4237 46.8529L40.7856 47.3863C41.2904 48.1577 42.395 49.2149 43.0618 49.5672C44.9759 50.5769 47.6047 50.4339 48.8998 49.2721C49.4523 48.7673 49.6808 48.2435 49.6808 47.4721C49.6808 46.7767 49.595 46.4721 49.2331 45.9482C48.7665 45.2817 47.8142 44.7196 45.1093 43.5482C42.0141 42.2149 40.6808 41.3863 39.4618 40.072C38.757 39.3103 38.0902 38.091 37.8141 37.072C37.5856 36.2245 37.5284 34.1006 37.7094 33.2435C38.3473 30.2531 40.6046 28.1674 43.8617 27.5481C44.919 27.3482 47.3759 27.4244 48.4142 27.6815Z" fill="white"/>
</g>
</g>
<defs>
<clipPath id="clip0_451_6926">
<rect width="60" height="60" fill="white"/>
</clipPath>
</defs>
</svg>
