<svg width="53" height="54" viewBox="0 0 53 54" fill="none" xmlns="http://www.w3.org/2000/svg">
<rect width="53" height="53" transform="translate(0 0.5)" fill="white"/>
<path d="M49.4946 10.6794L27.7285 49.6007C27.279 50.4042 26.1246 50.409 25.6683 49.6093L3.47076 10.683C2.97389 9.81148 3.71887 8.75595 4.70633 8.93234L26.496 12.8272C26.6349 12.852 26.7772 12.8518 26.9161 12.8265L48.25 8.93797C49.2341 8.7586 49.9829 9.80618 49.4946 10.6794Z" fill="url(#paint0_linear_2134_3541)"/>
<path d="M36.875 3.82394L20.7675 6.98008C20.6388 7.00527 20.5221 7.07254 20.4357 7.1713C20.3494 7.27006 20.2984 7.39471 20.2907 7.52565L19.2999 24.2601C19.2767 24.6543 19.6386 24.9602 20.0232 24.8714L24.5078 23.8366C24.9275 23.7397 25.3066 24.1094 25.2203 24.5312L23.888 31.0557C23.7983 31.4946 24.2105 31.8702 24.6393 31.74L27.4092 30.8983C27.8387 30.768 28.2513 31.1446 28.1605 31.584L26.0431 41.8324C25.9106 42.4734 26.7633 42.8228 27.1189 42.2733L27.3564 41.9063L40.4817 15.7123C40.7015 15.2738 40.3227 14.7737 39.8407 14.8666L35.2247 15.7575C34.7908 15.8412 34.4218 15.4372 34.5442 15.0127L37.5571 4.56842C37.6796 4.14309 37.3093 3.7388 36.875 3.82394Z" fill="url(#paint1_linear_2134_3541)"/>
<defs>
<linearGradient id="paint0_linear_2134_3541" x1="2.92873" y1="7.54118" x2="30.017" y2="44.3292" gradientUnits="userSpaceOnUse">
<stop stop-color="#41D1FF"/>
<stop offset="1" stop-color="#BD34FE"/>
</linearGradient>
<linearGradient id="paint1_linear_2134_3541" x1="25.2438" y1="4.68071" x2="30.1439" y2="38.2951" gradientUnits="userSpaceOnUse">
<stop stop-color="#FFEA83"/>
<stop offset="0.0833" stop-color="#FFDD35"/>
<stop offset="1" stop-color="#FFA800"/>
</linearGradient>
</defs>
</svg>
