<svg width="60" height="60" viewBox="0 0 60 60" fill="none" xmlns="http://www.w3.org/2000/svg">
<g clip-path="url(#clip0_451_6945)">
<mask id="mask0_451_6945" style="mask-type:luminance" maskUnits="userSpaceOnUse" x="0" y="0" width="60" height="60">
<path d="M60 0H0V60H60V0Z" fill="white"/>
</mask>
<g mask="url(#mask0_451_6945)">
<path d="M45.9375 0H14.0625C6.296 0 0 6.296 0 14.0625V45.9375C0 53.704 6.296 60 14.0625 60H45.9375C53.704 60 60 53.704 60 45.9375V14.0625C60 6.296 53.704 0 45.9375 0Z" fill="#4353FF"/>
<path d="M39.634 24.2428C39.634 24.2428 36.3961 34.387 36.1568 35.2484C36.0612 34.403 33.7005 16.1719 33.7005 16.1719C28.1817 16.1719 25.2469 20.0956 23.6836 24.2428C23.6836 24.2428 19.744 34.4189 19.425 35.2643C19.409 34.4667 18.8189 24.3384 18.8189 24.3384C18.4839 19.2503 13.8424 16.1719 10.0781 16.1719L14.608 43.7817C20.382 43.7658 23.4923 39.858 25.1191 35.6951C25.1191 35.6951 28.5804 26.715 28.7241 26.3163C28.7559 26.6991 31.2122 43.7817 31.2122 43.7817C37.0022 43.7817 40.1285 40.1292 41.8031 36.1256L49.9219 16.1719C44.1956 16.1719 41.1811 20.0797 39.634 24.2428Z" fill="white"/>
</g>
</g>
<defs>
<clipPath id="clip0_451_6945">
<rect width="60" height="60" fill="white"/>
</clipPath>
</defs>
</svg>
