<svg width="60" height="60" viewBox="0 0 60 60" fill="none" xmlns="http://www.w3.org/2000/svg">
<g clip-path="url(#clip0_451_6953)">
<mask id="mask0_451_6953" style="mask-type:luminance" maskUnits="userSpaceOnUse" x="0" y="0" width="60" height="60">
<path d="M60 0H0V60H60V0Z" fill="white"/>
</mask>
<g mask="url(#mask0_451_6953)">
<path d="M45.9375 0H14.0625C6.296 0 0 6.296 0 14.0625V45.9375C0 53.704 6.296 60 14.0625 60H45.9375C53.704 60 60 53.704 60 45.9375V14.0625C60 6.296 53.704 0 45.9375 0Z" fill="#F4F2ED"/>
<path d="M30.9745 14.8037C30.9745 10.2593 27.2777 6.5625 22.7332 6.5625C17.9439 6.5625 15.0807 10.1533 15.0807 13.6264H19.7899C19.7899 12.6492 20.7035 11.2717 22.7332 11.2717C24.6804 11.2717 26.2652 12.8565 26.2652 14.8037C26.2652 16.751 24.8438 18.3357 21.2594 18.3357H8.4375V23.0449H21.2594C27.3089 23.0449 30.9745 19.3482 30.9745 14.8037ZM30.9745 14.8037C30.9745 10.2593 27.2777 6.5625 22.7332 6.5625C17.9439 6.5625 15.0807 10.1533 15.0807 13.6264H19.7899C19.7899 12.6492 20.7035 11.2717 22.7332 11.2717C24.6804 11.2717 26.2652 12.8565 26.2652 14.8037C26.2652 16.751 24.8438 18.3357 21.2594 18.3357H8.4375V23.0449H21.2594C27.3089 23.0449 30.9745 19.3482 30.9745 14.8037Z" fill="url(#paint0_linear_451_6953)"/>
<path d="M41.4217 45.1962C41.4217 49.7409 37.725 53.4375 33.1804 53.4375C28.3912 53.4375 25.5278 49.8469 25.5278 46.3737H30.2371C30.2371 47.3508 31.1507 48.7284 33.1804 48.7284C35.1278 48.7284 36.7125 47.1436 36.7125 45.1962C36.7125 43.249 34.9216 41.6644 31.7067 41.6644H17.4785V36.9551H31.7067C37.7561 36.9551 41.4217 40.6519 41.4217 45.1962ZM41.4217 45.1962C41.4217 49.7409 37.725 53.4375 33.1804 53.4375C28.3912 53.4375 25.5278 49.8469 25.5278 46.3737H30.2371C30.2371 47.3508 31.1507 48.7284 33.1804 48.7284C35.1278 48.7284 36.7125 47.1436 36.7125 45.1962C36.7125 43.249 34.9216 41.6644 31.7067 41.6644H17.4785V36.9551H31.7067C37.7561 36.9551 41.4217 40.6519 41.4217 45.1962Z" fill="url(#paint1_linear_451_6953)"/>
<path d="M42.6562 13.8281C37.462 13.8281 33.7978 17.7782 33.7978 22.9725H37.9688C37.9688 20.3906 39.8438 18.5156 42.6562 18.5156C45.4688 18.5156 46.875 20.3906 46.875 22.9725C46.875 25.5544 45.0485 27.6818 40.0781 27.6818H8.4375V32.3911H40.7812C48.142 32.3911 51.5625 27.66 51.5625 22.9725C51.5625 17.7782 48.0469 13.8281 42.6562 13.8281Z" fill="url(#paint2_linear_451_6953)"/>
<path d="M14.611 36.9551H8.4375V41.7038H14.611V36.9551Z" fill="url(#paint3_linear_451_6953)"/>
</g>
</g>
<defs>
<linearGradient id="paint0_linear_451_6953" x1="12.1875" y1="10.5469" x2="39.375" y2="53.4375" gradientUnits="userSpaceOnUse">
<stop offset="0.078" stop-color="#54C8F1"/>
<stop offset="0.573" stop-color="#41A2EF"/>
<stop offset="1" stop-color="#3386EE"/>
</linearGradient>
<linearGradient id="paint1_linear_451_6953" x1="12.1872" y1="10.5469" x2="39.3747" y2="53.4375" gradientUnits="userSpaceOnUse">
<stop offset="0.078" stop-color="#54C8F1"/>
<stop offset="0.573" stop-color="#41A2EF"/>
<stop offset="1" stop-color="#3386EE"/>
</linearGradient>
<linearGradient id="paint2_linear_451_6953" x1="12.1875" y1="10.5469" x2="39.375" y2="53.4375" gradientUnits="userSpaceOnUse">
<stop offset="0.078" stop-color="#54C8F1"/>
<stop offset="0.573" stop-color="#41A2EF"/>
<stop offset="1" stop-color="#3386EE"/>
</linearGradient>
<linearGradient id="paint3_linear_451_6953" x1="12.1875" y1="10.5469" x2="39.375" y2="53.4375" gradientUnits="userSpaceOnUse">
<stop offset="0.078" stop-color="#54C8F1"/>
<stop offset="0.573" stop-color="#41A2EF"/>
<stop offset="1" stop-color="#3386EE"/>
</linearGradient>
<clipPath id="clip0_451_6953">
<rect width="60" height="60" fill="white"/>
</clipPath>
</defs>
</svg>
