<svg width="60" height="60" viewBox="0 0 60 60" fill="none" xmlns="http://www.w3.org/2000/svg">
<path d="M45.9375 0H14.0625C6.296 0 0 6.296 0 14.0625V45.9375C0 53.704 6.296 60 14.0625 60H45.9375C53.704 60 60 53.704 60 45.9375V14.0625C60 6.296 53.704 0 45.9375 0Z" fill="#0073AA"/>
<path d="M9.8936 29.9987C9.8936 37.9569 14.5184 44.8344 21.2249 48.0936L11.6342 21.8164C10.5187 24.317 9.8936 27.084 9.8936 29.9987Z" fill="white"/>
<path d="M43.5725 28.9841C43.5725 26.4995 42.68 24.7787 41.9146 23.4393C40.8953 21.7831 39.94 20.3806 39.94 18.7245C39.94 16.8763 41.3418 15.1559 43.3161 15.1559C43.4054 15.1559 43.4898 15.167 43.5768 15.172C39.9997 11.8949 35.2342 9.89404 29.9996 9.89404C22.9758 9.89404 16.7962 13.4978 13.2012 18.9563C13.6729 18.9705 14.1174 18.9804 14.495 18.9804C16.598 18.9804 19.8533 18.7252 19.8533 18.7252C20.9371 18.6614 21.0649 20.2532 19.9822 20.3814C19.9822 20.3814 18.893 20.5095 17.681 20.5731L25.0025 42.3507L29.4025 29.1547L26.27 20.5723C25.1875 20.5088 24.1618 20.3806 24.1618 20.3806C23.0783 20.3171 23.2053 18.6606 24.2889 18.7245C24.2889 18.7245 27.609 18.9797 29.5846 18.9797C31.6874 18.9797 34.9429 18.7245 34.9429 18.7245C36.0275 18.6606 36.1548 20.2525 35.0718 20.3806C35.0718 20.3806 33.9803 20.5088 32.7707 20.5723L40.0365 42.185L42.0418 35.4838C42.9111 32.7027 43.5725 30.7053 43.5725 28.9841Z" fill="white"/>
<path d="M30.3527 31.7573L24.3203 49.2862C26.1213 49.8157 28.0263 50.1054 29.9999 50.1054C32.3411 50.1054 34.5864 49.7006 36.6763 48.9656C36.6224 48.8796 36.5734 48.7882 36.5334 48.6886L30.3527 31.7573Z" fill="white"/>
<path d="M47.6411 20.3525C47.7276 20.9929 47.7766 21.6804 47.7766 22.4199C47.7766 24.4601 47.3955 26.7537 46.2478 29.6215L40.1064 47.3775C46.0837 43.8919 50.1042 37.4163 50.1042 29.9991C50.1044 26.5034 49.2117 23.2164 47.6411 20.3525Z" fill="white"/>
<path d="M29.9995 6.5625C17.0766 6.5625 6.5625 17.0759 6.5625 29.9986C6.5625 42.923 17.0766 53.4359 29.9995 53.4359C42.9218 53.4359 53.4375 42.923 53.4375 29.9986C53.437 17.0759 42.9218 6.5625 29.9995 6.5625ZM29.9995 52.3617C17.6692 52.3617 7.6371 42.3295 7.6371 29.9986C7.6371 17.6685 17.6689 7.63713 29.9995 7.63713C42.3293 7.63713 52.3605 17.6685 52.3605 29.9986C52.3605 42.3295 42.3293 52.3617 29.9995 52.3617Z" fill="white"/>
</svg>
