<svg width="60" height="60" viewBox="0 0 60 60" fill="none" xmlns="http://www.w3.org/2000/svg">
<g clip-path="url(#clip0_451_6964)">
<mask id="mask0_451_6964" style="mask-type:luminance" maskUnits="userSpaceOnUse" x="0" y="0" width="60" height="60">
<path d="M60 0H0V60H60V0Z" fill="white"/>
</mask>
<g mask="url(#mask0_451_6964)">
<path d="M45.9375 0H14.0625C6.296 0 0 6.296 0 14.0625V45.9375C0 53.704 6.296 60 14.0625 60H45.9375C53.704 60 60 53.704 60 45.9375V14.0625C60 6.296 53.704 0 45.9375 0Z" fill="#470137"/>
<path d="M31.4623 18.8007L24.431 30.4022L31.931 42.7069C31.9779 42.8007 32.0013 42.8944 31.9779 42.9882C31.9545 43.0819 31.8607 43.0116 31.7201 43.035H26.3529C25.9779 43.035 25.7201 43.0116 25.556 42.7772C25.0638 41.7929 24.5482 40.8319 24.056 39.8475C23.5638 38.8866 23.0248 37.9022 22.4623 36.8944C21.8998 35.8866 21.3373 34.8788 20.7748 33.8475H20.7279C20.2358 34.8554 19.6967 35.8632 19.1576 36.871C18.6186 37.8788 18.0795 38.8866 17.5639 39.871C17.0248 40.8554 16.4858 41.8632 15.9467 42.8241C15.8529 43.0585 15.6654 43.0819 15.4076 43.0819H10.2514C10.1576 43.0819 10.0873 43.1288 10.0873 43.0116C10.0639 42.9179 10.0873 42.8241 10.1342 42.7538L17.4233 30.8007L10.3217 18.7773C10.2514 18.6835 10.2279 18.5898 10.2748 18.5429C10.3217 18.4726 10.4154 18.4492 10.5092 18.4492H15.8295C15.9467 18.4492 16.0639 18.4726 16.1576 18.496C16.2514 18.5429 16.3217 18.6132 16.392 18.707C16.8373 19.7148 17.3529 20.7226 17.892 21.7304C18.4545 22.7382 18.9936 23.7225 19.5795 24.7069C20.142 25.6913 20.6576 26.6757 21.1498 27.6835H21.1967C21.6889 26.6522 22.2045 25.6444 22.7201 24.66C23.2358 23.6757 23.7748 22.6914 24.3138 21.707C24.8529 20.7226 25.3685 19.7148 25.8841 18.7539C25.9076 18.6601 25.9545 18.5664 26.0248 18.5195C26.1185 18.4726 26.2123 18.4492 26.3295 18.4726H31.2748C31.392 18.4492 31.5091 18.5195 31.5326 18.6367C31.556 18.6601 31.5091 18.7539 31.4623 18.8007Z" fill="#FF61F6"/>
<path d="M42.2899 43.5272C40.5556 43.5506 38.8212 43.1991 37.2509 42.4725C35.7743 41.7928 34.5556 40.6678 33.7118 39.285C32.8446 37.8553 32.4228 36.0741 32.4228 33.9413C32.3993 32.2069 32.8446 30.4959 33.7118 28.9959C34.6024 27.4725 35.8915 26.2069 37.4384 25.3631C39.079 24.4491 41.0478 24.0038 43.3681 24.0038C43.4853 24.0038 43.6493 24.0038 43.8603 24.0272C44.0712 24.0506 44.3056 24.0506 44.5868 24.0741V16.6677C44.5868 16.5036 44.6571 16.4099 44.8212 16.4099H49.579C49.6962 16.3865 49.7899 16.4802 49.8134 16.574C49.8134 16.5974 49.8134 16.6208 49.8134 16.6208V38.9334C49.8134 39.3553 49.8368 39.8241 49.8603 40.3397C49.9071 40.8319 49.9306 41.3006 49.954 41.6991C49.954 41.8631 49.8837 42.0038 49.7196 42.0741C48.5009 42.5897 47.2118 42.9647 45.8993 43.1991C44.704 43.41 43.5087 43.5272 42.2899 43.5272ZM44.5868 38.8397V28.5272C44.3759 28.4803 44.1649 28.4334 43.954 28.41C43.6962 28.3866 43.4384 28.3631 43.1806 28.3631C42.2665 28.3631 41.3524 28.5506 40.5321 28.9725C39.7353 29.3709 39.0556 29.9569 38.5399 30.7069C38.0243 31.4569 37.7665 32.4647 37.7665 33.6834C37.7431 34.5038 37.8837 35.3241 38.1649 36.0975C38.3993 36.7303 38.7509 37.2928 39.2196 37.7616C39.6649 38.1834 40.204 38.5116 40.8134 38.6991C41.4462 38.91 42.1024 39.0038 42.7587 39.0038C43.1103 39.0038 43.4384 38.9803 43.7431 38.9569C44.0478 38.9803 44.3056 38.9334 44.5868 38.8397Z" fill="#FF61F6"/>
</g>
</g>
<defs>
<clipPath id="clip0_451_6964">
<rect width="60" height="60" fill="white"/>
</clipPath>
</defs>
</svg>
